<svg width="217" height="103" viewBox="0 0 217 103" fill="none" xmlns="http://www.w3.org/2000/svg">
<path d="M129.251 0.0925751C128.513 0.331974 128.105 0.780205 127.973 1.49839C127.917 1.78872 127.891 1.83456 127.682 1.99246C126.964 2.53747 126.98 3.33715 127.723 4.11137C128.029 4.42208 128.986 5.16064 129.475 5.45607L129.766 5.62925L128.727 5.60887C127.178 5.57322 126.119 5.71074 124.993 6.08766C123.215 6.68361 121.906 7.78381 121.367 9.1285C121.28 9.34243 121.214 9.53089 121.214 9.55636C121.214 9.57673 121.122 9.70916 121.005 9.85178C120.791 10.1217 120.531 10.4987 120.282 10.9214C120.134 11.171 120.139 11.1659 120.613 10.7177L121.086 10.2644L121.117 10.7228C121.204 11.9096 121.662 12.8824 122.569 13.7789C123.781 14.9861 125.375 15.5158 126.078 14.9504C126.226 14.8333 126.231 14.8078 126.226 14.4512C126.226 14.1405 126.195 14.0183 126.073 13.7483C125.869 13.3103 125.701 13.1218 125.38 12.9639C125.024 12.7857 124.81 12.7907 124.621 12.9792C124.499 13.1015 124.474 13.1728 124.474 13.3663C124.474 13.6516 124.575 13.8604 124.754 13.9419C124.927 14.0234 124.932 14.0183 124.932 13.9113C124.932 13.7687 124.988 13.7381 125.095 13.8349C125.283 14.003 125.176 14.2068 124.891 14.2068C124.346 14.2068 123.725 13.4987 123.633 12.7653C123.557 12.1642 123.827 11.4257 124.265 11.0386C124.392 10.9265 124.82 10.6209 125.212 10.3611C125.92 9.89762 125.941 9.87216 126.786 8.91457C128.228 7.26936 129.058 6.64286 130.173 6.35762C130.84 6.18953 131.034 6.215 131.813 6.58683C132.19 6.7651 132.664 6.97394 132.863 7.05544C133.066 7.13693 133.234 7.21843 133.234 7.23371C133.234 7.24899 133.021 7.22861 132.766 7.19296C132.048 7.08599 130.56 7.08599 130 7.19805C129.104 7.37123 128.492 7.60044 127.937 7.96717C127.224 8.44088 126.868 9.00116 126.827 9.70407C126.801 10.2134 126.888 10.5394 127.214 11.1761C127.749 12.1999 128.676 12.8009 129.261 12.5004C129.491 12.3833 129.598 12.0369 129.531 11.6396C129.404 10.8909 128.813 10.1217 128.436 10.2236C128.324 10.2491 128.141 10.519 128.141 10.6566C128.141 10.7024 128.217 10.789 128.309 10.845C128.538 10.9775 128.604 11.0488 128.574 11.1048C128.513 11.2016 128.34 11.1455 128.141 10.9673C127.739 10.6056 127.703 10.0199 128.039 9.34243C128.66 8.07414 130.708 7.1573 132.496 7.33558C132.985 7.38651 133.525 7.51894 133.576 7.60044C133.596 7.631 133.56 7.64119 133.479 7.62082C133.408 7.60044 133.107 7.61063 132.817 7.6361C131.161 7.79399 129.924 8.53765 129.516 9.61238C129.384 9.95875 129.358 10.5292 129.46 10.9469C129.72 12.0114 130.55 13.02 131.034 12.8519C131.233 12.7806 131.421 12.3782 131.442 11.9605C131.457 11.6804 131.442 11.5683 131.35 11.3747C131.156 10.9825 130.749 10.8145 130.627 11.0793C130.571 11.1965 130.581 11.2219 130.688 11.3085C130.795 11.3849 130.805 11.4155 130.759 11.4919C130.657 11.66 130.52 11.5989 130.382 11.3289C130.27 11.1048 130.255 11.008 130.255 10.5139C130.255 9.89762 130.321 9.62767 130.601 9.09285C130.953 8.43069 131.747 7.8704 132.542 7.73287C133.24 7.61572 134.075 7.75325 134.584 8.06905L134.788 8.19638L134.508 8.16073C134.355 8.13526 133.907 8.11998 133.515 8.11998C132.873 8.12508 132.761 8.14035 132.394 8.26769C131.375 8.61915 130.84 9.24056 130.84 10.0657C130.84 10.5853 131.105 10.9775 131.538 11.0946C131.987 11.2219 132.491 10.7279 132.623 10.0351C132.715 9.55636 132.526 9.24056 132.165 9.25074C131.752 9.27112 131.655 9.4443 131.885 9.74482C132.032 9.93837 132.043 9.9944 131.941 10.0759C131.824 10.1727 131.666 10.0606 131.599 9.82631C131.518 9.55127 131.635 9.24056 131.941 8.96041C132.323 8.60896 132.598 8.55293 132.97 8.75158C133.194 8.87383 133.311 9.21509 133.127 9.21509C133.097 9.21509 133.082 9.17944 133.102 9.13869C133.148 9.01644 132.99 9.047 132.903 9.18453C132.761 9.40355 132.99 9.72445 133.234 9.64804C133.387 9.6022 133.54 9.37299 133.54 9.19472C133.54 8.96551 133.377 8.7363 133.127 8.61915L132.914 8.51728L133.265 8.48162C133.846 8.42559 134.167 8.502 134.503 8.78724C134.61 8.87383 134.661 8.96551 134.661 9.06229C134.661 9.22528 134.543 9.34243 134.431 9.29659C134.345 9.26603 134.324 9.06229 134.411 9.06229C134.437 9.06229 134.447 9.03682 134.431 9.01135C134.365 8.90438 134.141 8.96041 133.968 9.13359C133.82 9.28131 133.795 9.34243 133.795 9.53598C133.795 9.92818 134.146 10.2083 134.487 10.081C135.002 9.88234 135.241 9.17944 134.941 8.7363C134.798 8.52747 134.778 8.53256 135.399 8.60387C138.308 8.94004 141.664 10.9214 143.157 13.183C144.114 14.6346 144.71 16.1168 144.985 17.7671C145.113 18.5159 145.107 20.3088 144.98 21.134C144.562 23.8437 143.967 25.8913 143.07 27.7301L142.673 28.545L141.97 29.2734C141.226 30.0476 140.386 30.7811 139.627 31.321C139.158 31.6521 137.91 32.4008 137.88 32.3652C137.854 32.3397 138.114 31.9475 138.404 31.5757C138.547 31.3923 138.853 30.9848 139.082 30.6741C139.469 30.1393 139.489 30.0986 139.387 30.0782C138.995 29.9967 138.99 30.0018 138.486 30.3431C137.447 31.046 135.313 32.6861 133.902 33.8627L133.316 34.3466L133.52 34.4332L133.718 34.5198L133.387 34.6675C133.204 34.749 133.005 34.8356 132.949 34.861C132.888 34.8916 132.603 35.1921 132.318 35.5334C131.915 36.0122 131.655 36.2668 131.172 36.6387C130.769 36.9494 130.448 37.2499 130.275 37.4689C129.725 38.1718 128.813 39.0224 126.679 40.8154C125.635 41.6864 125.355 41.9512 125.808 41.615C125.925 41.5285 126.032 41.4673 126.042 41.4826C126.088 41.5285 125.615 42.104 125.11 42.6032C124.178 43.5353 122.232 45.1143 121.443 45.5727C121.316 45.6491 121.927 44.9819 123.302 43.5455C126.511 40.1939 128.492 38.2788 130.637 36.4604C131.253 35.9358 131.732 35.4621 133.336 33.7965C133.902 33.2005 133.892 33.2107 132.725 34.1683C129.302 36.9952 127.351 38.8493 124.015 42.4504C121.886 44.7425 121.555 45.1296 121.397 45.4658C121.341 45.5778 121.097 45.8427 120.806 46.1024L120.307 46.5507L120.164 46.3622C120.088 46.2603 119.996 46.0923 119.961 45.9853C119.92 45.8783 119.726 45.5625 119.523 45.2773C119.324 44.9971 119.151 44.7323 119.146 44.6864C119.12 44.5184 118.845 44.1924 117.872 43.1686C116.558 41.7933 116.273 41.4775 116.304 41.4419C116.324 41.4266 114.597 39.8323 114.236 39.5369C114.225 39.5267 114.241 39.4961 114.281 39.4758C114.399 39.3994 111.337 36.6743 109.723 35.4162C109.224 35.0291 108.78 34.6777 108.735 34.642C108.531 34.4637 108.862 34.6929 109.524 35.1819C110.176 35.6607 110.237 35.6964 110.258 35.5894C110.278 35.4468 110.212 35.3907 108.811 34.3109C107.471 33.2871 106.397 32.4161 105.821 31.8966C105.577 31.6776 105.266 31.4127 105.133 31.3006C104.813 31.0409 103.167 29.5179 102.378 28.7488C100.595 27.017 99.4694 25.2954 98.4711 22.7639C98.0229 21.6382 97.3505 19.555 97.1977 18.8419C96.9889 17.8792 96.9736 17.8435 96.9991 18.4344C97.0704 19.9777 97.4677 21.628 98.2724 23.7164C99.3319 26.4618 100.478 28.2598 102.536 30.3838C102.872 30.7302 103.127 31.0154 103.106 31.0154C103.05 31.0154 101.812 29.9814 101.262 29.4721C100.982 29.2174 100.687 28.9474 100.6 28.8761C100.519 28.8048 100.483 28.7692 100.524 28.7997C100.626 28.8659 100.6 28.8252 100.172 28.2089C99.2097 26.8387 98.3641 25.1222 97.7886 23.3853C97.3658 22.1017 96.9736 20.4514 96.8615 19.504C96.8004 18.9743 96.8208 17.7468 96.9023 17.2629C96.9328 17.0642 96.943 17.054 96.9685 17.161C96.994 17.2629 97.0092 17.2323 97.0398 17.0082C97.3098 15.0319 98.2928 13.02 99.7292 11.4817C100.901 10.2287 103.162 9.00116 105.398 8.41541C105.882 8.28807 105.969 8.27788 107.206 8.27788C108.164 8.27788 108.673 8.30335 109.142 8.36447C111.984 8.76177 114.2 9.80085 115.998 11.5836C116.533 12.1133 117.21 12.9894 117.455 13.458C117.613 13.7687 117.607 13.6516 117.444 13.1931L117.292 12.7704L117.394 12.4393C117.45 12.2559 117.511 11.9809 117.526 11.8332C117.546 11.6804 117.577 11.5581 117.602 11.5581C117.623 11.5581 117.903 11.7669 118.219 12.0216C119.334 12.913 119.859 12.9996 119.609 12.2457C119.365 11.5174 118.58 10.5598 117.613 9.80594C117.419 9.65823 117.287 9.51052 117.266 9.42902C117.251 9.35262 117.124 9.06229 116.986 8.78214C115.448 5.60378 111.837 3.33715 107.4 2.76668C106.763 2.68518 106.738 2.69028 106.229 2.79724C105.174 3.01626 103.646 3.48996 102.699 3.89235C99.444 5.27779 96.724 7.33558 94.2689 10.2847C93.729 10.9316 92.7918 12.1439 92.7918 12.1897C92.7918 12.2661 93.0465 12.205 93.2044 12.0929C93.3012 12.0216 93.8716 11.4664 94.4727 10.8552C95.6085 9.70916 96.4286 8.98588 97.2996 8.36447C97.814 7.99774 98.6188 7.48329 98.6799 7.48329C98.6952 7.48329 98.5271 7.67685 98.2979 7.92133C98.0738 8.16073 97.7325 8.55293 97.5441 8.79742C97.3556 9.04191 96.9278 9.52579 96.5865 9.87725C96.2503 10.2287 95.8174 10.7126 95.6289 10.9469C95.2571 11.4104 94.5898 12.3833 94.3402 12.8162C94.2587 12.9639 94.1671 13.0862 94.1314 13.0862C94.0397 13.0862 93.8462 13.3612 93.6119 13.8247C93.4183 14.2017 93.2808 14.5276 92.8427 15.6686C92.6797 16.1066 92.6135 16.1729 92.5422 15.9793C92.5117 15.8978 92.4658 16.0099 92.3436 16.4785C92.1857 17.0744 91.9768 18.1746 91.9768 18.414C91.9768 18.5974 91.6763 19.4989 91.549 19.6874C91.3401 20.0083 91.1109 19.9573 90.5303 19.4582C90.3418 19.2901 90.1177 19.1373 90.0311 19.122C89.5523 19.015 89.2671 19.8351 89.1958 21.5058C89.1703 22.1476 89.1805 22.4175 89.2212 22.499C89.2976 22.6416 89.3537 22.6111 89.481 22.3513C89.537 22.2443 89.6185 22.1527 89.6593 22.1527C89.8223 22.1527 90.0668 22.9218 90.133 23.6553C90.1686 24.0678 90.1788 24.0933 90.2145 23.9099C90.3927 22.9269 90.515 22.6518 90.7697 22.6213C91.0957 22.5805 91.4013 23.1917 92.1296 25.3361C92.4149 26.1765 92.9293 27.562 93.2655 28.4177C93.6017 29.2734 94.055 30.5162 94.2791 31.1835C94.7273 32.5333 94.8954 32.9866 95.1654 33.5265C95.364 33.9136 95.7461 34.5809 95.7766 34.5809C95.7868 34.5809 95.6136 34.2294 95.3895 33.8016C94.9515 32.956 94.7121 32.3805 94.7375 32.2175C94.7477 32.1462 94.8598 32.3041 95.1043 32.7217C95.4353 33.3075 96.398 34.7744 96.617 35.0393C96.7495 35.1972 96.5763 34.8763 95.8174 33.5622C95.1756 32.4416 94.9311 31.9679 94.6357 31.2701C94.4014 30.7098 94.1976 30.1037 94.2333 30.068C94.2435 30.0578 94.3555 30.2819 94.4778 30.5672C94.6815 31.0409 94.7223 31.102 94.9158 31.209C95.0839 31.3006 95.2163 31.4534 95.5117 31.9017C96.5865 33.5418 98.1451 35.4977 100.687 38.401C101.879 39.761 102.327 40.2449 101.818 39.6235C101.084 38.7219 100.412 37.7694 99.7903 36.7558C99.4083 36.1344 99.3421 35.9816 99.5051 36.1191C99.5509 36.1599 99.8209 36.3381 100.101 36.5164C100.544 36.7966 100.794 37.0258 102.026 38.2686C103.412 39.6693 103.432 39.6897 103.065 39.1905C102.408 38.289 102.317 38.1565 102.317 38.126C102.317 38.019 102.867 38.4214 103.763 39.1803C104.324 39.6642 104.833 40.0921 104.889 40.1328C104.945 40.1736 104.553 39.7406 104.013 39.1651C102.617 37.6676 100.636 35.4213 100.636 35.3347C100.636 35.3194 100.728 35.3245 100.84 35.3449C101.003 35.3755 101.135 35.4672 101.466 35.7829C102.357 36.6336 103.31 37.4587 103.162 37.255C103.05 37.1022 103.116 37.148 103.412 37.4333L103.809 37.8153L103.259 37.1531C102.495 36.2363 102.48 36.2057 103.096 36.8475C103.391 37.1531 103.661 37.4027 103.692 37.3925C103.717 37.3874 104.105 37.7338 104.548 38.1616C104.986 38.5946 105.485 39.0377 105.658 39.1447C105.872 39.2822 106.244 39.6438 106.85 40.3111C107.339 40.8408 107.864 41.3706 108.016 41.4877C108.521 41.8544 109.106 42.1702 109.234 42.1346C109.336 42.1091 109.259 42.0174 108.572 41.284C107.833 40.5047 107.741 40.3875 108.2 40.7899C108.312 40.8918 108.256 40.8103 108.072 40.6167C107.889 40.4181 107.66 40.1685 107.563 40.0564C107.405 39.8731 107.415 39.8781 107.665 40.1074C107.818 40.2449 108.215 40.6218 108.541 40.9376C108.903 41.2891 109.157 41.503 109.193 41.4826C109.29 41.4215 108.729 40.8867 106.748 39.1243C104.986 37.5504 103.728 36.3738 104.201 36.7253C104.853 37.2193 106.697 38.7627 108.938 40.6931C110.502 42.0378 110.874 42.3485 110.874 42.3078C110.874 42.2925 110.247 41.7016 109.483 40.9936C107.93 39.5471 106.437 38.0954 105.969 37.5657C105.577 37.1225 105.643 37.1633 106.432 37.8305C107.375 38.6302 108.179 39.3688 110.059 41.1719C111.877 42.919 112.137 43.1635 112.937 43.8766C113.721 44.5846 113.268 44.0752 111.526 42.2925C110.711 41.4521 109.891 40.6116 109.707 40.413C109.422 40.1125 109.443 40.1277 109.85 40.5148C110.578 41.2127 113.033 43.7136 114.001 44.7425C114.475 45.2467 115.366 46.1432 115.988 46.734C116.604 47.3249 117.852 48.5422 118.759 49.4387L120.404 51.0737L121.102 50.4065C124.835 46.8308 129.022 43.2908 133.133 40.2398C134.121 39.5012 134.105 39.5114 132.358 40.6473C131.635 41.1159 131.044 41.4826 131.044 41.4571C131.044 41.4368 131.36 41.1108 131.747 40.744C132.419 40.0921 133.163 39.4299 135.516 37.3823C136.744 36.3178 137.065 36.0274 136.953 36.0886C136.912 36.1089 136.535 36.3534 136.112 36.6285C135.506 37.0309 135.404 37.0818 135.628 36.8882C136.418 36.1904 137.987 34.8254 138.303 34.5503C138.786 34.1276 140.386 32.4874 140.972 31.81C142.189 30.394 143.218 28.7641 143.854 27.2462C143.931 27.0628 144.135 26.6757 144.313 26.3803C144.751 25.6417 144.96 25.2597 144.934 25.2597C144.919 25.2597 144.858 25.3463 144.792 25.4482C144.562 25.8404 144.272 26.2784 144.257 26.2682C144.247 26.258 144.333 25.9779 144.445 25.6417C144.985 23.9965 145.469 21.5822 145.556 20.1051C145.708 17.4819 145.026 15.0777 143.467 12.7602C142.927 11.9554 142.494 11.441 141.695 10.6413C140.34 9.29659 138.802 8.23204 136.983 7.38142C136.285 7.05544 135.985 6.95356 135.297 6.82113C134.6 6.68361 134.192 6.4544 133.922 6.04691C133.708 5.72093 133.693 5.39494 133.897 5.39494C134.034 5.39494 134.08 5.50191 133.978 5.57322C133.902 5.63434 133.902 5.63943 133.978 5.66999C134.121 5.72602 134.33 5.70055 134.447 5.61906C134.61 5.507 134.605 5.15555 134.437 4.97218C134.258 4.77863 133.948 4.70222 133.683 4.77863C133.362 4.8754 133.184 5.08424 133.184 5.35419C133.189 5.73621 133.377 6.03164 133.897 6.46458L134.024 6.56646L133.871 6.53589C132.796 6.32196 131.554 5.75149 131.075 5.24723C130.937 5.10461 130.937 5.09443 131.014 4.94671C131.136 4.70732 131.436 4.65129 131.574 4.83975C131.666 4.97218 131.63 5.07405 131.487 5.11989C131.385 5.15045 131.385 5.15555 131.482 5.22686C131.62 5.32873 132.139 5.29307 132.394 5.16064C132.781 4.96199 132.924 4.5596 132.756 4.15212C132.613 3.80576 132.124 3.56127 131.584 3.56127C131.116 3.56127 130.825 3.67842 130.504 3.99931L130.229 4.27436L130.076 4.0095C129.756 3.44921 129.435 2.44579 129.379 1.82947C129.353 1.52386 129.363 1.48311 129.486 1.3354C129.715 1.06035 130.107 1.06544 130.066 1.34049C130.056 1.42199 130.02 1.44236 129.913 1.43217C129.801 1.42199 129.766 1.44236 129.74 1.54933C129.7 1.71232 129.715 1.7276 129.964 1.76326C130.275 1.804 130.708 1.65629 130.937 1.42708C131.202 1.16222 131.253 0.897354 131.09 0.607021C130.795 0.0823898 129.99 -0.141727 129.251 0.0925751ZM98.0738 33.1802C98.6952 33.934 99.6834 35.0087 100.728 36.0733C101.16 36.5164 101.502 36.8882 101.492 36.9035C101.441 36.9494 99.1078 34.6165 98.6341 34.0562C98.1655 33.496 97.6867 32.8694 97.5033 32.5689C97.3607 32.3397 97.4982 32.4874 98.0738 33.1802ZM115.932 41.1464C116.12 41.2942 116.268 41.4317 116.253 41.4419C116.227 41.4673 115.152 40.6014 115.152 40.5556C115.152 40.5403 115.249 40.6065 115.371 40.7033C115.489 40.795 115.743 40.9987 115.932 41.1464Z" fill="white"/>
<path d="M141.302 13.942C141.817 14.9556 142.148 16.3716 142.148 17.5381C142.148 18.5058 142.02 19.3259 141.659 20.6757C141.562 21.0526 141.48 21.4295 141.48 21.5161C141.48 21.5976 141.445 21.8727 141.404 22.1222C141.363 22.3667 141.338 22.5807 141.348 22.5959C141.363 22.6061 141.399 22.4584 141.435 22.27C141.47 22.0815 141.618 21.455 141.771 20.8794C142.071 19.7181 142.351 18.1289 142.351 17.5584C142.351 17.3547 142.316 16.9523 142.275 16.6671C142.234 16.3818 142.204 16.0304 142.204 15.8776C142.209 15.4905 141.995 14.9709 141.475 14.0897C141.226 13.6772 141.119 13.5855 141.302 13.942Z" fill="white"/>
<path d="M146.554 16.0862C146.793 18.0574 146.641 19.6925 146.014 21.9438C145.902 22.3462 145.82 22.6875 145.831 22.6976C145.841 22.7078 145.922 22.4684 146.009 22.1679C146.467 20.5736 146.661 19.5142 146.717 18.2561C146.748 17.6194 146.758 17.5277 146.798 17.7213C146.87 18.1033 146.798 19.9166 146.686 20.5227C146.294 22.6314 145.362 25.3667 144.364 27.3531C144.262 27.5467 144.191 27.7046 144.206 27.7046C144.216 27.7046 144.338 27.5263 144.481 27.3073C145.454 25.8098 146.177 23.8997 146.727 21.358C146.87 20.701 146.9 20.4361 146.956 19.4531C147.002 18.6024 146.814 16.8401 146.605 16.1168L146.528 15.8621L146.554 16.0862Z" fill="white"/>
<path d="M141.216 22.1937C141.134 22.4382 140.992 22.8457 140.895 23.1055C140.798 23.3704 140.737 23.6047 140.752 23.6556C140.798 23.7626 140.941 23.3805 141.211 22.4739C141.425 21.7455 141.425 21.5418 141.216 22.1937Z" fill="white"/>
<path d="M146.743 21.8371C146.702 22.2955 146.193 24.2361 145.867 25.1835C145.444 26.406 144.665 28.1021 144.084 29.0546C143.967 29.2482 143.86 29.4264 143.845 29.4468C143.834 29.4723 143.834 29.4875 143.85 29.4875C143.865 29.4875 144.084 29.1717 144.339 28.7846C144.863 27.9951 145.53 26.7014 145.887 25.7896C146.249 24.8524 146.88 22.8965 146.834 22.866C146.809 22.8507 146.778 22.5858 146.768 22.2802C146.763 21.9695 146.748 21.7708 146.743 21.8371Z" fill="white"/>
<path d="M147.201 22.6776C147.078 22.8049 146.997 22.9934 146.829 23.5282C146.712 23.9051 146.554 24.3839 146.467 24.5928C146.223 25.2142 146.345 25.0563 146.625 24.3839C146.849 23.8542 146.92 23.7472 146.803 24.1242C146.783 24.1955 146.783 24.2006 146.824 24.1394C146.89 24.0376 147.399 22.5503 147.379 22.5299C147.369 22.5197 147.287 22.5859 147.201 22.6776Z" fill="white"/>
<path d="M137.865 27.3174C137.238 28.1731 136.541 28.9422 134.921 30.5569C133.836 31.6367 133.49 32.0034 133.861 31.6774C134.167 31.4126 134.524 31.0917 134.656 30.9644C134.788 30.837 135.14 30.5212 135.44 30.2564C136.332 29.477 137.59 28.1069 138.211 27.2359C138.364 27.0169 138.369 27.0016 138.288 26.9303C138.206 26.859 138.176 26.8895 137.865 27.3174Z" fill="white"/>
<path d="M138.618 27.1038C138.211 27.6743 138.078 27.8678 138.226 27.7049C138.414 27.4909 138.802 26.9408 138.766 26.9408C138.751 26.9408 138.684 27.0172 138.618 27.1038Z" fill="white"/>
<path d="M145.5 28.4178C145.342 28.6674 145.22 28.8762 145.23 28.8762C145.26 28.8762 145.637 28.3159 145.734 28.1224C145.882 27.832 145.79 27.9492 145.5 28.4178Z" fill="white"/>
<path d="M145.235 29.0597C145.067 29.3042 144.726 29.7219 143.926 30.6845L143.712 30.9392L143.962 30.6845C144.766 29.8594 145.179 29.3806 145.316 29.1106C145.398 28.9476 145.459 28.805 145.449 28.7999C145.439 28.7897 145.342 28.9069 145.235 29.0597Z" fill="white"/>
<path d="M144.68 30.0633C144.38 30.4708 144.369 30.4962 144.578 30.2568C144.787 30.0276 145.088 29.5896 145.042 29.5896C145.031 29.5896 144.868 29.8035 144.68 30.0633Z" fill="white"/>
<path d="M143.548 32.783C142.769 33.598 141.511 34.7593 140.487 35.6252C139.698 36.2874 139.54 36.4351 139.881 36.1957C140.91 35.4673 142.433 34.1073 143.365 33.0835C144.007 32.3806 144.312 32.0292 144.277 32.0394C144.272 32.0394 143.94 32.3755 143.548 32.783Z" fill="white"/>
<path d="M103.788 37.571C103.895 37.7238 104.608 38.4216 104.812 38.5795C104.883 38.6355 104.664 38.3961 104.328 38.0549C103.992 37.7136 103.712 37.4335 103.702 37.4335C103.692 37.4335 103.732 37.4946 103.788 37.571Z" fill="white"/>
<path d="M116.375 41.4774C116.375 41.4876 116.416 41.5283 116.467 41.564C116.543 41.6302 116.548 41.6251 116.482 41.5436C116.416 41.4621 116.375 41.4367 116.375 41.4774Z" fill="white"/>
<path d="M107.716 43.189C108.179 43.7034 108.245 43.7493 107.945 43.3367C107.746 43.0718 107.451 42.7815 107.369 42.7815C107.359 42.7815 107.512 42.9649 107.716 43.189Z" fill="white"/>
<path d="M122.609 50.8394L122.513 50.9565L122.63 50.8598C122.737 50.7681 122.767 50.7273 122.727 50.7273C122.716 50.7273 122.665 50.7783 122.609 50.8394Z" fill="white"/>
<path d="M155.107 1.36036C154.897 1.42846 154.781 1.55596 154.744 1.76026C154.728 1.84284 154.721 1.85588 154.661 1.9008C154.457 2.05583 154.461 2.28331 154.673 2.50354C154.76 2.59192 155.032 2.80201 155.171 2.88604L155.254 2.93531L154.958 2.92951C154.518 2.91937 154.216 2.95849 153.896 3.06571C153.391 3.23523 153.018 3.54819 152.865 3.93069C152.84 3.99155 152.821 4.04516 152.821 4.0524C152.821 4.0582 152.795 4.09587 152.762 4.13644C152.701 4.21323 152.627 4.32045 152.556 4.4407C152.514 4.5117 152.515 4.51025 152.65 4.38275L152.785 4.2538L152.794 4.3842C152.818 4.72179 152.949 4.99853 153.207 5.25353C153.551 5.59692 154.005 5.7476 154.205 5.58678C154.247 5.55345 154.248 5.54621 154.247 5.44478C154.247 5.3564 154.238 5.32163 154.203 5.24484C154.145 5.12023 154.098 5.06662 154.006 5.02171C153.905 4.971 153.844 4.97245 153.79 5.02606C153.756 5.06083 153.748 5.08111 153.748 5.13617C153.748 5.21731 153.777 5.27671 153.828 5.2999C153.877 5.32308 153.879 5.32163 153.879 5.2912C153.879 5.25063 153.895 5.24194 153.925 5.26947C153.979 5.31728 153.948 5.37524 153.867 5.37524C153.712 5.37524 153.535 5.17384 153.509 4.9652C153.488 4.79423 153.564 4.58414 153.689 4.47403C153.725 4.44215 153.847 4.35522 153.958 4.28133C154.16 4.14948 154.166 4.14223 154.406 3.86984C154.816 3.40185 155.052 3.22364 155.37 3.1425C155.56 3.09468 155.615 3.10193 155.836 3.2077C155.943 3.25841 156.078 3.31781 156.135 3.341C156.193 3.36418 156.24 3.38736 156.24 3.39171C156.24 3.39605 156.18 3.39026 156.107 3.38012C155.903 3.34969 155.48 3.34969 155.32 3.38156C155.065 3.43083 154.892 3.49603 154.734 3.60035C154.531 3.73509 154.429 3.89447 154.418 4.09442C154.411 4.23931 154.435 4.33204 154.528 4.51315C154.68 4.80437 154.944 4.97534 155.11 4.88986C155.176 4.85653 155.206 4.75801 155.187 4.645C155.151 4.43201 154.983 4.21323 154.876 4.24221C154.844 4.24945 154.792 4.32624 154.792 4.36536C154.792 4.3784 154.813 4.40303 154.839 4.41897C154.905 4.45664 154.923 4.47693 154.915 4.49286C154.897 4.52039 154.848 4.50445 154.792 4.45374C154.677 4.35087 154.667 4.18425 154.763 3.99155C154.939 3.63077 155.522 3.36997 156.03 3.42068C156.17 3.43517 156.323 3.47285 156.338 3.49603C156.343 3.50472 156.333 3.50762 156.31 3.50182C156.29 3.49603 156.204 3.49892 156.122 3.50617C155.651 3.55108 155.299 3.76262 155.183 4.06834C155.145 4.16686 155.138 4.32914 155.167 4.44795C155.241 4.75077 155.477 5.03765 155.615 4.98983C155.671 4.96955 155.725 4.85509 155.73 4.73628C155.735 4.65659 155.73 4.62471 155.704 4.56965C155.649 4.45809 155.533 4.41028 155.499 4.48562C155.483 4.51894 155.486 4.52619 155.516 4.55082C155.546 4.57255 155.549 4.58125 155.536 4.60298C155.507 4.65079 155.468 4.63341 155.429 4.55661C155.397 4.49286 155.393 4.46533 155.393 4.32479C155.393 4.14948 155.412 4.07269 155.491 3.92055C155.591 3.7322 155.817 3.57282 156.043 3.5337C156.242 3.50037 156.48 3.53949 156.624 3.62932L156.682 3.66555L156.603 3.65541C156.559 3.64816 156.432 3.64381 156.32 3.64381C156.138 3.64526 156.106 3.64961 156.001 3.68583C155.712 3.7858 155.56 3.96257 155.56 4.19729C155.56 4.34508 155.635 4.45664 155.758 4.48997C155.886 4.52619 156.029 4.38565 156.067 4.1886C156.093 4.0524 156.039 3.96257 155.936 3.96547C155.819 3.97126 155.791 4.02052 155.857 4.10601C155.899 4.16107 155.901 4.177 155.872 4.20019C155.839 4.22772 155.794 4.19584 155.775 4.12919C155.752 4.05095 155.786 3.96257 155.872 3.88288C155.981 3.78291 156.059 3.76697 156.165 3.82348C156.229 3.85825 156.262 3.95533 156.21 3.95533C156.201 3.95533 156.197 3.94518 156.203 3.93359C156.216 3.89882 156.171 3.90751 156.146 3.94663C156.106 4.00893 156.171 4.10021 156.24 4.07848C156.284 4.06544 156.327 4.00024 156.327 3.94953C156.327 3.88433 156.281 3.81913 156.21 3.7858L156.149 3.75683L156.249 3.74669C156.414 3.73075 156.506 3.75248 156.601 3.83362C156.632 3.85825 156.646 3.88433 156.646 3.91186C156.646 3.95822 156.613 3.99155 156.581 3.97851C156.556 3.96981 156.551 3.91186 156.575 3.91186C156.582 3.91186 156.585 3.90461 156.581 3.89737C156.562 3.86694 156.498 3.88288 156.449 3.93214C156.407 3.97416 156.4 3.99155 156.4 4.04661C156.4 4.15817 156.5 4.23786 156.597 4.20164C156.743 4.14513 156.811 3.94518 156.726 3.81913C156.685 3.75972 156.68 3.76117 156.856 3.78146C157.684 3.87708 158.638 4.4407 159.063 5.08401C159.335 5.49694 159.505 5.91857 159.583 6.38801C159.619 6.601 159.618 7.11101 159.582 7.34573C159.463 8.11654 159.293 8.69899 159.038 9.22204L158.925 9.45386L158.725 9.66105C158.514 9.88129 158.275 10.0899 158.059 10.2435C157.926 10.3377 157.571 10.5507 157.562 10.5405C157.555 10.5333 157.629 10.4217 157.711 10.316C157.752 10.2638 157.839 10.1479 157.904 10.0595C158.014 9.90737 158.02 9.89577 157.991 9.88998C157.879 9.8668 157.878 9.86825 157.734 9.96532C157.439 10.1653 156.832 10.6318 156.43 10.9665L156.264 11.1041L156.322 11.1288L156.378 11.1534L156.284 11.1954C156.232 11.2186 156.175 11.2432 156.159 11.2505C156.142 11.2592 156.061 11.3447 155.98 11.4417C155.865 11.5779 155.791 11.6504 155.654 11.7561C155.539 11.8445 155.448 11.93 155.399 11.9923C155.242 12.1923 154.983 12.4342 154.376 12.9442C154.079 13.192 153.999 13.2673 154.128 13.1717C154.161 13.1471 154.192 13.1297 154.195 13.134C154.208 13.1471 154.073 13.3108 153.93 13.4528C153.664 13.7179 153.111 14.1671 152.886 14.2975C152.85 14.3192 153.024 14.1294 153.415 13.7208C154.328 12.7675 154.892 12.2227 155.502 11.7054C155.677 11.5562 155.813 11.4215 156.269 10.9477C156.43 10.7781 156.427 10.781 156.096 11.0534C155.122 11.8576 154.567 12.385 153.618 13.4093C153.012 14.0613 152.918 14.1714 152.873 14.2671C152.857 14.299 152.788 14.3743 152.705 14.4482L152.563 14.5757L152.523 14.5221C152.501 14.4931 152.475 14.4453 152.465 14.4149C152.453 14.3844 152.398 14.2946 152.34 14.2135C152.284 14.1338 152.234 14.0584 152.233 14.0454C152.226 13.9976 152.147 13.9049 151.871 13.6136C151.497 13.2224 151.416 13.1326 151.424 13.1225C151.43 13.1181 150.939 12.6646 150.836 12.5806C150.833 12.5777 150.838 12.569 150.849 12.5632C150.883 12.5414 150.012 11.7663 149.552 11.4084C149.41 11.2983 149.284 11.1983 149.271 11.1882C149.213 11.1375 149.308 11.2027 149.496 11.3418C149.681 11.478 149.699 11.4881 149.705 11.4577C149.71 11.4171 149.692 11.4012 149.293 11.094C148.912 10.8028 148.606 10.555 148.443 10.4072C148.373 10.3449 148.285 10.2696 148.247 10.2377C148.156 10.1638 147.688 9.7306 147.463 9.51182C146.956 9.0192 146.636 8.52947 146.352 7.80937C146.224 7.48917 146.033 6.89657 145.99 6.69373C145.93 6.41989 145.926 6.40975 145.933 6.57782C145.953 7.01683 146.066 7.48627 146.295 8.08032C146.597 8.86127 146.923 9.37273 147.508 9.97691C147.604 10.0754 147.676 10.1566 147.67 10.1566C147.654 10.1566 147.302 9.86245 147.146 9.71756C147.066 9.64512 146.982 9.56833 146.957 9.54804C146.934 9.52776 146.924 9.51761 146.936 9.52631C146.965 9.54514 146.957 9.53355 146.836 9.35824C146.562 8.96849 146.321 8.48021 146.158 7.98614C146.037 7.62102 145.926 7.15158 145.894 6.88208C145.877 6.7314 145.882 6.38222 145.906 6.24457C145.914 6.18806 145.917 6.18517 145.924 6.21559C145.932 6.24457 145.936 6.23588 145.945 6.17213C146.021 5.60996 146.301 5.03765 146.71 4.60008C147.043 4.24365 147.686 3.89447 148.322 3.72785C148.46 3.69163 148.485 3.68873 148.837 3.68873C149.109 3.68873 149.254 3.69597 149.387 3.71336C150.196 3.82637 150.826 4.12195 151.337 4.62906C151.49 4.77974 151.682 5.02895 151.752 5.16225C151.797 5.25063 151.795 5.21731 151.749 5.08691L151.705 4.96665L151.734 4.87247C151.75 4.82031 151.768 4.74207 151.772 4.70005C151.778 4.65659 151.787 4.62181 151.794 4.62181C151.8 4.62181 151.879 4.68122 151.969 4.75366C152.286 5.00722 152.436 5.03185 152.365 4.81741C152.295 4.61022 152.072 4.33783 151.797 4.1234C151.742 4.08138 151.704 4.03936 151.698 4.01618C151.694 3.99444 151.658 3.91186 151.619 3.83217C151.181 2.92806 150.154 2.28331 148.892 2.12103C148.711 2.09785 148.703 2.0993 148.558 2.12972C148.259 2.19203 147.824 2.32677 147.554 2.44123C146.629 2.83533 145.855 3.42068 145.156 4.25959C145.003 4.4436 144.736 4.78844 144.736 4.80148C144.736 4.82321 144.809 4.80582 144.854 4.77395C144.881 4.75366 145.043 4.59573 145.214 4.42187C145.538 4.09587 145.771 3.89013 146.019 3.71336C146.165 3.60904 146.394 3.4627 146.411 3.4627C146.416 3.4627 146.368 3.51776 146.303 3.58731C146.239 3.65541 146.142 3.76697 146.088 3.83652C146.035 3.90606 145.913 4.04371 145.816 4.14368C145.72 4.24365 145.597 4.3813 145.543 4.44795C145.438 4.5798 145.248 4.85653 145.177 4.97969C145.154 5.02171 145.128 5.05648 145.117 5.05648C145.091 5.05648 145.036 5.13472 144.97 5.26657C144.915 5.37379 144.875 5.46652 144.751 5.79107C144.704 5.91567 144.686 5.93451 144.665 5.87945C144.657 5.85627 144.644 5.88814 144.609 6.02144C144.564 6.19096 144.504 6.50392 144.504 6.57202C144.504 6.62418 144.419 6.88063 144.383 6.93424C144.323 7.02552 144.258 7.01103 144.093 6.86904C144.039 6.82123 143.976 6.77776 143.951 6.77342C143.815 6.74299 143.734 6.97626 143.713 7.4515C143.706 7.63406 143.709 7.71085 143.721 7.73403C143.742 7.7746 143.758 7.76591 143.795 7.69201C143.81 7.66159 143.834 7.63551 143.845 7.63551C143.892 7.63551 143.961 7.85429 143.98 8.06293C143.99 8.18029 143.993 8.18753 144.003 8.13537C144.054 7.85574 144.089 7.7775 144.161 7.7688C144.254 7.75721 144.341 7.93108 144.548 8.54106C144.629 8.78013 144.775 9.17423 144.871 9.41764C144.967 9.66105 145.096 10.0146 145.159 10.2044C145.287 10.5883 145.335 10.7173 145.411 10.8709C145.468 10.981 145.577 11.1708 145.585 11.1708C145.588 11.1708 145.539 11.0708 145.475 10.9491C145.351 10.7086 145.283 10.5449 145.29 10.4985C145.293 10.4782 145.325 10.5231 145.394 10.642C145.488 10.8086 145.762 11.2259 145.824 11.3012C145.862 11.3461 145.813 11.2548 145.597 10.881C145.414 10.5623 145.345 10.4275 145.261 10.229C145.194 10.0696 145.136 9.89722 145.146 9.88708C145.149 9.88418 145.181 9.94794 145.216 10.0291C145.274 10.1638 145.285 10.1812 145.34 10.2116C145.388 10.2377 145.426 10.2812 145.51 10.4087C145.816 10.8752 146.259 11.4316 146.982 12.2575C147.321 12.6443 147.449 12.782 147.304 12.6052C147.095 12.3487 146.904 12.0778 146.727 11.7895C146.618 11.6127 146.6 11.5692 146.646 11.6084C146.659 11.62 146.736 11.6707 146.815 11.7214C146.942 11.8011 147.013 11.8663 147.363 12.2198C147.757 12.6182 147.763 12.624 147.659 12.482C147.472 12.2256 147.446 12.1879 147.446 12.1792C147.446 12.1488 147.602 12.2633 147.857 12.4791C148.017 12.6168 148.161 12.7385 148.177 12.7501C148.193 12.7617 148.082 12.6385 147.928 12.4748C147.531 12.0488 146.968 11.4099 146.968 11.3852C146.968 11.3809 146.994 11.3823 147.026 11.3881C147.072 11.3968 147.11 11.4229 147.204 11.5127C147.457 11.7547 147.728 11.9894 147.686 11.9315C147.654 11.888 147.673 11.901 147.757 11.9822L147.87 12.0908L147.714 11.9025C147.496 11.6417 147.492 11.633 147.667 11.8156C147.751 11.9025 147.828 11.9735 147.837 11.9706C147.844 11.9691 147.954 12.0677 148.08 12.1894C148.205 12.3125 148.347 12.4386 148.396 12.469C148.457 12.5081 148.563 12.611 148.735 12.8008C148.874 12.9515 149.024 13.1022 149.067 13.1355C149.21 13.2398 149.377 13.3296 149.413 13.3195C149.442 13.3123 149.421 13.2862 149.225 13.0775C149.015 12.8559 148.989 12.8225 149.119 12.937C149.151 12.966 149.135 12.9428 149.083 12.8877C149.031 12.8312 148.966 12.7602 148.938 12.7284C148.893 12.6762 148.896 12.6776 148.967 12.7428C149.011 12.782 149.124 12.8892 149.216 12.979C149.319 13.079 149.392 13.1398 149.402 13.134C149.429 13.1167 149.27 12.9645 148.706 12.4632C148.205 12.0155 147.847 11.6808 147.982 11.7808C148.167 11.9213 148.692 12.3603 149.329 12.9095C149.774 13.292 149.88 13.3804 149.88 13.3688C149.88 13.3644 149.702 13.1963 149.484 12.995C149.042 12.5835 148.618 12.1705 148.485 12.0198C148.373 11.8938 148.392 11.9054 148.616 12.0952C148.884 12.3227 149.113 12.5328 149.648 13.0457C150.165 13.5426 150.239 13.6122 150.467 13.815C150.69 14.0164 150.561 13.8715 150.065 13.3644C149.834 13.1254 149.6 12.8863 149.548 12.8298C149.467 12.7443 149.473 12.7486 149.589 12.8588C149.796 13.0573 150.494 13.7687 150.769 14.0613C150.904 14.2048 151.158 14.4598 151.335 14.6279C151.51 14.7959 151.865 15.1422 152.123 15.3972L152.591 15.8623L152.789 15.6725C153.851 14.6554 155.042 13.6484 156.212 12.7805C156.493 12.5704 156.488 12.5733 155.991 12.8964C155.786 13.0297 155.617 13.134 155.617 13.1268C155.617 13.121 155.707 13.0283 155.817 12.924C156.009 12.7385 156.22 12.5501 156.89 11.9677C157.239 11.6649 157.33 11.5823 157.298 11.5997C157.287 11.6055 157.179 11.675 157.059 11.7533C156.887 11.8677 156.858 11.8822 156.921 11.8271C157.146 11.6286 157.592 11.2403 157.682 11.1621C157.82 11.0418 158.275 10.5753 158.441 10.3826C158.788 9.97981 159.08 9.51617 159.261 9.0844C159.283 9.03224 159.341 8.92212 159.392 8.83809C159.516 8.628 159.576 8.51933 159.569 8.51933C159.564 8.51933 159.547 8.54396 159.528 8.57294C159.463 8.6845 159.38 8.80911 159.376 8.80621C159.373 8.80331 159.398 8.72362 159.43 8.628C159.583 8.16 159.721 7.47323 159.745 7.05305C159.789 6.30687 159.595 5.623 159.151 4.96375C158.998 4.73483 158.875 4.58849 158.647 4.36101C158.262 3.97851 157.824 3.67569 157.307 3.43372C157.108 3.341 157.023 3.31202 156.827 3.27435C156.629 3.23523 156.513 3.17003 156.436 3.05412C156.375 2.96139 156.371 2.86866 156.429 2.86866C156.468 2.86866 156.481 2.89908 156.452 2.91937C156.43 2.93676 156.43 2.9382 156.452 2.9469C156.493 2.96284 156.552 2.95559 156.585 2.93241C156.632 2.90053 156.63 2.80056 156.582 2.7484C156.532 2.69334 156.443 2.67161 156.368 2.69334C156.277 2.72087 156.226 2.78028 156.226 2.85707C156.227 2.96573 156.281 3.04977 156.429 3.17292L156.465 3.2019L156.422 3.19321C156.116 3.13236 155.762 2.97008 155.626 2.82664C155.587 2.78607 155.587 2.78317 155.609 2.74115C155.644 2.67306 155.729 2.65712 155.768 2.71073C155.794 2.7484 155.784 2.77738 155.744 2.79042C155.715 2.79911 155.715 2.80056 155.742 2.82084C155.781 2.84982 155.929 2.83968 156.001 2.80201C156.112 2.7455 156.152 2.63104 156.104 2.51513C156.064 2.4166 155.925 2.34706 155.771 2.34706C155.638 2.34706 155.555 2.38038 155.464 2.47166L155.386 2.5499L155.342 2.47456C155.251 2.31518 155.16 2.02975 155.144 1.85443C155.136 1.7675 155.139 1.75591 155.174 1.71389C155.239 1.63565 155.351 1.6371 155.339 1.71534C155.336 1.73852 155.326 1.74432 155.296 1.74142C155.264 1.73852 155.254 1.74432 155.247 1.77474C155.235 1.82111 155.239 1.82546 155.31 1.8356C155.399 1.84719 155.522 1.80517 155.587 1.73997C155.662 1.66463 155.677 1.58929 155.631 1.5067C155.546 1.35746 155.318 1.29371 155.107 1.36036ZM146.239 10.7724C146.416 10.9868 146.697 11.2925 146.994 11.5953C147.117 11.7214 147.214 11.8271 147.211 11.8315C147.197 11.8445 146.533 11.1809 146.398 11.0216C146.265 10.8622 146.129 10.684 146.077 10.5985C146.036 10.5333 146.075 10.5753 146.239 10.7724ZM151.319 13.0384C151.372 13.0804 151.414 13.1196 151.41 13.1225C151.403 13.1297 151.097 12.8834 151.097 12.8703C151.097 12.866 151.124 12.8848 151.159 12.9124C151.193 12.9384 151.265 12.9964 151.319 13.0384Z" fill="#EDB9B9"/>
<path d="M158.536 5.30016C158.682 5.58849 158.776 5.99128 158.776 6.32307C158.776 6.59836 158.74 6.83163 158.637 7.21559C158.609 7.32281 158.586 7.43003 158.586 7.45466C158.586 7.47784 158.576 7.55608 158.565 7.62707C158.553 7.69662 158.546 7.75747 158.549 7.76182C158.553 7.76472 158.563 7.7227 158.573 7.66909C158.583 7.61548 158.625 7.43727 158.669 7.27355C158.754 6.9432 158.834 6.49115 158.834 6.32887C158.834 6.27091 158.824 6.15645 158.812 6.07531C158.801 5.99418 158.792 5.8942 158.792 5.85074C158.793 5.74062 158.733 5.59283 158.585 5.34218C158.514 5.22482 158.483 5.19873 158.536 5.30016Z" fill="#EDB9B9"/>
<path d="M160.029 5.90968C160.097 6.4704 160.054 6.9355 159.876 7.5759C159.844 7.69037 159.82 7.78744 159.823 7.79034C159.826 7.79324 159.849 7.72514 159.874 7.63966C160.004 7.18615 160.06 6.88478 160.075 6.52691C160.084 6.3458 160.087 6.31972 160.099 6.37478C160.119 6.48344 160.099 6.99925 160.067 7.17166C159.955 7.77151 159.69 8.54956 159.406 9.11463C159.377 9.16968 159.357 9.2146 159.361 9.2146C159.364 9.2146 159.399 9.16389 159.439 9.10159C159.716 8.67561 159.922 8.13228 160.078 7.40928C160.119 7.22238 160.128 7.14703 160.144 6.8674C160.157 6.62543 160.103 6.12412 160.044 5.91837L160.022 5.84593L160.029 5.90968Z" fill="#EDB9B9"/>
<path d="M158.511 7.64706C158.488 7.71661 158.447 7.83252 158.42 7.90641C158.392 7.98175 158.375 8.0484 158.379 8.06289C158.392 8.09332 158.433 7.98465 158.51 7.72675C158.571 7.51956 158.571 7.4616 158.511 7.64706Z" fill="#EDB9B9"/>
<path d="M160.083 7.54569C160.072 7.67609 159.927 8.22812 159.834 8.49761C159.714 8.84535 159.492 9.32783 159.327 9.59877C159.294 9.65383 159.263 9.70454 159.259 9.71033C159.256 9.71758 159.256 9.72192 159.26 9.72192C159.265 9.72192 159.327 9.63209 159.4 9.52198C159.549 9.2974 159.739 8.92938 159.84 8.67003C159.943 8.40343 160.123 7.84706 160.11 7.83837C160.102 7.83402 160.094 7.75868 160.091 7.67174C160.089 7.58336 160.085 7.52686 160.083 7.54569Z" fill="#EDB9B9"/>
<path d="M160.213 7.78508C160.178 7.82131 160.155 7.87492 160.107 8.02705C160.074 8.13427 160.029 8.27046 160.005 8.32987C159.935 8.50663 159.97 8.46172 160.049 8.27046C160.113 8.11978 160.133 8.08935 160.1 8.19657C160.094 8.21685 160.094 8.2183 160.106 8.20092C160.125 8.17194 160.27 7.74886 160.264 7.74307C160.261 7.74017 160.238 7.759 160.213 7.78508Z" fill="#EDB9B9"/>
<path d="M157.557 9.10454C157.379 9.34795 157.18 9.56673 156.72 10.026C156.411 10.3332 156.313 10.4375 156.418 10.3448C156.505 10.2694 156.607 10.1782 156.644 10.1419C156.682 10.1057 156.782 10.0159 156.867 9.94055C157.121 9.71887 157.479 9.32912 157.656 9.08136C157.699 9.01905 157.701 9.01471 157.677 8.99442C157.654 8.97414 157.646 8.98283 157.557 9.10454Z" fill="#EDB9B9"/>
<path d="M157.772 9.04416C157.656 9.20644 157.618 9.26149 157.66 9.21513C157.714 9.15428 157.824 8.9978 157.814 8.9978C157.81 8.9978 157.791 9.01953 157.772 9.04416Z" fill="#EDB9B9"/>
<path d="M159.73 9.41745C159.685 9.48845 159.65 9.54785 159.653 9.54785C159.661 9.54785 159.769 9.38847 159.796 9.33342C159.838 9.25083 159.812 9.28415 159.73 9.41745Z" fill="#EDB9B9"/>
<path d="M159.654 9.60037C159.606 9.66992 159.509 9.78873 159.282 10.0626L159.221 10.135L159.292 10.0626C159.521 9.82785 159.638 9.69165 159.677 9.61486C159.7 9.56849 159.718 9.52792 159.715 9.52648C159.712 9.52358 159.685 9.5569 159.654 9.60037Z" fill="#EDB9B9"/>
<path d="M159.496 9.88584C159.411 10.0018 159.408 10.009 159.467 9.9409C159.527 9.8757 159.612 9.7511 159.599 9.7511C159.596 9.7511 159.55 9.81195 159.496 9.88584Z" fill="#EDB9B9"/>
<path d="M159.174 10.6593C158.953 10.8911 158.595 11.2215 158.304 11.4678C158.079 11.6561 158.034 11.6982 158.131 11.6301C158.424 11.4229 158.857 11.036 159.122 10.7448C159.305 10.5448 159.392 10.4449 159.382 10.4478C159.38 10.4478 159.286 10.5434 159.174 10.6593Z" fill="#EDB9B9"/>
<path d="M147.865 12.0214C147.895 12.0648 148.098 12.2633 148.156 12.3082C148.176 12.3242 148.114 12.2561 148.018 12.159C147.923 12.0619 147.843 11.9822 147.84 11.9822C147.837 11.9822 147.849 11.9996 147.865 12.0214Z" fill="#EDB9B9"/>
<path d="M151.445 13.1331C151.445 13.136 151.456 13.1474 151.47 13.1574C151.492 13.1759 151.493 13.1745 151.475 13.1517C151.456 13.1289 151.445 13.1217 151.445 13.1331Z" fill="#EDB9B9"/>
<path d="M148.982 13.6195C149.114 13.7658 149.133 13.7789 149.047 13.6615C148.991 13.5862 148.906 13.5036 148.883 13.5036C148.88 13.5036 148.924 13.5558 148.982 13.6195Z" fill="#EDB9B9"/>
<path d="M153.218 15.7955L153.191 15.8289L153.224 15.8013C153.254 15.7752 153.263 15.7637 153.252 15.7637C153.249 15.7637 153.234 15.7781 153.218 15.7955Z" fill="#EDB9B9"/>
<path d="M16.0298 90.306L3.48473 56.1556L0 55.5458V54.5875H12.7628V55.5458L8.66827 56.0685L18.2513 82.1604L27.6601 57.506L22.6508 55.5458V54.5875H32.016V55.5458L28.8361 57.4624L16.3782 90.306H16.0298Z" fill="white"/>
<path d="M25.3538 89.4348V88.5201L29.6226 86.7777L42.2112 53.7163H42.9081L54.7998 87.8667L58.8072 88.5201V89.4348H46.0008V88.5201L49.5727 87.9538L45.8701 77.6303H34.2834L30.7551 86.7777L34.6755 88.5201V89.4348H25.3538ZM34.6319 76.7155H45.5652L40.3381 61.3827L34.6319 76.7155Z" fill="white"/>
<path d="M70.0458 88.5201L74.0532 87.8667V56.1556L70.0458 55.5458V54.5875H83.3313C86.4676 54.5875 88.965 54.8779 90.8235 55.4587C92.682 56.0395 94.0324 56.9252 94.8745 58.1158C95.7167 59.2774 96.1377 60.8164 96.1377 62.733C96.1377 66.9147 93.4951 69.5864 88.21 70.7479V70.9657C91.4333 71.4013 93.9307 72.3596 95.7021 73.8406C97.5026 75.3216 98.4028 77.3834 98.4028 80.026C98.4028 83.2204 97.2267 85.5871 94.8745 87.1262C92.5514 88.6653 89.4006 89.4348 85.4222 89.4348H70.0458V88.5201ZM83.6798 70.6173C86.003 70.6173 87.7889 69.9639 89.0376 68.6571C90.2863 67.3503 90.9106 65.4918 90.9106 63.0815V62.8202C90.9106 58.0577 88.3842 55.6765 83.3313 55.6765H78.8448V70.6173H83.6798ZM85.4222 88.3894C87.8905 88.3894 89.8071 87.6779 91.172 86.255C92.5368 84.803 93.2193 82.7412 93.2193 80.0696V79.5904C93.2193 76.9478 92.5368 74.9732 91.172 73.6664C89.8362 72.3596 87.9196 71.7062 85.4222 71.7062H78.8448V88.3894H85.4222Z" fill="white"/>
<path d="M114.133 89.8704C111.984 89.8704 110.038 89.3912 108.296 88.4329C106.553 87.4456 105.174 86.0662 104.158 84.2948C103.141 82.5234 102.633 80.4761 102.633 78.153C102.633 75.8298 103.127 73.7971 104.114 72.0547C105.131 70.2833 106.481 68.9184 108.165 67.9601C109.878 66.9728 111.781 66.4791 113.871 66.4791C115.701 66.4791 117.342 66.8857 118.794 67.6988C120.246 68.5119 121.378 69.6444 122.191 71.0964C123.004 72.5193 123.425 74.1601 123.454 76.0186H107.425V80.3309C107.425 82.8864 107.991 84.9627 109.123 86.5599C110.285 88.128 111.955 88.9121 114.133 88.9121C116.136 88.9121 117.908 88.3458 119.447 87.2133C120.986 86.0807 121.93 84.6143 122.278 82.8138H123.28C122.874 84.9627 121.843 86.6761 120.187 87.9538C118.532 89.2315 116.514 89.8704 114.133 89.8704ZM118.663 74.9296C118.663 72.4032 118.271 70.5301 117.487 69.3105C116.703 68.0618 115.483 67.4374 113.828 67.4374C111.882 67.4374 110.372 68.1199 109.298 69.4847C108.223 70.8496 107.613 72.6645 107.468 74.9296H118.663Z" fill="white"/>
<path d="M133.54 89.8704C131.682 89.8704 130.157 89.3912 128.967 88.4329C127.776 87.4456 127.181 85.9936 127.181 84.077C127.181 81.3473 128.328 79.4162 130.622 78.2837C132.916 77.1221 135.573 76.5413 138.593 76.5413H141.512V73.1872C141.512 71.6772 141.337 70.5156 140.989 69.7025C140.67 68.8604 140.161 68.2796 139.464 67.9601C138.767 67.6117 137.824 67.4374 136.633 67.4374C135.268 67.4374 134.252 67.7133 133.584 68.2651C132.916 68.7878 132.582 69.4992 132.582 70.3995C132.582 71.2416 132.989 71.7934 133.802 72.0547C133.802 72.7807 133.526 73.4196 132.974 73.9713C132.422 74.5231 131.769 74.7989 131.014 74.7989C130.201 74.7989 129.547 74.5811 129.054 74.1455C128.56 73.6809 128.313 72.984 128.313 72.0547C128.313 70.3704 129.155 69.0201 130.84 68.0037C132.524 66.9873 134.629 66.4791 137.156 66.4791C142.964 66.4791 145.868 69.0056 145.868 74.0584V86.5163C145.868 87.1552 145.998 87.6489 146.26 87.9973C146.55 88.3168 146.957 88.4765 147.479 88.4765C147.973 88.4765 148.365 88.3168 148.655 87.9973C148.946 87.6489 149.091 87.1842 149.091 86.6035H150.006C150.006 87.6198 149.672 88.4184 149.004 88.9992C148.365 89.58 147.465 89.8704 146.303 89.8704C144.967 89.8704 143.835 89.4929 142.906 88.7379C142.005 87.9538 141.541 86.7487 141.512 85.1224C140.815 86.6035 139.74 87.765 138.288 88.6072C136.865 89.4493 135.283 89.8704 133.54 89.8704ZM135.936 87.9538C136.72 87.9538 137.519 87.7215 138.332 87.2568C139.174 86.7922 139.885 86.1243 140.466 85.2531C141.047 84.3529 141.396 83.2784 141.512 82.0297V77.4996H138.593C136.212 77.4996 134.426 78.0368 133.235 79.1113C132.074 80.1567 131.493 81.6377 131.493 83.5543C131.493 85.1515 131.871 86.284 132.626 86.9519C133.381 87.6198 134.484 87.9538 135.936 87.9538Z" fill="white"/>
<path d="M160.433 89.8704C158.342 89.8704 156.687 89.3477 155.467 88.3023C154.277 87.2568 153.681 85.7032 153.681 83.6414V68.1779L150.632 67.7424V66.8712H158.037V83.5543C158.037 85.0353 158.342 86.1969 158.952 87.039C159.562 87.8812 160.506 88.3023 161.783 88.3023C163.119 88.3023 164.397 87.8667 165.617 86.9955C166.865 86.0953 167.969 84.9918 168.927 83.685V68.1779L165.878 67.7424V66.8712H173.283V88.128L176.332 88.5636V89.4348H168.927V85.2531C167.882 86.7051 166.618 87.8376 165.137 88.6507C163.685 89.4638 162.117 89.8704 160.433 89.8704Z" fill="white"/>
<path d="M187.607 89.8704C185.69 89.8704 184.151 89.3912 182.99 88.4329C181.857 87.4746 181.291 85.9501 181.291 83.8592V68.1779L178.198 67.7424V66.8712H181.291V63.2558L185.647 62.1668V66.8712H191.309V67.7424L185.647 68.1779V83.7721C185.647 86.8503 186.75 88.3894 188.957 88.3894C189.422 88.3894 189.857 88.3168 190.264 88.1716C190.7 88.0264 191.033 87.8812 191.266 87.736C191.527 87.5908 191.687 87.4892 191.745 87.4311L192.311 88.128C191.004 89.2896 189.436 89.8704 187.607 89.8704Z" fill="white"/>
<path d="M197.655 102.154C196.145 102.154 194.925 101.777 193.996 101.022C193.067 100.267 192.602 99.2501 192.602 97.9724C192.602 97.1012 192.849 96.3897 193.343 95.838C193.865 95.3153 194.504 95.0539 195.259 95.0539C195.811 95.0539 196.305 95.1701 196.74 95.4024C197.176 95.6347 197.524 95.9832 197.786 96.4478C197.35 97.0576 197.132 97.6965 197.132 98.3644C197.132 98.9452 197.321 99.4244 197.699 99.8019C198.076 100.179 198.555 100.368 199.136 100.368C199.833 100.368 200.428 100.136 200.922 99.6712C201.445 99.2066 201.909 98.3935 202.316 97.2319L204.929 89.7397L194.824 68.2215L191.905 67.7859V66.9147H202.751V67.7859L199.702 68.3086L206.977 83.8592L212.16 68.8749L208.414 67.7859V66.9147H216.255V67.7859L213.293 68.8749L203.535 97.2319C202.926 98.9452 202.185 100.194 201.314 100.978C200.472 101.762 199.252 102.154 197.655 102.154Z" fill="white"/>
</svg>
