<svg width="105" height="50" viewBox="0 0 105 50" fill="none" xmlns="http://www.w3.org/2000/svg">
<path d="M62.5314 0.394913C62.176 0.510103 61.9799 0.725782 61.9162 1.07136C61.8893 1.21106 61.877 1.23311 61.7765 1.30909C61.4309 1.57133 61.4383 1.95612 61.7961 2.32866C61.9432 2.47816 62.4039 2.83354 62.6392 2.97569L62.7789 3.05902L62.2789 3.04922C61.5339 3.03206 61.0241 3.09823 60.4824 3.2796C59.6271 3.56635 58.9972 4.09574 58.7374 4.74277C58.6958 4.84571 58.6639 4.9364 58.6639 4.94865C58.6639 4.95845 58.6198 5.02218 58.5634 5.0908C58.4605 5.2207 58.3355 5.40206 58.2154 5.60549C58.1443 5.72558 58.1468 5.72313 58.3747 5.50745L58.6026 5.28932L58.6173 5.5099C58.659 6.08096 58.8796 6.54907 59.3158 6.98043C59.8991 7.56129 60.6663 7.81618 61.0045 7.54413C61.0756 7.48776 61.078 7.47551 61.0756 7.30395C61.0756 7.15444 61.0609 7.09562 61.002 6.96572C60.904 6.75495 60.8231 6.66427 60.6687 6.58829C60.4972 6.50251 60.3942 6.50496 60.3035 6.59564C60.2447 6.65446 60.2325 6.68878 60.2325 6.78191C60.2325 6.91916 60.2815 7.01964 60.3673 7.05886C60.4506 7.09807 60.453 7.09562 60.453 7.04415C60.453 6.97553 60.48 6.96082 60.5315 7.00739C60.6221 7.08827 60.5707 7.1863 60.4334 7.1863C60.1712 7.1863 59.8722 6.84563 59.8281 6.4927C59.7913 6.2035 59.9212 5.84812 60.132 5.66186C60.1932 5.60794 60.3991 5.46088 60.5878 5.33589C60.9285 5.11286 60.9383 5.10061 61.3452 4.63984C62.0388 3.8482 62.4383 3.54675 62.975 3.4095C63.2961 3.32862 63.3892 3.34087 63.7642 3.51979C63.9455 3.60557 64.1735 3.70605 64.2691 3.74527C64.3671 3.78448 64.448 3.8237 64.448 3.83105C64.448 3.8384 64.345 3.8286 64.2225 3.81144C63.8769 3.75997 63.1613 3.75997 62.8917 3.81389C62.4603 3.89722 62.1662 4.00751 61.8991 4.18398C61.5559 4.41191 61.3844 4.6815 61.3648 5.01973C61.3525 5.26481 61.3942 5.42167 61.551 5.72803C61.8084 6.22066 62.2544 6.50986 62.5363 6.36526C62.6466 6.30889 62.698 6.14223 62.6662 5.95106C62.6049 5.59078 62.3206 5.2207 62.1392 5.26971C62.0853 5.28197 61.9971 5.41187 61.9971 5.47804C61.9971 5.5001 62.0339 5.54176 62.078 5.56872C62.1883 5.63245 62.2201 5.66676 62.2054 5.69372C62.176 5.74028 62.0927 5.71333 61.9971 5.62754C61.8035 5.45353 61.7863 5.17168 61.9481 4.84571C62.2471 4.23544 63.2323 3.79428 64.0926 3.88007C64.3279 3.90458 64.5877 3.9683 64.6122 4.00751C64.622 4.02222 64.6048 4.02712 64.5656 4.01731C64.5313 4.00751 64.3867 4.01241 64.247 4.02467C63.4505 4.10065 62.8549 4.45847 62.6588 4.97561C62.5951 5.14227 62.5829 5.41677 62.6319 5.61774C62.7569 6.12997 63.1564 6.61525 63.3892 6.53437C63.4848 6.50006 63.5755 6.30644 63.5853 6.10546C63.5926 5.97067 63.5853 5.91675 63.5411 5.82361C63.448 5.6349 63.2519 5.55402 63.1931 5.68146C63.1662 5.73783 63.1711 5.75009 63.2225 5.79175C63.274 5.82852 63.2789 5.84322 63.2568 5.87998C63.2078 5.96086 63.1417 5.93145 63.0755 5.80156C63.0216 5.69372 63.0142 5.64715 63.0142 5.40942C63.0142 5.11286 63.0461 4.98296 63.1809 4.72562C63.35 4.40701 63.7323 4.13741 64.1147 4.07123C64.4504 4.01486 64.8524 4.08104 65.0975 4.23299L65.1955 4.29426L65.0607 4.27711C64.9872 4.26485 64.7715 4.2575 64.5828 4.2575C64.274 4.25995 64.22 4.26731 64.0436 4.32858C63.5534 4.49769 63.2961 4.7967 63.2961 5.19374C63.2961 5.44373 63.4235 5.63245 63.6318 5.68882C63.8475 5.75009 64.0901 5.51235 64.1539 5.17903C64.198 4.94865 64.1073 4.7967 63.9333 4.8016C63.7348 4.8114 63.6882 4.89473 63.7985 5.03933C63.8696 5.13247 63.8745 5.15943 63.8254 5.19864C63.7691 5.24521 63.6931 5.19129 63.6612 5.07855C63.622 4.9462 63.6784 4.7967 63.8254 4.6619C64.0093 4.49279 64.1416 4.46583 64.3205 4.56141C64.4284 4.62023 64.4847 4.78444 64.3965 4.78444C64.3818 4.78444 64.3744 4.76728 64.3842 4.74768C64.4063 4.68886 64.3303 4.70356 64.2887 4.76974C64.22 4.87512 64.3303 5.02953 64.448 4.99277C64.5215 4.97071 64.595 4.86042 64.595 4.77464C64.595 4.66435 64.5166 4.55406 64.3965 4.49769L64.2936 4.44867L64.4627 4.43151C64.7421 4.40455 64.8965 4.44132 65.0582 4.57857C65.1097 4.62023 65.1342 4.66435 65.1342 4.71091C65.1342 4.78934 65.0778 4.84571 65.0239 4.82365C64.9823 4.80895 64.9725 4.71091 65.0141 4.71091C65.0264 4.71091 65.0313 4.69866 65.0239 4.68641C64.9921 4.63494 64.8842 4.6619 64.8009 4.74523C64.7298 4.8163 64.7176 4.84571 64.7176 4.93885C64.7176 5.12756 64.8867 5.26236 65.0509 5.20109C65.2984 5.10551 65.4136 4.76728 65.269 4.55406C65.2004 4.45357 65.1906 4.45602 65.4896 4.49034C66.889 4.65209 68.5042 5.60549 69.2223 6.69368C69.6831 7.39218 69.9698 8.10538 70.1022 8.89947C70.1634 9.25975 70.161 10.1225 70.0997 10.5195C69.8987 11.8234 69.612 12.8086 69.1806 13.6934L68.9895 14.0855L68.6512 14.436C68.2934 14.8085 67.889 15.1615 67.5238 15.4213C67.2983 15.5806 66.6979 15.9409 66.6832 15.9237C66.6709 15.9114 66.7959 15.7227 66.9356 15.5438C67.0042 15.4556 67.1513 15.2595 67.2616 15.11C67.4479 14.8527 67.4577 14.8331 67.4086 14.8232C67.2199 14.784 67.2175 14.7865 66.9748 14.9507C66.4749 15.2889 65.4479 16.0781 64.769 16.6443L64.4872 16.8771L64.5852 16.9188L64.6808 16.9604L64.5215 17.0315C64.4333 17.0707 64.3377 17.1124 64.3107 17.1246C64.2813 17.1393 64.1441 17.2839 64.0068 17.4481C63.8132 17.6785 63.6882 17.8011 63.4554 17.98C63.2617 18.1295 63.1073 18.2741 63.024 18.3795C62.7593 18.7177 62.3206 19.127 61.2937 19.9897C60.7913 20.4088 60.6565 20.5363 60.8746 20.3745C60.931 20.3328 60.9824 20.3034 60.9873 20.3108C61.0094 20.3328 60.7815 20.6098 60.5388 20.85C60.0903 21.2985 59.1541 22.0583 58.7742 22.2788C58.7129 22.3156 59.007 21.9945 59.6688 21.3034C61.2128 19.6907 62.1662 18.7692 63.198 17.8942C63.4946 17.6418 63.725 17.4138 64.497 16.6124C64.769 16.3256 64.7641 16.3305 64.2029 16.7913C62.5559 18.1515 61.6172 19.0437 60.0119 20.7764C58.9874 21.8793 58.8281 22.0656 58.7521 22.2274C58.7252 22.2813 58.6075 22.4087 58.4678 22.5337L58.2276 22.7494L58.159 22.6587C58.1222 22.6097 58.0781 22.5288 58.061 22.4774C58.0414 22.4259 57.9482 22.2739 57.8502 22.1367C57.7546 22.0019 57.6713 21.8744 57.6688 21.8524C57.6566 21.7715 57.5242 21.6146 57.0561 21.122C56.4238 20.4603 56.2865 20.3083 56.3012 20.2912C56.311 20.2838 55.4802 19.5167 55.3062 19.3745C55.3013 19.3696 55.3086 19.3549 55.3282 19.3451C55.3846 19.3084 53.9116 17.9971 53.1347 17.3918C52.8945 17.2055 52.6813 17.0364 52.6592 17.0192C52.5612 16.9335 52.7205 17.0437 53.0391 17.279C53.3528 17.5094 53.3822 17.5266 53.392 17.4751C53.4019 17.4065 53.37 17.3795 52.696 16.8599C52.0514 16.3673 51.5343 15.9482 51.2573 15.6982C51.1397 15.5928 50.9902 15.4654 50.9265 15.4115C50.7721 15.2865 49.9804 14.5537 49.6005 14.1836C48.7427 13.3503 48.2011 12.5219 47.7207 11.3038C47.505 10.7621 47.1815 9.75973 47.108 9.41661C47.0075 8.95339 47.0002 8.93623 47.0124 9.22054C47.0467 9.96315 47.2379 10.7572 47.6251 11.7621C48.1349 13.0831 48.6864 13.9483 49.6765 14.9703C49.8383 15.137 49.9608 15.2742 49.951 15.2742C49.9241 15.2742 49.3285 14.7767 49.0638 14.5316C48.929 14.4091 48.7868 14.2792 48.7452 14.2448C48.706 14.2105 48.6888 14.1934 48.7084 14.2081C48.7574 14.2399 48.7452 14.2203 48.5393 13.9238C48.0761 13.2645 47.6692 12.4385 47.3923 11.6028C47.1889 10.9852 47.0002 10.1911 46.9462 9.73522C46.9168 9.48033 46.9266 8.88967 46.9658 8.65683C46.9805 8.56125 46.9854 8.55635 46.9977 8.60781C47.01 8.65683 47.0173 8.64213 47.032 8.53429C47.1619 7.58335 47.6349 6.61525 48.3261 5.87508C48.8898 5.27217 49.978 4.6815 51.0539 4.39965C51.2867 4.33838 51.3284 4.33348 51.924 4.33348C52.3847 4.33348 52.6298 4.34573 52.8553 4.37514C54.2229 4.56631 55.289 5.06629 56.1542 5.9241C56.4115 6.17899 56.7375 6.60054 56.8551 6.82603C56.9311 6.97553 56.9287 6.91916 56.8502 6.69858L56.7767 6.49516L56.8257 6.33585C56.8527 6.24762 56.8821 6.11527 56.8895 6.04419C56.8993 5.97067 56.914 5.91185 56.9262 5.91185C56.936 5.91185 57.0708 6.01233 57.2228 6.13488C57.7595 6.56378 58.012 6.60545 57.8919 6.24272C57.7742 5.89224 57.3968 5.43147 56.9311 5.06874C56.838 4.99767 56.7743 4.92659 56.7645 4.88738C56.7571 4.85061 56.6958 4.71091 56.6297 4.57612C55.8895 3.04677 54.1518 1.95612 52.0171 1.68163C51.7107 1.64241 51.6985 1.64486 51.4534 1.69633C50.9461 1.80172 50.2108 2.02965 49.7549 2.22327C48.1888 2.88991 46.8801 3.88007 45.6987 5.29913C45.4389 5.61039 44.988 6.1937 44.988 6.21576C44.988 6.25252 45.1105 6.22311 45.1865 6.16919C45.2331 6.13488 45.5076 5.86773 45.7968 5.57362C46.3433 5.02218 46.7379 4.67415 47.157 4.37514C47.4045 4.19868 47.7918 3.95114 47.8212 3.95114C47.8286 3.95114 47.7477 4.04428 47.6374 4.16192C47.5295 4.27711 47.3653 4.46583 47.2747 4.58347C47.184 4.70111 46.9781 4.93394 46.8139 5.10306C46.6521 5.27217 46.4438 5.505 46.3531 5.61774C46.1742 5.84077 45.8531 6.30889 45.733 6.51721C45.6938 6.58829 45.6497 6.64711 45.6326 6.64711C45.5884 6.64711 45.4953 6.77946 45.3826 7.00249C45.2894 7.18385 45.2233 7.34071 45.0125 7.88971C44.9341 8.10048 44.9022 8.13234 44.8679 8.03921C44.8532 8 44.8311 8.05392 44.7723 8.2794C44.6963 8.56615 44.5958 9.09554 44.5958 9.21073C44.5958 9.29896 44.4512 9.73277 44.39 9.82345C44.2895 9.97786 44.1792 9.95335 43.8998 9.71316C43.8091 9.63228 43.7013 9.55876 43.6596 9.5514C43.4292 9.49994 43.292 9.89453 43.2577 10.6984C43.2454 11.0072 43.2503 11.1371 43.2699 11.1763C43.3067 11.245 43.3336 11.2303 43.3949 11.1053C43.4219 11.0538 43.4611 11.0097 43.4807 11.0097C43.5591 11.0097 43.6768 11.3798 43.7086 11.7327C43.7258 11.9312 43.7307 11.9435 43.7478 11.8552C43.8336 11.3822 43.8924 11.2499 44.015 11.2352C44.1718 11.2156 44.3189 11.5097 44.6694 12.5415C44.8066 12.9459 45.0542 13.6125 45.2159 14.0243C45.3777 14.436 45.5958 15.034 45.7036 15.3551C45.9193 16.0046 46.0002 16.2227 46.1301 16.4825C46.2257 16.6688 46.4095 16.9898 46.4242 16.9898C46.4291 16.9898 46.3458 16.8207 46.2379 16.6148C46.0272 16.208 45.912 15.931 45.9242 15.8526C45.9291 15.8183 45.983 15.8943 46.1007 16.0953C46.26 16.3771 46.7232 17.083 46.8286 17.2104C46.8923 17.2864 46.809 17.132 46.4438 16.4997C46.135 15.9605 46.0173 15.7325 45.8752 15.3968C45.7625 15.1272 45.6644 14.8355 45.6816 14.8183C45.6865 14.8134 45.7404 14.9213 45.7992 15.0585C45.8973 15.2865 45.9169 15.3159 46.01 15.3673C46.0909 15.4115 46.1546 15.485 46.2967 15.7007C46.8139 16.4898 47.5639 17.431 48.7868 18.828C49.3604 19.4824 49.576 19.7152 49.3309 19.4162C48.978 18.9824 48.6545 18.5241 48.3555 18.0364C48.1717 17.7373 48.1398 17.6638 48.2182 17.73C48.2403 17.7496 48.3702 17.8354 48.505 17.9212C48.7182 18.056 48.8383 18.1663 49.4314 18.7643C50.0981 19.4383 50.1079 19.4481 49.9314 19.2079C49.6152 18.7741 49.5711 18.7103 49.5711 18.6956C49.5711 18.6442 49.8358 18.8378 50.2672 19.203C50.5368 19.4358 50.7819 19.6417 50.8088 19.6613C50.8358 19.6809 50.6471 19.4726 50.3873 19.1956C49.7157 18.4751 48.7623 17.3942 48.7623 17.3526C48.7623 17.3452 48.8065 17.3477 48.8604 17.3575C48.9388 17.3722 49.0025 17.4163 49.1618 17.5682C49.5907 17.9775 50.049 18.3746 49.978 18.2765C49.9241 18.203 49.9559 18.2251 50.0981 18.3623L50.2892 18.5461L50.0245 18.2275C49.6569 17.7864 49.6496 17.7717 49.9461 18.0805C50.0883 18.2275 50.2182 18.3476 50.2329 18.3427C50.2451 18.3403 50.4314 18.5069 50.6446 18.7128C50.8554 18.9211 51.0956 19.1343 51.1789 19.1858C51.2818 19.252 51.4608 19.426 51.7524 19.7471C51.9877 20.002 52.2401 20.2569 52.3137 20.3132C52.5563 20.4897 52.8382 20.6416 52.8994 20.6245C52.9484 20.6122 52.9117 20.5681 52.5808 20.2152C52.2254 19.8402 52.1813 19.7838 52.4019 19.9775C52.4558 20.0265 52.4289 19.9873 52.3406 19.8941C52.2524 19.7985 52.1421 19.6784 52.0955 19.6245C52.0196 19.5363 52.0245 19.5387 52.1446 19.649C52.2181 19.7152 52.4092 19.8966 52.5661 20.0485C52.7401 20.2176 52.8627 20.3206 52.8798 20.3108C52.9264 20.2814 52.6568 20.024 51.7034 19.176C50.8554 18.4187 50.25 17.8525 50.478 18.0216C50.7917 18.2594 51.6789 19.002 52.7573 19.9309C53.5097 20.5779 53.6886 20.7274 53.6886 20.7078C53.6886 20.7005 53.3871 20.4162 53.0195 20.0755C52.272 19.3794 51.5539 18.6809 51.3284 18.426C51.1397 18.2128 51.1716 18.2324 51.5514 18.5535C52.0049 18.9383 52.3921 19.2937 53.2965 20.1613C54.1714 21.0019 54.2964 21.1196 54.6812 21.4627C55.0586 21.8034 54.8405 21.5583 54.0023 20.7005C53.6102 20.2961 53.2156 19.8917 53.1274 19.7961C52.9901 19.6515 52.9999 19.6588 53.196 19.8451C53.5465 20.1809 54.7278 21.3843 55.1934 21.8793C55.4214 22.122 55.8503 22.5533 56.1493 22.8376C56.4458 23.1219 57.0463 23.7077 57.4826 24.139L58.2742 24.9258L58.61 24.6047C60.4065 22.8842 62.4211 21.1808 64.399 19.7128C64.8744 19.3574 64.8671 19.3623 64.0264 19.9088C63.6784 20.1343 63.3941 20.3108 63.3941 20.2985C63.3941 20.2887 63.546 20.1319 63.7323 19.9554C64.0558 19.6417 64.4137 19.3231 65.546 18.3378C66.1366 17.8256 66.291 17.6859 66.2371 17.7153C66.2175 17.7251 66.0361 17.8427 65.8327 17.9751C65.5411 18.1687 65.492 18.1932 65.5999 18.1001C65.9798 17.7643 66.7346 17.1075 66.8866 16.9751C67.1194 16.7717 67.889 15.9825 68.1709 15.6565C68.7566 14.9752 69.2517 14.1909 69.5581 13.4606C69.5948 13.3723 69.6929 13.1861 69.7786 13.0439C69.9894 12.6885 70.0899 12.5047 70.0776 12.5047C70.0703 12.5047 70.0409 12.5464 70.009 12.5954C69.8987 12.7841 69.759 12.9949 69.7517 12.99C69.7468 12.9851 69.7884 12.8503 69.8424 12.6885C70.1022 11.8969 70.335 10.7352 70.3767 10.0244C70.4502 8.76222 70.1218 7.6054 69.3718 6.49025C69.112 6.10301 68.9037 5.85548 68.5189 5.47069C67.867 4.82365 67.1268 4.31142 66.2518 3.90212C65.916 3.74527 65.7714 3.69625 65.4406 3.63253C65.1048 3.56635 64.9087 3.45606 64.7788 3.25999C64.6759 3.10314 64.6686 2.94628 64.7666 2.94628C64.8328 2.94628 64.8548 2.99775 64.8058 3.03206C64.769 3.06147 64.769 3.06392 64.8058 3.07863C64.8744 3.10559 64.9749 3.09333 65.0313 3.05412C65.1097 3.0002 65.1073 2.83109 65.0264 2.74286C64.9406 2.64972 64.7911 2.61296 64.6637 2.64972C64.5092 2.69629 64.4235 2.79678 64.4235 2.92667C64.4259 3.11049 64.5166 3.25264 64.7666 3.46096L64.8279 3.50998L64.7543 3.49528C64.2372 3.39234 63.6392 3.11784 63.4088 2.8752C63.3426 2.80658 63.3426 2.80168 63.3794 2.7306C63.4382 2.61541 63.5828 2.58845 63.649 2.67913C63.6931 2.74286 63.6759 2.79187 63.6073 2.81393C63.5583 2.82864 63.5583 2.83109 63.6049 2.8654C63.671 2.91442 63.921 2.89726 64.0436 2.83354C64.2298 2.73796 64.2985 2.54434 64.2176 2.34826C64.149 2.1816 63.9137 2.06396 63.6539 2.06396C63.4284 2.06396 63.2887 2.12033 63.1343 2.27474L63.002 2.40709L62.9284 2.27964C62.774 2.01004 62.6196 1.52722 62.5927 1.23066C62.5804 1.08361 62.5853 1.064 62.6441 0.992928C62.7544 0.86058 62.9431 0.863031 62.9235 0.995378C62.9186 1.03459 62.9015 1.0444 62.85 1.03949C62.7961 1.03459 62.7789 1.0444 62.7667 1.09587C62.7471 1.17429 62.7544 1.18165 62.8745 1.1988C63.024 1.21841 63.2323 1.14733 63.3426 1.03704C63.4701 0.909597 63.4946 0.782152 63.4162 0.642452C63.274 0.390011 62.8868 0.282171 62.5314 0.394913ZM47.5295 16.3158C47.8286 16.6786 48.304 17.1957 48.8065 17.7079C49.0148 17.9212 49.179 18.1001 49.1741 18.1074C49.1496 18.1295 48.0271 17.007 47.7991 16.7374C47.5737 16.4678 47.3433 16.1663 47.255 16.0217C47.1864 15.9114 47.2526 15.9825 47.5295 16.3158ZM56.1223 20.149C56.213 20.2201 56.2841 20.2863 56.2767 20.2912C56.2645 20.3034 55.7473 19.8868 55.7473 19.8647C55.7473 19.8574 55.7939 19.8892 55.8527 19.9358C55.9091 19.9799 56.0316 20.0779 56.1223 20.149Z" fill="white"/>
<path d="M68.33 7.05886C68.5775 7.54658 68.7368 8.22793 68.7368 8.78918C68.7368 9.25485 68.6756 9.64944 68.5016 10.2989C68.455 10.4803 68.4158 10.6617 68.4158 10.7033C68.4158 10.7425 68.3986 10.8749 68.379 10.995C68.3594 11.1126 68.3472 11.2156 68.3521 11.2229C68.3594 11.2278 68.3766 11.1567 68.3937 11.066C68.4109 10.9754 68.482 10.6739 68.5555 10.397C68.7001 9.83816 68.8349 9.07348 68.8349 8.79898C68.8349 8.70095 68.8177 8.50733 68.7981 8.37008C68.7785 8.23283 68.7638 8.06372 68.7638 7.99019C68.7663 7.80393 68.6633 7.55394 68.4133 7.12993C68.2932 6.93141 68.2418 6.8873 68.33 7.05886Z" fill="white"/>
<path d="M70.8569 8.09069C70.9721 9.03918 70.8986 9.82592 70.5971 10.9092C70.5432 11.1028 70.504 11.267 70.5089 11.2719C70.5138 11.2768 70.553 11.1616 70.5947 11.017C70.8153 10.2499 70.9084 9.74014 70.9354 9.13477C70.9501 8.82841 70.955 8.78429 70.9746 8.87743C71.0089 9.06124 70.9746 9.93376 70.9206 10.2254C70.7319 11.2401 70.2834 12.5562 69.803 13.512C69.754 13.6052 69.7197 13.6812 69.7271 13.6812C69.732 13.6812 69.7908 13.5954 69.8594 13.49C70.3275 12.7694 70.6756 11.8503 70.9403 10.6274C71.0089 10.3112 71.0236 10.1837 71.0505 9.71073C71.0726 9.30143 70.9819 8.45342 70.8814 8.1054L70.8447 7.98285L70.8569 8.09069Z" fill="white"/>
<path d="M68.2884 11.0294C68.2491 11.147 68.1805 11.3431 68.134 11.4681C68.0874 11.5955 68.058 11.7083 68.0653 11.7328C68.0874 11.7843 68.156 11.6004 68.2859 11.1642C68.3888 10.8137 68.3888 10.7157 68.2884 11.0294Z" fill="white"/>
<path d="M70.9478 10.8578C70.9282 11.0784 70.6831 12.0122 70.5262 12.4681C70.3228 13.0563 69.9478 13.8724 69.6684 14.3307C69.612 14.4239 69.5606 14.5097 69.5532 14.5195C69.5483 14.5317 69.5483 14.5391 69.5557 14.5391C69.563 14.5391 69.6684 14.3871 69.791 14.2008C70.0434 13.821 70.3645 13.1984 70.536 12.7597C70.71 12.3088 71.0139 11.3676 70.9919 11.3529C70.9796 11.3456 70.9649 11.2181 70.96 11.0711C70.9576 10.9216 70.9502 10.826 70.9478 10.8578Z" fill="white"/>
<path d="M71.1681 11.2622C71.1093 11.3235 71.07 11.4142 70.9892 11.6715C70.9328 11.8529 70.8568 12.0832 70.8152 12.1837C70.6975 12.4827 70.7563 12.4068 70.8911 12.0832C70.999 11.8284 71.0333 11.7769 70.9769 11.9583C70.9671 11.9926 70.9671 11.995 70.9867 11.9656C71.0186 11.9166 71.2637 11.2009 71.2539 11.1911C71.249 11.1862 71.2097 11.2181 71.1681 11.2622Z" fill="white"/>
<path d="M66.6761 13.4948C66.3747 13.9065 66.0389 14.2766 65.2595 15.0535C64.7375 15.5731 64.5708 15.7496 64.7497 15.5927C64.8968 15.4653 65.0683 15.3109 65.1321 15.2496C65.1958 15.1883 65.3649 15.0364 65.5095 14.9089C65.9384 14.5339 66.5438 13.8746 66.8428 13.4555C66.9163 13.3502 66.9188 13.3428 66.8795 13.3085C66.8403 13.2742 66.8256 13.2889 66.6761 13.4948Z" fill="white"/>
<path d="M67.0384 13.392C66.8423 13.6665 66.7786 13.7597 66.8497 13.6812C66.9404 13.5783 67.1266 13.3136 67.1095 13.3136C67.1021 13.3136 67.0703 13.3504 67.0384 13.392Z" fill="white"/>
<path d="M70.3497 14.0243C70.2737 14.1444 70.2149 14.2449 70.2198 14.2449C70.2345 14.2449 70.4158 13.9753 70.4624 13.8821C70.5335 13.7424 70.4894 13.7988 70.3497 14.0243Z" fill="white"/>
<path d="M70.2223 14.3332C70.1414 14.4508 69.9772 14.6518 69.5924 15.115L69.4895 15.2375L69.6096 15.115C69.9968 14.718 70.1954 14.4876 70.2615 14.3577C70.3007 14.2793 70.3302 14.2106 70.3253 14.2082C70.3204 14.2033 70.2738 14.2596 70.2223 14.3332Z" fill="white"/>
<path d="M69.9552 14.816C69.8106 15.0121 69.8057 15.0243 69.9062 14.9091C70.0066 14.7988 70.1513 14.5881 70.1292 14.5881C70.1243 14.5881 70.0459 14.691 69.9552 14.816Z" fill="white"/>
<path d="M69.4107 16.1248C69.0357 16.5169 68.4303 17.0757 67.9377 17.4924C67.5578 17.811 67.4818 17.8821 67.646 17.7669C68.1411 17.4164 68.8739 16.762 69.3224 16.2694C69.6312 15.9312 69.7783 15.762 69.7611 15.7669C69.7587 15.7669 69.5994 15.9287 69.4107 16.1248Z" fill="white"/>
<path d="M50.2792 18.4285C50.3307 18.5021 50.6738 18.8378 50.7719 18.9138C50.8062 18.9408 50.7008 18.8256 50.539 18.6614C50.3773 18.4972 50.2425 18.3624 50.2376 18.3624C50.2327 18.3624 50.2523 18.3918 50.2792 18.4285Z" fill="white"/>
<path d="M56.3357 20.3082C56.3357 20.3131 56.3553 20.3327 56.3798 20.3499C56.4166 20.3817 56.419 20.3793 56.3872 20.3401C56.3553 20.3009 56.3357 20.2886 56.3357 20.3082Z" fill="white"/>
<path d="M52.1691 21.1318C52.3921 21.3793 52.424 21.4014 52.2794 21.2029C52.1838 21.0754 52.0416 20.9357 52.0024 20.9357C51.9975 20.9357 52.0711 21.024 52.1691 21.1318Z" fill="white"/>
<path d="M59.3354 24.813L59.2888 24.8694L59.3452 24.8228C59.3967 24.7787 59.4114 24.7591 59.3918 24.7591C59.3869 24.7591 59.3623 24.7836 59.3354 24.813Z" fill="white"/>
<path d="M74.9727 1.00494C74.8716 1.0377 74.8159 1.09905 74.7977 1.19735C74.7901 1.23709 74.7866 1.24337 74.758 1.26498C74.6597 1.33958 74.6618 1.44903 74.7636 1.555C74.8054 1.59753 74.9365 1.69862 75.0034 1.73906L75.0431 1.76276L74.9009 1.75997C74.689 1.75509 74.544 1.77391 74.3899 1.8255C74.1466 1.90707 73.9674 2.05766 73.8935 2.24171C73.8817 2.271 73.8726 2.29679 73.8726 2.30028C73.8726 2.30307 73.86 2.32119 73.844 2.34071C73.8147 2.37766 73.7792 2.42925 73.745 2.48712C73.7248 2.52128 73.7255 2.52058 73.7903 2.45923L73.8552 2.39718L73.8593 2.45993C73.8712 2.62237 73.9339 2.75553 74.058 2.87823C74.224 3.04346 74.4422 3.11597 74.5384 3.03858C74.5586 3.02255 74.5593 3.01906 74.5586 2.97026C74.5586 2.92773 74.5544 2.911 74.5377 2.87405C74.5098 2.81409 74.4868 2.7883 74.4429 2.76668C74.3941 2.74228 74.3648 2.74298 74.339 2.76878C74.3223 2.78551 74.3188 2.79527 74.3188 2.82176C74.3188 2.8608 74.3327 2.88939 74.3571 2.90054C74.3808 2.9117 74.3815 2.911 74.3815 2.89636C74.3815 2.87684 74.3892 2.87265 74.4038 2.8859C74.4296 2.90891 74.415 2.93679 74.3759 2.93679C74.3014 2.93679 74.2163 2.83989 74.2037 2.73949C74.1933 2.65723 74.2302 2.55614 74.2902 2.50315C74.3076 2.48782 74.3662 2.44599 74.4199 2.41043C74.5168 2.34699 74.5196 2.3435 74.6353 2.21243C74.8326 1.98725 74.9462 1.9015 75.0989 1.86245C75.1902 1.83945 75.2167 1.84293 75.3234 1.89383C75.375 1.91823 75.4398 1.94681 75.467 1.95797C75.4949 1.96912 75.5179 1.98028 75.5179 1.98237C75.5179 1.98446 75.4886 1.98167 75.4538 1.97679C75.3555 1.96215 75.1519 1.96215 75.0752 1.97749C74.9525 2.00119 74.8688 2.03256 74.7929 2.08276C74.6953 2.1476 74.6465 2.22429 74.6409 2.3205C74.6374 2.39021 74.6492 2.43483 74.6939 2.52198C74.7671 2.66211 74.8939 2.74437 74.9741 2.70324C75.0055 2.68721 75.0201 2.6398 75.0111 2.58542C74.9936 2.48294 74.9128 2.37766 74.8612 2.39161C74.8458 2.39509 74.8207 2.43204 74.8207 2.45087C74.8207 2.45714 74.8312 2.46899 74.8438 2.47666C74.8751 2.49479 74.8842 2.50455 74.88 2.51222C74.8716 2.52546 74.8479 2.51779 74.8207 2.49339C74.7657 2.44389 74.7608 2.36372 74.8068 2.271C74.8919 2.0974 75.1721 1.97191 75.4168 1.99631C75.4838 2.00328 75.5577 2.02141 75.5646 2.03256C75.5674 2.03675 75.5625 2.03814 75.5514 2.03535C75.5416 2.03256 75.5005 2.03396 75.4607 2.03744C75.2342 2.05906 75.0648 2.16084 75.009 2.30795C74.9909 2.35535 74.9874 2.43344 75.0013 2.4906C75.0369 2.63631 75.1505 2.77435 75.2167 2.75135C75.2439 2.74159 75.2697 2.68651 75.2725 2.62934C75.2746 2.591 75.2725 2.57566 75.26 2.54917C75.2335 2.49548 75.1777 2.47248 75.161 2.50873C75.1533 2.52477 75.1547 2.52825 75.1693 2.5401C75.184 2.55056 75.1854 2.55474 75.1791 2.5652C75.1651 2.58821 75.1463 2.57984 75.1275 2.54289C75.1122 2.51222 75.1101 2.49897 75.1101 2.43134C75.1101 2.34699 75.1191 2.31004 75.1575 2.23683C75.2056 2.1462 75.3143 2.06951 75.4231 2.05069C75.5186 2.03466 75.6329 2.05348 75.7027 2.0967L75.7306 2.11413L75.6922 2.10925C75.6713 2.10577 75.6099 2.10368 75.5563 2.10368C75.4684 2.10437 75.4531 2.10646 75.4029 2.12389C75.2634 2.172 75.1902 2.25705 75.1902 2.36999C75.1902 2.44111 75.2265 2.49479 75.2858 2.51082C75.3471 2.52825 75.4161 2.46063 75.4343 2.36581C75.4468 2.30028 75.421 2.25705 75.3715 2.25845C75.315 2.26124 75.3018 2.28494 75.3332 2.32607C75.3534 2.35256 75.3548 2.36023 75.3408 2.37139C75.3248 2.38463 75.3032 2.3693 75.2941 2.33723C75.283 2.29958 75.299 2.25705 75.3408 2.21871C75.3931 2.1706 75.4308 2.16293 75.4817 2.19012C75.5123 2.20686 75.5284 2.25357 75.5033 2.25357C75.4991 2.25357 75.497 2.24869 75.4998 2.24311C75.5061 2.22638 75.4844 2.23056 75.4726 2.24938C75.4531 2.27936 75.4844 2.32328 75.5179 2.31283C75.5388 2.30655 75.5597 2.27518 75.5597 2.25078C75.5597 2.21941 75.5374 2.18803 75.5033 2.172L75.474 2.15805L75.5221 2.15317C75.6016 2.14551 75.6455 2.15596 75.6915 2.195C75.7061 2.20686 75.7131 2.21941 75.7131 2.23265C75.7131 2.25496 75.6971 2.271 75.6817 2.26472C75.6699 2.26054 75.6671 2.23265 75.679 2.23265C75.6824 2.23265 75.6838 2.22917 75.6817 2.22568C75.6727 2.21104 75.642 2.21871 75.6183 2.24241C75.5981 2.26263 75.5946 2.271 75.5946 2.29749C75.5946 2.35117 75.6427 2.38951 75.6894 2.37209C75.7598 2.3449 75.7926 2.24869 75.7515 2.18803C75.7319 2.15945 75.7292 2.16015 75.8142 2.16991C76.2123 2.21592 76.6717 2.48712 76.876 2.79666C77.0071 2.99536 77.0886 3.19823 77.1263 3.42412C77.1437 3.5266 77.143 3.772 77.1256 3.88494C77.0684 4.25584 76.9869 4.5361 76.8641 4.78778L76.8098 4.89933L76.7136 4.99902C76.6118 5.10499 76.4967 5.20538 76.3929 5.27928C76.3287 5.3246 76.1579 5.42708 76.1537 5.4222C76.1502 5.41872 76.1858 5.36504 76.2255 5.31414C76.2451 5.28905 76.2869 5.23327 76.3183 5.19074C76.3712 5.11754 76.374 5.11196 76.3601 5.10918C76.3064 5.09802 76.3057 5.09872 76.2367 5.14543C76.0945 5.24164 75.8024 5.46613 75.6092 5.62717L75.5291 5.6934L75.557 5.70526L75.5841 5.71711L75.5388 5.73733C75.5137 5.74848 75.4865 5.76033 75.4789 5.76382C75.4705 5.768 75.4315 5.80913 75.3924 5.85584C75.3373 5.92138 75.3018 5.95624 75.2356 6.00713C75.1805 6.04966 75.1366 6.09079 75.1129 6.12077C75.0376 6.21698 74.9128 6.33341 74.6207 6.57881C74.4777 6.69803 74.4394 6.73428 74.5014 6.68827C74.5175 6.67641 74.5321 6.66805 74.5335 6.67014C74.5398 6.67641 74.4749 6.75519 74.4059 6.82352C74.2783 6.9511 74.012 7.16722 73.904 7.22997C73.8865 7.24042 73.9702 7.14909 74.1584 6.95249C74.5976 6.49375 74.8688 6.23162 75.1624 5.98273C75.2467 5.91092 75.3122 5.84608 75.5319 5.61811C75.6092 5.53654 75.6078 5.53793 75.4482 5.669C74.9797 6.05593 74.7127 6.3097 74.256 6.8026C73.9646 7.11633 73.9193 7.16931 73.8977 7.21533C73.89 7.23066 73.8566 7.26692 73.8168 7.30247L73.7485 7.36382L73.729 7.33803C73.7185 7.32408 73.706 7.30108 73.7011 7.28644C73.6955 7.2718 73.669 7.22857 73.6411 7.18953C73.6139 7.15119 73.5902 7.11493 73.5895 7.10866C73.5861 7.08565 73.5484 7.04103 73.4152 6.9009C73.2354 6.71267 73.1963 6.66944 73.2005 6.66456C73.2033 6.66247 72.967 6.44426 72.9175 6.40382C72.9161 6.40243 72.9182 6.39824 72.9237 6.39545C72.9398 6.385 72.5208 6.01201 72.2998 5.83981C72.2315 5.78682 72.1708 5.73872 72.1645 5.73384C72.1366 5.70944 72.182 5.74081 72.2726 5.80774C72.3618 5.87327 72.3702 5.87815 72.373 5.86351C72.3758 5.84399 72.3667 5.83632 72.175 5.68852C71.9916 5.54839 71.8445 5.42918 71.7657 5.35806C71.7323 5.32809 71.6898 5.29183 71.6716 5.2765C71.6277 5.24094 71.4025 5.03249 71.2945 4.92721C71.0504 4.69018 70.8964 4.45453 70.7597 4.10804C70.6984 3.95396 70.6064 3.66882 70.5854 3.57122C70.5569 3.43945 70.5548 3.43457 70.5582 3.51544C70.568 3.72669 70.6224 3.95257 70.7325 4.23841C70.8776 4.61418 71.0344 4.86029 71.3161 5.15101C71.3621 5.19841 71.3969 5.23745 71.3942 5.23745C71.3865 5.23745 71.2171 5.09593 71.1418 5.02621C71.1034 4.99135 71.063 4.9544 71.0511 4.94464C71.04 4.93488 71.0351 4.93 71.0407 4.93419C71.0546 4.94325 71.0511 4.93767 70.9926 4.85331C70.8608 4.66578 70.7451 4.43083 70.6663 4.19309C70.6084 4.01741 70.5548 3.79152 70.5394 3.66185C70.5311 3.58934 70.5338 3.42133 70.545 3.3551C70.5492 3.32791 70.5506 3.32651 70.5541 3.34115C70.5575 3.3551 70.5596 3.35091 70.5638 3.32024C70.6008 3.04974 70.7353 2.77435 70.9319 2.56381C71.0923 2.3923 71.4018 2.22429 71.7079 2.14411C71.7741 2.12668 71.786 2.12529 71.9554 2.12529C72.0864 2.12529 72.1562 2.12877 72.2203 2.13714C72.6093 2.19152 72.9126 2.33374 73.1587 2.57775C73.2319 2.65026 73.3246 2.77017 73.3581 2.83431C73.3797 2.87684 73.379 2.8608 73.3567 2.79806L73.3358 2.74019L73.3497 2.69488C73.3574 2.66978 73.3658 2.63213 73.3678 2.61191C73.3706 2.591 73.3748 2.57427 73.3783 2.57427C73.3811 2.57427 73.4194 2.60285 73.4627 2.63771C73.6153 2.75971 73.6871 2.77156 73.653 2.66838C73.6195 2.56869 73.5122 2.43762 73.3797 2.33444C73.3532 2.31422 73.3351 2.294 73.3323 2.28285C73.3302 2.27239 73.3128 2.23265 73.2939 2.19431C73.0834 1.75927 72.5891 1.44903 71.9819 1.37095C71.8947 1.35979 71.8912 1.36049 71.8215 1.37513C71.6772 1.40511 71.4681 1.46995 71.3384 1.52502C70.8929 1.71465 70.5206 1.99631 70.1846 2.39997C70.1107 2.48851 69.9824 2.65444 69.9824 2.66071C69.9824 2.67117 70.0172 2.66281 70.0389 2.64747C70.0521 2.63771 70.1302 2.56172 70.2124 2.47806C70.3679 2.32119 70.4802 2.22219 70.5994 2.13714C70.6698 2.08694 70.7799 2.01653 70.7883 2.01653C70.7904 2.01653 70.7674 2.04302 70.736 2.07649C70.7053 2.10925 70.6586 2.16293 70.6328 2.1964C70.607 2.22986 70.5485 2.29609 70.5018 2.3442C70.4558 2.3923 70.3965 2.45853 70.3707 2.4906C70.3198 2.55405 70.2285 2.68721 70.1943 2.74647C70.1832 2.76668 70.1706 2.78342 70.1657 2.78342C70.1532 2.78342 70.1267 2.82106 70.0946 2.88451C70.0681 2.9361 70.0493 2.98072 69.9894 3.13688C69.967 3.19684 69.958 3.2059 69.9482 3.17941C69.944 3.16825 69.9378 3.18359 69.921 3.24773C69.8994 3.3293 69.8708 3.47989 69.8708 3.51266C69.8708 3.53775 69.8297 3.66115 69.8123 3.68695C69.7837 3.73087 69.7523 3.7239 69.6728 3.65558C69.647 3.63257 69.6164 3.61165 69.6045 3.60956C69.539 3.59492 69.4999 3.70717 69.4902 3.93584C69.4867 4.02368 69.4881 4.06063 69.4937 4.07179C69.5041 4.09131 69.5118 4.08712 69.5292 4.05157C69.5369 4.03693 69.548 4.02438 69.5536 4.02438C69.5759 4.02438 69.6094 4.12965 69.6185 4.23004C69.6233 4.28651 69.6247 4.29 69.6296 4.2649C69.654 4.13035 69.6707 4.0927 69.7056 4.08852C69.7502 4.08294 69.7921 4.1666 69.8918 4.46011C69.9308 4.57514 70.0012 4.76477 70.0472 4.8819C70.0932 4.99902 70.1553 5.16913 70.186 5.26046C70.2473 5.44521 70.2703 5.50726 70.3073 5.58116C70.3345 5.63414 70.3867 5.72547 70.3909 5.72547C70.3923 5.72547 70.3686 5.67737 70.3379 5.61881C70.278 5.50308 70.2452 5.4243 70.2487 5.40199C70.2501 5.39223 70.2654 5.41384 70.2989 5.47101C70.3442 5.55118 70.476 5.75197 70.506 5.78822C70.5241 5.80983 70.5004 5.76591 70.3965 5.58604C70.3087 5.43266 70.2752 5.36783 70.2348 5.27231C70.2027 5.19562 70.1748 5.11266 70.1797 5.10778C70.1811 5.10639 70.1964 5.13706 70.2131 5.1761C70.241 5.24094 70.2466 5.24931 70.2731 5.26395C70.2961 5.2765 70.3142 5.29741 70.3547 5.35876C70.5018 5.58325 70.7151 5.85096 71.063 6.24835C71.2261 6.4345 71.2875 6.50073 71.2178 6.41567C71.1174 6.29227 71.0254 6.1619 70.9403 6.02317C70.888 5.93811 70.8789 5.9172 70.9013 5.93602C70.9075 5.9416 70.9445 5.966 70.9828 5.9904C71.0435 6.02874 71.0776 6.06012 71.2464 6.23022C71.436 6.42195 71.4388 6.42474 71.3886 6.35641C71.2986 6.23301 71.2861 6.21489 71.2861 6.2107C71.2861 6.19606 71.3614 6.25114 71.4841 6.35502C71.5608 6.42125 71.6305 6.47981 71.6382 6.48539C71.6458 6.49097 71.5921 6.43171 71.5182 6.35293C71.3272 6.14796 71.056 5.84051 71.056 5.82865C71.056 5.82656 71.0686 5.82726 71.0839 5.83005C71.1062 5.83423 71.1243 5.84678 71.1697 5.89001C71.2917 6.00643 71.422 6.11937 71.4018 6.09149C71.3865 6.07057 71.3955 6.07685 71.436 6.11589L71.4904 6.16818L71.4151 6.07754C71.3105 5.95205 71.3084 5.94787 71.3928 6.03571C71.4332 6.07754 71.4701 6.11171 71.4743 6.11031C71.4778 6.10961 71.5308 6.15702 71.5915 6.21558C71.6514 6.27484 71.7197 6.3355 71.7434 6.35014C71.7727 6.36896 71.8236 6.41846 71.9066 6.50979C71.9735 6.5823 72.0453 6.6548 72.0662 6.67084C72.1352 6.72103 72.2154 6.76426 72.2328 6.75938C72.2468 6.75589 72.2363 6.74334 72.1422 6.64295C72.0411 6.53628 72.0286 6.52025 72.0913 6.57532C72.1067 6.58927 72.099 6.57811 72.0739 6.55162C72.0488 6.52443 72.0174 6.49027 72.0042 6.47493C71.9826 6.44983 71.984 6.45053 72.0181 6.4819C72.039 6.50073 72.0934 6.55232 72.138 6.59554C72.1875 6.64365 72.2224 6.67293 72.2273 6.67014C72.2405 6.66177 72.1638 6.58857 71.8926 6.34735C71.6514 6.13192 71.4792 5.97088 71.544 6.01898C71.6333 6.08661 71.8857 6.29785 72.1924 6.56208C72.4064 6.74613 72.4573 6.78866 72.4573 6.78308C72.4573 6.78099 72.3716 6.70012 72.267 6.60321C72.0544 6.40521 71.8501 6.20652 71.786 6.13402C71.7323 6.07336 71.7413 6.07894 71.8494 6.17027C71.9784 6.27972 72.0885 6.38081 72.3458 6.62761C72.5947 6.86674 72.6302 6.90021 72.7397 6.99781C72.8471 7.09472 72.785 7.025 72.5466 6.78099C72.435 6.66596 72.3228 6.55092 72.2977 6.52373C72.2586 6.4826 72.2614 6.48469 72.3172 6.53768C72.4169 6.63319 72.7529 6.9755 72.8854 7.11633C72.9502 7.18535 73.0722 7.30805 73.1573 7.38892C73.2417 7.46979 73.4125 7.63642 73.5366 7.75912L73.7617 7.98291L73.8573 7.89158C74.3683 7.40217 74.9414 6.91763 75.504 6.50003C75.6392 6.39894 75.6371 6.40033 75.398 6.5558C75.299 6.61994 75.2181 6.67014 75.2181 6.66665C75.2181 6.66386 75.2614 6.61925 75.3143 6.56905C75.4064 6.47981 75.5082 6.38918 75.8302 6.10892C75.9983 5.96321 76.0422 5.92347 76.0268 5.93184C76.0213 5.93462 75.9697 5.96809 75.9118 6.00574C75.8289 6.06081 75.8149 6.06778 75.8456 6.04129C75.9536 5.94578 76.1684 5.75894 76.2116 5.72129C76.2778 5.66343 76.4967 5.43894 76.5769 5.34621C76.7435 5.1524 76.8844 4.92931 76.9715 4.72155C76.982 4.69645 77.0099 4.64347 77.0343 4.60303C77.0942 4.50194 77.1228 4.44965 77.1193 4.44965C77.1172 4.44965 77.1089 4.4615 77.0998 4.47545C77.0684 4.52913 77.0287 4.58909 77.0266 4.58769C77.0252 4.5863 77.037 4.54795 77.0524 4.50194C77.1263 4.27675 77.1925 3.9463 77.2044 3.74412C77.2253 3.38507 77.1319 3.05601 76.9185 2.7388C76.8446 2.62864 76.7854 2.55823 76.6759 2.44877C76.4905 2.26472 76.2799 2.11901 76.031 2.00259C75.9355 1.95797 75.8944 1.94402 75.8003 1.9259C75.7048 1.90707 75.649 1.8757 75.612 1.81993C75.5828 1.77531 75.5807 1.73069 75.6085 1.73069C75.6274 1.73069 75.6336 1.74533 75.6197 1.75509C75.6092 1.76346 75.6092 1.76415 75.6197 1.76834C75.6392 1.77601 75.6678 1.77252 75.6838 1.76136C75.7061 1.74603 75.7055 1.69792 75.6824 1.67282C75.658 1.64633 75.6155 1.63587 75.5793 1.64633C75.5353 1.65958 75.5109 1.68816 75.5109 1.72511C75.5116 1.7774 75.5374 1.81784 75.6085 1.8771L75.626 1.89104L75.6051 1.88686C75.458 1.85757 75.2878 1.77949 75.2223 1.71047C75.2035 1.69095 75.2035 1.68956 75.2139 1.66934C75.2307 1.63657 75.2718 1.6289 75.2906 1.6547C75.3032 1.67282 75.2983 1.68677 75.2788 1.69304C75.2648 1.69723 75.2648 1.69792 75.2781 1.70768C75.2969 1.72163 75.368 1.71675 75.4029 1.69862C75.4559 1.67143 75.4754 1.61635 75.4524 1.56058C75.4329 1.51317 75.3659 1.47971 75.292 1.47971C75.2279 1.47971 75.1882 1.49574 75.1442 1.53966L75.1066 1.57731L75.0857 1.54106C75.0417 1.46437 74.9978 1.32703 74.9902 1.24267C74.9867 1.20084 74.9881 1.19526 75.0048 1.17504C75.0362 1.1374 75.0899 1.13809 75.0843 1.17574C75.0829 1.1869 75.078 1.18969 75.0634 1.18829C75.048 1.1869 75.0431 1.18969 75.0397 1.20433C75.0341 1.22664 75.0362 1.22873 75.0703 1.23361C75.1129 1.23918 75.1721 1.21897 75.2035 1.18759C75.2397 1.15134 75.2467 1.11509 75.2244 1.07535C75.184 1.00354 75.0738 0.972866 74.9727 1.00494ZM70.7053 5.53375C70.7904 5.63693 70.9257 5.78404 71.0686 5.92974C71.1278 5.9904 71.1745 6.04129 71.1732 6.04338C71.1662 6.04966 70.8469 5.73035 70.782 5.65367C70.7179 5.57698 70.6524 5.49122 70.6273 5.45009C70.6077 5.41872 70.6266 5.43894 70.7053 5.53375ZM73.1496 6.62413C73.1754 6.64434 73.1956 6.66317 73.1935 6.66456C73.1901 6.66805 73.043 6.54953 73.043 6.54325C73.043 6.54116 73.0562 6.55023 73.0729 6.56347C73.089 6.57602 73.1238 6.60391 73.1496 6.62413Z" fill="#EDB9B9"/>
<path d="M76.6222 2.90065C76.6927 3.03938 76.738 3.2332 76.738 3.39285C76.738 3.52531 76.7205 3.63755 76.671 3.8223C76.6578 3.87389 76.6466 3.92549 76.6466 3.93734C76.6466 3.94849 76.6418 3.98614 76.6362 4.0203C76.6306 4.05376 76.6271 4.08305 76.6285 4.08514C76.6306 4.08653 76.6355 4.06631 76.6404 4.04052C76.6452 4.01472 76.6655 3.92897 76.6864 3.85019C76.7275 3.69124 76.7659 3.47372 76.7659 3.39564C76.7659 3.36775 76.761 3.31267 76.7554 3.27363C76.7498 3.23459 76.7456 3.18648 76.7456 3.16557C76.7463 3.11258 76.7171 3.04147 76.6459 2.92086C76.6118 2.86439 76.5971 2.85184 76.6222 2.90065Z" fill="#EDB9B9"/>
<path d="M77.341 3.19393C77.3737 3.46374 77.3528 3.68753 77.2671 3.99568C77.2517 4.05076 77.2406 4.09747 77.242 4.09886C77.2434 4.10026 77.2545 4.06749 77.2664 4.02636C77.3291 3.80814 77.3556 3.66313 77.3633 3.49093C77.3675 3.40378 77.3689 3.39123 77.3744 3.41773C77.3842 3.47001 77.3744 3.71821 77.3591 3.80117C77.3054 4.0898 77.1778 4.46418 77.0412 4.73607C77.0272 4.76257 77.0175 4.78418 77.0196 4.78418C77.021 4.78418 77.0377 4.75978 77.0572 4.7298C77.1904 4.52483 77.2894 4.26339 77.3647 3.91551C77.3842 3.82557 77.3884 3.78932 77.396 3.65476C77.4023 3.53834 77.3765 3.29712 77.3479 3.19812L77.3375 3.16326L77.341 3.19393Z" fill="#EDB9B9"/>
<path d="M76.6106 4.02994C76.5995 4.0634 76.58 4.11918 76.5667 4.15473C76.5535 4.19098 76.5451 4.22305 76.5472 4.23003C76.5535 4.24467 76.573 4.19238 76.6099 4.06828C76.6392 3.96859 76.6392 3.9407 76.6106 4.02994Z" fill="#EDB9B9"/>
<path d="M77.3671 3.98117C77.3616 4.04392 77.2918 4.30954 77.2472 4.43921C77.1894 4.60653 77.0827 4.83869 77.0032 4.96906C76.9872 4.99555 76.9725 5.01995 76.9705 5.02274C76.9691 5.02623 76.9691 5.02832 76.9712 5.02832C76.9732 5.02832 77.0032 4.9851 77.0381 4.93211C77.1099 4.82405 77.2012 4.64697 77.25 4.52217C77.2995 4.3939 77.386 4.12618 77.3797 4.122C77.3762 4.11991 77.372 4.08365 77.3706 4.04182C77.3699 3.9993 77.3678 3.97211 77.3671 3.98117Z" fill="#EDB9B9"/>
<path d="M77.4294 4.09629C77.4127 4.11372 77.4015 4.13952 77.3785 4.21272C77.3625 4.26431 77.3409 4.32985 77.329 4.35843C77.2955 4.44349 77.3123 4.42187 77.3506 4.32985C77.3813 4.25734 77.3911 4.2427 77.375 4.29429C77.3722 4.30405 77.3722 4.30475 77.3778 4.29638C77.3869 4.28244 77.4566 4.07887 77.4538 4.07608C77.4524 4.07468 77.4413 4.08375 77.4294 4.09629Z" fill="#EDB9B9"/>
<path d="M76.1514 4.73126C76.0657 4.84839 75.9702 4.95366 75.7485 5.17466C75.6 5.32246 75.5526 5.37266 75.6035 5.32804C75.6453 5.29179 75.6941 5.24786 75.7122 5.23043C75.7303 5.21301 75.7784 5.16978 75.8196 5.13353C75.9416 5.02686 76.1138 4.83932 76.1988 4.72011C76.2198 4.69013 76.2204 4.68804 76.2093 4.67828C76.1981 4.66852 76.194 4.6727 76.1514 4.73126Z" fill="#EDB9B9"/>
<path d="M76.2548 4.70211C76.199 4.78019 76.1809 4.80669 76.2011 4.78438C76.2269 4.7551 76.2799 4.6798 76.275 4.6798C76.2729 4.6798 76.2639 4.69026 76.2548 4.70211Z" fill="#EDB9B9"/>
<path d="M77.1967 4.88183C77.1751 4.916 77.1584 4.94458 77.1597 4.94458C77.1639 4.94458 77.2155 4.86789 77.2288 4.8414C77.249 4.80166 77.2364 4.8177 77.1967 4.88183Z" fill="#EDB9B9"/>
<path d="M77.1606 4.9698C77.1376 5.00326 77.0909 5.06043 76.9814 5.19219L76.9521 5.22705L76.9863 5.19219C77.0965 5.07925 77.1529 5.01372 77.1718 4.97677C77.1829 4.95446 77.1913 4.93494 77.1899 4.93424C77.1885 4.93285 77.1752 4.94888 77.1606 4.9698Z" fill="#EDB9B9"/>
<path d="M77.0845 5.10713C77.0433 5.1629 77.0419 5.16639 77.0705 5.13362C77.0991 5.10225 77.1402 5.04229 77.134 5.04229C77.1326 5.04229 77.1103 5.07157 77.0845 5.10713Z" fill="#EDB9B9"/>
<path d="M76.9298 5.47936C76.8231 5.59091 76.6509 5.74986 76.5108 5.86838C76.4027 5.95901 76.3811 5.97923 76.4278 5.94646C76.5686 5.84677 76.7771 5.66062 76.9047 5.52049C76.9925 5.42428 77.0344 5.37618 77.0295 5.37757C77.0288 5.37757 76.9835 5.42359 76.9298 5.47936Z" fill="#EDB9B9"/>
<path d="M71.4877 6.13477C71.5023 6.15569 71.5999 6.2512 71.6278 6.27281C71.6375 6.28048 71.6076 6.24771 71.5616 6.201C71.5155 6.15429 71.4772 6.11595 71.4758 6.11595C71.4744 6.11595 71.48 6.12431 71.4877 6.13477Z" fill="#EDB9B9"/>
<path d="M73.2102 6.66969C73.2102 6.67106 73.2157 6.67655 73.2226 6.68135C73.2329 6.69028 73.2335 6.68959 73.2246 6.67861C73.2157 6.66763 73.2102 6.6642 73.2102 6.66969Z" fill="#EDB9B9"/>
<path d="M72.0253 6.9037C72.0887 6.97412 72.0978 6.98039 72.0566 6.92392C72.0294 6.88767 71.989 6.84793 71.9778 6.84793C71.9765 6.84793 71.9974 6.87303 72.0253 6.9037Z" fill="#EDB9B9"/>
<path d="M74.0635 7.95076L74.0503 7.9668L74.0663 7.95355C74.081 7.941 74.0852 7.93542 74.0796 7.93542C74.0782 7.93542 74.0712 7.9424 74.0635 7.95076Z" fill="#EDB9B9"/>
<path d="M8.05199 43.8033L2.01563 27.371L0.338867 27.0776V26.6165H6.48002V27.0776L4.50982 27.3291L9.12093 39.8839L13.6482 28.0207L11.2378 27.0776V26.6165H15.7442V27.0776L14.2141 27.9998L8.21967 43.8033H8.05199Z" fill="white"/>
<path d="M12.5385 43.3841V42.944L14.5925 42.1056L20.6498 26.1973H20.9852L26.7072 42.6296L28.6354 42.944V43.3841H22.4733V42.944L24.192 42.6715L22.4104 37.7041H16.8352L15.1375 42.1056L17.0238 42.944V43.3841H12.5385ZM17.0029 37.2639H22.2637L19.7486 29.8862L17.0029 37.2639Z" fill="white"/>
<path d="M34.0432 42.944L35.9715 42.6296V27.371L34.0432 27.0776V26.6165H40.4358C41.9449 26.6165 43.1466 26.7562 44.0409 27.0356C44.9352 27.3151 45.5849 27.7413 45.9901 28.3142C46.3954 28.8731 46.598 29.6137 46.598 30.5359C46.598 32.548 45.3264 33.8335 42.7833 34.3925V34.4973C44.3343 34.7069 45.536 35.168 46.3884 35.8806C47.2547 36.5932 47.6879 37.5853 47.6879 38.8568C47.6879 40.3939 47.122 41.5327 45.9901 42.2733C44.8723 43.0138 43.3562 43.3841 41.4419 43.3841H34.0432V42.944ZM40.6035 34.3296C41.7214 34.3296 42.5807 34.0152 43.1815 33.3864C43.7824 32.7576 44.0828 31.8633 44.0828 30.7036V30.5778C44.0828 28.2862 42.8672 27.1404 40.4358 27.1404H38.277V34.3296H40.6035ZM41.4419 42.8811C42.6296 42.8811 43.5518 42.5387 44.2086 41.8541C44.8653 41.1554 45.1937 40.1633 45.1937 38.8778V38.6473C45.1937 37.3757 44.8653 36.4255 44.2086 35.7968C43.5658 35.168 42.6436 34.8536 41.4419 34.8536H38.277V42.8811H41.4419Z" fill="white"/>
<path d="M55.2567 43.5937C54.2227 43.5937 53.2865 43.3632 52.4481 42.902C51.6098 42.427 50.946 41.7632 50.457 40.9109C49.9679 40.0585 49.7234 39.0734 49.7234 37.9556C49.7234 36.8377 49.9609 35.8596 50.436 35.0212C50.9251 34.1689 51.5748 33.5122 52.3853 33.051C53.2097 32.576 54.1249 32.3384 55.131 32.3384C56.0113 32.3384 56.8007 32.534 57.4994 32.9253C58.198 33.3165 58.743 33.8615 59.1342 34.5601C59.5255 35.2448 59.7281 36.0343 59.7421 36.9286H52.0289V39.0036C52.0289 40.2332 52.3014 41.2323 52.8464 42.0008C53.4053 42.7553 54.2087 43.1326 55.2567 43.1326C56.2209 43.1326 57.0732 42.8601 57.8138 42.3152C58.5544 41.7702 59.0085 41.0646 59.1762 40.1983H59.6582C59.4626 41.2323 58.9666 42.0567 58.1701 42.6715C57.3736 43.2863 56.4025 43.5937 55.2567 43.5937ZM57.4365 36.4046C57.4365 35.1889 57.2479 34.2877 56.8706 33.7008C56.4933 33.1 55.9065 32.7995 55.11 32.7995C54.1738 32.7995 53.4472 33.1279 52.9302 33.7846C52.4132 34.4414 52.1198 35.3147 52.0499 36.4046H57.4365Z" fill="white"/>
<path d="M64.5952 43.5937C63.7009 43.5937 62.9673 43.3632 62.3944 42.902C61.8215 42.427 61.5351 41.7283 61.5351 40.8061C61.5351 39.4926 62.087 38.5634 63.1909 38.0185C64.2948 37.4595 65.5733 37.1801 67.0265 37.1801H68.4308V35.5662C68.4308 34.8396 68.347 34.2807 68.1793 33.8894C68.0256 33.4842 67.7811 33.2048 67.4457 33.051C67.1103 32.8834 66.6562 32.7995 66.0833 32.7995C65.4266 32.7995 64.9375 32.9323 64.6162 33.1978C64.2948 33.4493 64.1341 33.7916 64.1341 34.2248C64.1341 34.63 64.3297 34.8955 64.721 35.0212C64.721 35.3706 64.5882 35.678 64.3227 35.9435C64.0572 36.209 63.7428 36.3417 63.3795 36.3417C62.9883 36.3417 62.6739 36.2369 62.4364 36.0273C62.1988 35.8037 62.08 35.4684 62.08 35.0212C62.08 34.2108 62.4853 33.5611 63.2957 33.072C64.1061 32.583 65.1192 32.3384 66.3348 32.3384C69.1294 32.3384 70.5268 33.5541 70.5268 35.9854V41.9798C70.5268 42.2872 70.5896 42.5248 70.7154 42.6925C70.8551 42.8462 71.0507 42.923 71.3023 42.923C71.5398 42.923 71.7284 42.8462 71.8682 42.6925C72.0079 42.5248 72.0778 42.3012 72.0778 42.0217H72.5179C72.5179 42.5108 72.3572 42.8951 72.0358 43.1745C71.7284 43.454 71.2953 43.5937 70.7364 43.5937C70.0936 43.5937 69.5486 43.4121 69.1015 43.0488C68.6683 42.6715 68.4448 42.0916 68.4308 41.3091C68.0954 42.0217 67.5784 42.5807 66.8798 42.9859C66.1951 43.3911 65.4336 43.5937 64.5952 43.5937ZM65.748 42.6715C66.1252 42.6715 66.5095 42.5597 66.9007 42.3361C67.306 42.1126 67.6483 41.7912 67.9278 41.372C68.2072 40.9388 68.3749 40.4218 68.4308 39.821V37.6412H67.0265C65.8807 37.6412 65.0214 37.8997 64.4485 38.4167C63.8896 38.9197 63.6101 39.6324 63.6101 40.5546C63.6101 41.3231 63.7917 41.868 64.155 42.1894C64.5183 42.5108 65.0493 42.6715 65.748 42.6715Z" fill="white"/>
<path d="M77.5353 43.5937C76.5292 43.5937 75.7328 43.3422 75.1459 42.8392C74.573 42.3361 74.2865 41.5886 74.2865 40.5965V33.1558L72.8194 32.9462V32.5271H76.3825V40.5546C76.3825 41.2672 76.5292 41.8261 76.8227 42.2313C77.1161 42.6366 77.5702 42.8392 78.185 42.8392C78.8278 42.8392 79.4426 42.6296 80.0295 42.2104C80.6303 41.7772 81.1613 41.2462 81.6224 40.6175V33.1558L80.1552 32.9462V32.5271H83.7184V42.7553L85.1855 42.9649V43.3841H81.6224V41.372C81.1194 42.0707 80.5115 42.6156 79.7989 43.0068C79.1003 43.3981 78.3457 43.5937 77.5353 43.5937Z" fill="white"/>
<path d="M90.6106 43.5937C89.6884 43.5937 88.9478 43.3632 88.3889 42.902C87.8439 42.4409 87.5715 41.7074 87.5715 40.7013V33.1558L86.0833 32.9462V32.5271H87.5715V30.7874L89.6674 30.2634V32.5271H92.3922V32.9462L89.6674 33.1558V40.6594C89.6674 42.1405 90.1984 42.8811 91.2604 42.8811C91.4839 42.8811 91.6935 42.8462 91.8892 42.7763C92.0987 42.7064 92.2594 42.6366 92.3712 42.5667C92.497 42.4968 92.5738 42.4479 92.6018 42.42L92.8743 42.7553C92.2455 43.3143 91.4909 43.5937 90.6106 43.5937Z" fill="white"/>
<path d="M95.4456 49.5043C94.719 49.5043 94.1321 49.3227 93.685 48.9594C93.2378 48.5961 93.0143 48.107 93.0143 47.4922C93.0143 47.073 93.133 46.7307 93.3706 46.4652C93.6221 46.2137 93.9295 46.0879 94.2928 46.0879C94.5583 46.0879 94.7958 46.1438 95.0054 46.2556C95.215 46.3674 95.3827 46.535 95.5084 46.7586C95.2989 47.052 95.194 47.3595 95.194 47.6808C95.194 47.9603 95.2849 48.1908 95.4665 48.3725C95.6482 48.5541 95.8787 48.645 96.1582 48.645C96.4935 48.645 96.78 48.5332 97.0175 48.3096C97.2691 48.0861 97.4926 47.6948 97.6882 47.1359L98.9458 43.5308L94.0832 33.1768L92.6789 32.9672V32.548H97.8978V32.9672L96.4307 33.2187L99.9309 40.7013L102.425 33.4912L100.623 32.9672V32.548H104.395V32.9672L102.97 33.4912L98.2751 47.1359C97.9817 47.9603 97.6254 48.5611 97.2062 48.9384C96.8009 49.3157 96.2141 49.5043 95.4456 49.5043Z" fill="white"/>
</svg>
