<svg width="346" height="164" viewBox="0 0 346 164" fill="none" xmlns="http://www.w3.org/2000/svg">
<path d="M206.432 0.147972C205.252 0.530319 204.602 1.24621 204.39 2.39325C204.301 2.85695 204.26 2.93017 203.926 3.18236C202.779 4.05281 202.804 5.33002 203.991 6.56654C204.48 7.06278 206.009 8.24237 206.79 8.7142L207.254 8.9908L205.594 8.95825C203.121 8.90131 201.429 9.12096 199.631 9.72295C196.792 10.6748 194.701 12.4319 193.839 14.5796C193.701 14.9213 193.595 15.2223 193.595 15.2629C193.595 15.2955 193.448 15.507 193.261 15.7348C192.92 16.1659 192.505 16.7679 192.106 17.4431C191.87 17.8418 191.878 17.8336 192.635 17.1177L193.391 16.3937L193.44 17.1259C193.579 19.0213 194.311 20.5751 195.759 22.0069C197.695 23.9349 200.241 24.781 201.364 23.878C201.6 23.6909 201.608 23.6502 201.6 23.0807C201.6 22.5845 201.551 22.3893 201.356 21.9581C201.03 21.2585 200.762 20.9575 200.249 20.7053C199.68 20.4206 199.338 20.4287 199.037 20.7297C198.842 20.9249 198.801 21.0388 198.801 21.348C198.801 21.8035 198.964 22.1371 199.249 22.2672C199.525 22.3974 199.533 22.3893 199.533 22.2184C199.533 21.9906 199.623 21.9418 199.794 22.0964C200.095 22.3649 199.924 22.6903 199.468 22.6903C198.598 22.6903 197.605 21.5595 197.459 20.388C197.337 19.4281 197.768 18.2485 198.468 17.6302C198.671 17.4513 199.354 16.9632 199.981 16.5483C201.112 15.808 201.144 15.7673 202.495 14.2379C204.797 11.6103 206.123 10.6097 207.904 10.1541C208.97 9.88565 209.279 9.92633 210.524 10.5202C211.126 10.8049 211.882 11.1385 212.2 11.2686C212.525 11.3988 212.794 11.5289 212.794 11.5533C212.794 11.5778 212.452 11.5452 212.045 11.4883C210.898 11.3174 208.523 11.3174 207.628 11.4964C206.196 11.773 205.22 12.1391 204.333 12.7248C203.194 13.4814 202.625 14.3762 202.56 15.4989C202.519 16.3124 202.657 16.833 203.178 17.8499C204.032 19.485 205.513 20.445 206.448 19.965C206.814 19.7779 206.985 19.2247 206.879 18.5902C206.676 17.3943 205.732 16.1659 205.13 16.3286C204.951 16.3693 204.658 16.8005 204.658 17.0201C204.658 17.0933 204.781 17.2316 204.927 17.3211C205.293 17.5326 205.399 17.6465 205.35 17.736C205.252 17.8906 204.976 17.8011 204.658 17.5163C204.016 16.9388 203.959 16.0032 204.496 14.9213C205.488 12.8956 208.759 11.4313 211.614 11.716C212.395 11.7974 213.257 12.0089 213.339 12.1391C213.371 12.1879 213.314 12.2041 213.184 12.1716C213.07 12.1391 212.59 12.1553 212.126 12.196C209.483 12.4482 207.506 13.6359 206.855 15.3524C206.643 15.9056 206.603 16.8167 206.765 17.4838C207.18 19.184 208.506 20.7948 209.279 20.5263C209.596 20.4124 209.897 19.7698 209.93 19.1027C209.954 18.6553 209.93 18.4763 209.784 18.1672C209.474 17.5408 208.824 17.2723 208.628 17.6953C208.539 17.8824 208.555 17.9231 208.726 18.0614C208.897 18.1834 208.913 18.2322 208.84 18.3543C208.677 18.6227 208.458 18.5251 208.238 18.0939C208.059 17.736 208.035 17.5814 208.035 16.7923C208.035 15.808 208.14 15.3768 208.588 14.5226C209.149 13.4651 210.418 12.5702 211.687 12.3506C212.802 12.1635 214.136 12.3831 214.949 12.8875L215.275 13.0909L214.827 13.0339C214.583 12.9932 213.867 12.9688 213.241 12.9688C212.216 12.977 212.037 13.0014 211.451 13.2048C209.824 13.7661 208.97 14.7586 208.97 16.0764C208.97 16.9062 209.393 17.5326 210.085 17.7197C210.8 17.9231 211.606 17.134 211.817 16.0276C211.964 15.2629 211.663 14.7586 211.085 14.7748C210.426 14.8074 210.272 15.084 210.638 15.5639C210.874 15.8731 210.89 15.9626 210.727 16.0927C210.54 16.2473 210.288 16.0683 210.182 15.6941C210.052 15.2548 210.239 14.7586 210.727 14.3111C211.337 13.7498 211.777 13.6603 212.371 13.9776C212.728 14.1728 212.916 14.7179 212.623 14.7179C212.574 14.7179 212.549 14.6609 212.582 14.5959C212.655 14.4006 212.403 14.4494 212.265 14.6691C212.037 15.0189 212.403 15.5314 212.794 15.4094C213.038 15.3362 213.282 14.9701 213.282 14.6853C213.282 14.3193 213.021 13.9532 212.623 13.7661L212.281 13.6034L212.842 13.5464C213.77 13.4569 214.282 13.579 214.819 14.0345C214.99 14.1728 215.071 14.3193 215.071 14.4738C215.071 14.7342 214.884 14.9213 214.705 14.848C214.567 14.7992 214.534 14.4738 214.673 14.4738C214.713 14.4738 214.73 14.4332 214.705 14.3925C214.6 14.2216 214.242 14.3111 213.965 14.5877C213.729 14.8236 213.688 14.9213 213.688 15.2304C213.688 15.8568 214.25 16.3042 214.795 16.1008C215.616 15.7836 215.999 14.6609 215.519 13.9532C215.291 13.6197 215.258 13.6278 216.251 13.7417C220.896 14.2786 226.257 17.4431 228.641 21.0551C230.17 23.3736 231.122 25.7409 231.561 28.3767C231.765 29.5725 231.756 32.4361 231.553 33.754C230.886 38.0818 229.934 41.3521 228.502 44.2889L227.868 45.5905L226.745 46.7538C225.557 47.9903 224.215 49.1618 223.003 50.0241C222.255 50.5529 220.262 51.7487 220.213 51.6918C220.172 51.6511 220.587 51.0247 221.051 50.4308C221.278 50.138 221.767 49.4872 222.133 48.9909C222.751 48.1368 222.783 48.0717 222.621 48.0391C221.994 47.909 221.986 47.9171 221.181 48.4622C219.521 49.5848 216.113 52.2043 213.859 54.0835L212.924 54.8563L213.249 54.9946L213.566 55.1329L213.038 55.3688C212.745 55.499 212.427 55.6373 212.338 55.678C212.24 55.7268 211.785 56.2067 211.329 56.7518C210.687 57.5165 210.272 57.9232 209.499 58.5171C208.856 59.0133 208.344 59.4933 208.067 59.8431C207.188 60.9658 205.732 62.3243 202.324 65.1879C200.656 66.579 200.209 67.002 200.933 66.4651C201.12 66.3268 201.291 66.2292 201.307 66.2536C201.38 66.3268 200.623 67.246 199.818 68.0433C198.329 69.532 195.222 72.0539 193.961 72.786C193.757 72.908 194.734 71.8424 196.93 69.5483C202.055 64.1954 205.22 61.1366 208.645 58.2324C209.629 57.3945 210.394 56.6379 212.956 53.9777C213.859 53.0259 213.843 53.0422 211.98 54.5716C206.513 59.0866 203.398 62.0477 198.069 67.7992C194.669 71.46 194.14 72.0783 193.888 72.6152C193.798 72.7942 193.408 73.2172 192.944 73.6321L192.147 74.348L191.919 74.047C191.797 73.8843 191.65 73.6158 191.594 73.445C191.528 73.2741 191.219 72.7698 190.894 72.3142C190.577 71.8668 190.3 71.4437 190.292 71.3705C190.251 71.1021 189.812 70.5814 188.258 68.9463C186.159 66.7498 185.704 66.2454 185.753 66.1885C185.785 66.1641 183.027 63.6178 182.45 63.146C182.433 63.1297 182.458 63.0809 182.523 63.0483C182.71 62.9263 177.821 58.5741 175.242 56.5647C174.445 55.9464 173.737 55.3851 173.664 55.3282C173.338 55.0434 173.867 55.4095 174.925 56.1905C175.966 56.9552 176.064 57.0121 176.096 56.8413C176.129 56.6135 176.023 56.524 173.786 54.7994C171.646 53.1642 169.93 51.7731 169.011 50.9434C168.62 50.5935 168.124 50.1705 167.912 49.9916C167.4 49.5767 164.772 47.1443 163.511 45.9159C160.664 43.15 158.866 40.4003 157.272 36.3572C156.556 34.5593 155.482 31.2321 155.238 30.0932C154.904 28.5556 154.88 28.4987 154.921 29.4424C155.035 31.9073 155.669 34.5431 156.954 37.8784C158.647 42.2632 160.477 45.1349 163.763 48.5272C164.3 49.0804 164.707 49.536 164.675 49.536C164.585 49.536 162.608 47.8846 161.73 47.0711C161.282 46.6643 160.81 46.2332 160.672 46.1193C160.542 46.0054 160.485 45.9484 160.55 45.9972C160.713 46.103 160.672 46.0379 159.989 45.0536C158.451 42.8652 157.101 40.1237 156.182 37.3497C155.506 35.2996 154.88 32.6639 154.701 31.1507C154.603 30.3047 154.636 28.3441 154.766 27.5713C154.815 27.254 154.831 27.2378 154.872 27.4086C154.913 27.5713 154.937 27.5225 154.986 27.1645C155.417 24.0081 156.987 20.7948 159.281 18.338C161.152 16.3368 164.764 14.3762 168.335 13.4407C169.108 13.2373 169.247 13.221 171.223 13.221C172.753 13.221 173.566 13.2617 174.315 13.3593C178.854 13.9939 182.393 15.6534 185.264 18.5007C186.119 19.3467 187.201 20.746 187.591 21.4944C187.843 21.9906 187.835 21.8035 187.575 21.0714L187.331 20.3962L187.493 19.8674C187.583 19.5745 187.681 19.1352 187.705 18.8993C187.738 18.6553 187.786 18.46 187.827 18.46C187.86 18.46 188.307 18.7936 188.811 19.2003C190.593 20.6239 191.431 20.7622 191.032 19.5583C190.642 18.3949 189.389 16.8655 187.843 15.6616C187.534 15.4256 187.323 15.1897 187.29 15.0596C187.266 14.9375 187.062 14.4738 186.843 14.0264C184.386 8.95012 178.618 5.33002 171.532 4.41888C170.516 4.28873 170.475 4.29686 169.661 4.4677C167.977 4.8175 165.537 5.57407 164.024 6.21674C158.825 8.42947 154.481 11.716 150.56 16.4263C149.698 17.4594 148.201 19.3955 148.201 19.4688C148.201 19.5908 148.608 19.4932 148.86 19.3142C149.015 19.2003 149.926 18.3136 150.886 17.3374C152.7 15.507 154.01 14.3518 155.401 13.3593C156.222 12.7736 157.508 11.952 157.605 11.952C157.63 11.952 157.361 12.2611 156.995 12.6516C156.637 13.0339 156.092 13.6603 155.791 14.0508C155.49 14.4413 154.807 15.2141 154.262 15.7754C153.725 16.3368 153.033 17.1096 152.732 17.4838C152.138 18.2241 151.073 19.7779 150.674 20.4694C150.544 20.7053 150.398 20.9005 150.341 20.9005C150.194 20.9005 149.885 21.3398 149.511 22.0801C149.202 22.6821 148.982 23.2028 148.282 25.025C148.022 25.7246 147.916 25.8304 147.802 25.5213C147.754 25.3911 147.68 25.5701 147.485 26.3185C147.233 27.2703 146.899 29.0275 146.899 29.4098C146.899 29.7027 146.42 31.1426 146.216 31.4436C145.883 31.9561 145.517 31.8748 144.589 31.0775C144.288 30.8091 143.93 30.565 143.792 30.5406C143.027 30.3698 142.572 31.6795 142.458 34.3478C142.417 35.3728 142.433 35.804 142.498 35.9342C142.62 36.1619 142.71 36.1131 142.913 35.6982C143.003 35.5274 143.133 35.381 143.198 35.381C143.458 35.381 143.849 36.6094 143.955 37.7808C144.012 38.4398 144.028 38.4804 144.085 38.1876C144.369 36.6175 144.565 36.1782 144.971 36.1294C145.492 36.0643 145.98 37.0405 147.144 40.4654C147.599 41.8077 148.421 44.0204 148.958 45.3871C149.495 46.7538 150.219 48.7388 150.577 49.8044C151.292 51.9602 151.561 52.6843 151.992 53.5466C152.309 54.1648 152.919 55.2305 152.968 55.2305C152.985 55.2305 152.708 54.6692 152.35 53.9859C151.65 52.6355 151.268 51.7162 151.309 51.4559C151.325 51.342 151.504 51.5942 151.894 52.2612C152.423 53.1968 153.961 55.5397 154.311 55.9627C154.522 56.2149 154.245 55.7024 153.033 53.6035C152.008 51.8138 151.618 51.0572 151.146 49.9427C150.772 49.0479 150.446 48.0798 150.503 48.0229C150.52 48.0066 150.699 48.3645 150.894 48.8201C151.219 49.5767 151.284 49.6743 151.593 49.8451C151.862 49.9916 152.073 50.2356 152.545 50.9515C154.262 53.571 156.751 56.6949 160.81 61.3318C162.714 63.5039 163.43 64.2767 162.616 63.2843C161.445 61.8444 160.371 60.3231 159.379 58.7042C158.769 57.7117 158.663 57.4677 158.923 57.6873C158.996 57.7524 159.427 58.0371 159.875 58.3219C160.583 58.7693 160.981 59.1354 162.95 61.1203C165.163 63.3575 165.195 63.39 164.61 62.5928C163.56 61.1529 163.414 60.9414 163.414 60.8925C163.414 60.7217 164.292 61.3644 165.724 62.5765C166.619 63.3493 167.432 64.0327 167.522 64.0978C167.611 64.1628 166.985 63.4714 166.123 62.5521C163.894 60.1604 160.729 56.5728 160.729 56.4345C160.729 56.4101 160.876 56.4183 161.054 56.4508C161.315 56.4996 161.526 56.646 162.055 57.1504C163.479 58.509 165 59.8269 164.764 59.5015C164.585 59.2574 164.691 59.3306 165.163 59.7862L165.797 60.3963L164.919 59.3388C163.698 57.8744 163.674 57.8256 164.658 58.8506C165.13 59.3388 165.561 59.7374 165.61 59.7211C165.651 59.713 166.269 60.2661 166.977 60.9495C167.676 61.641 168.474 62.3487 168.75 62.5196C169.092 62.7392 169.686 63.3168 170.654 64.3825C171.435 65.2285 172.273 66.0746 172.517 66.2617C173.322 66.8474 174.258 67.3518 174.461 67.2948C174.624 67.2542 174.502 67.1077 173.404 65.9363C172.224 64.6916 172.078 64.5045 172.81 65.1472C172.989 65.3099 172.899 65.1797 172.606 64.8706C172.313 64.5533 171.947 64.1547 171.793 63.9757C171.541 63.6829 171.557 63.691 171.955 64.0571C172.2 64.2767 172.834 64.8787 173.355 65.3831C173.932 65.9444 174.339 66.2861 174.396 66.2536C174.551 66.1559 173.656 65.3018 170.491 62.487C167.676 59.9733 165.667 58.0941 166.424 58.6554C167.465 59.4445 170.41 61.9094 173.989 64.9926C176.487 67.1403 177.081 67.6365 177.081 67.5714C177.081 67.547 176.08 66.6034 174.86 65.4726C172.379 63.1622 169.995 60.8437 169.247 59.9977C168.62 59.2899 168.726 59.355 169.987 60.4207C171.492 61.6979 172.777 62.8775 175.779 65.7573C178.683 68.5477 179.098 68.9381 180.375 70.077C181.628 71.2078 180.904 70.3943 178.122 67.547C176.82 66.2048 175.511 64.8625 175.218 64.5452C174.762 64.0652 174.795 64.0896 175.445 64.7079C176.609 65.8224 180.53 69.8167 182.076 71.46C182.832 72.2654 184.256 73.6972 185.248 74.6408C186.233 75.5845 188.226 77.5288 189.674 78.9605L192.301 81.5719L193.416 80.5062C199.379 74.7954 206.066 69.1415 212.631 64.2686C214.209 63.089 214.185 63.1053 211.394 64.9194C210.239 65.6678 209.295 66.2536 209.295 66.2129C209.295 66.1803 209.8 65.6597 210.418 65.074C211.492 64.0327 212.68 62.9751 216.438 59.7048C218.399 58.0046 218.911 57.5409 218.732 57.6385C218.667 57.6711 218.065 58.0615 217.39 58.5008C216.422 59.1435 216.259 59.2249 216.617 58.9157C217.878 57.8012 220.384 55.621 220.888 55.1817C221.661 54.5065 224.215 51.887 225.151 50.8051C227.095 48.5435 228.738 45.9403 229.755 43.516C229.877 43.2232 230.203 42.6049 230.487 42.1331C231.187 40.9535 231.52 40.3434 231.48 40.3434C231.455 40.3434 231.358 40.4817 231.252 40.6444C230.886 41.2708 230.422 41.9704 230.398 41.9541C230.382 41.9378 230.52 41.4904 230.699 40.9535C231.561 38.3259 232.334 34.4698 232.472 32.1107C232.716 27.9211 231.626 24.0814 229.137 20.3799C228.275 19.0946 227.583 18.2729 226.306 16.9957C224.142 14.848 221.685 13.1478 218.781 11.7893C217.666 11.2686 217.186 11.1059 216.088 10.8944C214.974 10.6748 214.323 10.3087 213.892 9.65788C213.55 9.13723 213.526 8.61658 213.851 8.61658C214.071 8.61658 214.144 8.78742 213.981 8.90131C213.859 8.99893 213.859 9.00706 213.981 9.05588C214.209 9.14536 214.543 9.10468 214.73 8.97453C214.99 8.79556 214.982 8.23424 214.713 7.94137C214.429 7.63224 213.932 7.51022 213.509 7.63224C212.997 7.7868 212.712 8.12035 212.712 8.5515C212.72 9.16163 213.021 9.63347 213.851 10.325L214.054 10.4876L213.81 10.4388C212.094 10.0972 210.109 9.18604 209.344 8.38067C209.125 8.15289 209.125 8.13661 209.247 7.9007C209.442 7.51835 209.922 7.42886 210.142 7.72986C210.288 7.94137 210.231 8.10407 210.003 8.17729C209.841 8.2261 209.841 8.23424 209.995 8.34812C210.215 8.51083 211.045 8.45388 211.451 8.24237C212.07 7.9251 212.297 7.28243 212.029 6.63162C211.801 6.07844 211.02 5.68796 210.158 5.68796C209.409 5.68796 208.946 5.87506 208.433 6.38757L207.994 6.82687L207.75 6.40385C207.237 5.50899 206.725 3.90638 206.635 2.92204C206.595 2.43393 206.611 2.36885 206.806 2.13293C207.172 1.69363 207.799 1.70177 207.734 2.14107C207.717 2.27122 207.66 2.30376 207.489 2.2875C207.311 2.27122 207.254 2.30376 207.213 2.4746C207.148 2.73492 207.172 2.75933 207.571 2.81628C208.067 2.88136 208.759 2.64544 209.125 2.27937C209.548 1.85634 209.629 1.43331 209.369 0.969612C208.897 0.131706 207.612 -0.226242 206.432 0.147972ZM156.637 52.9934C157.63 54.1974 159.208 55.9139 160.876 57.6141C161.567 58.3219 162.112 58.9157 162.096 58.9401C162.014 59.0133 158.289 55.2875 157.532 54.3926C156.784 53.4978 156.019 52.4972 155.726 52.0172C155.498 51.6511 155.718 51.887 156.637 52.9934ZM185.159 65.7166C185.46 65.9526 185.696 66.1722 185.671 66.1885C185.631 66.2292 183.914 64.8462 183.914 64.773C183.914 64.7486 184.069 64.8543 184.264 65.0089C184.451 65.1553 184.858 65.4807 185.159 65.7166Z" fill="white"/>
<path d="M225.678 22.2672C226.499 23.8861 227.028 26.1476 227.028 28.0106C227.028 29.5562 226.825 30.866 226.247 33.0218C226.092 33.6238 225.962 34.2258 225.962 34.364C225.962 34.4942 225.905 34.9335 225.84 35.3321C225.775 35.7226 225.734 36.0643 225.751 36.0887C225.775 36.105 225.832 35.869 225.889 35.568C225.946 35.267 226.182 34.2664 226.426 33.3472C226.906 31.4924 227.353 28.9542 227.353 28.0431C227.353 27.7177 227.296 27.075 227.231 26.6195C227.166 26.1639 227.117 25.6026 227.117 25.3585C227.126 24.7403 226.784 23.9105 225.954 22.5031C225.555 21.8442 225.385 21.6977 225.678 22.2672Z" fill="white"/>
<path d="M234.069 25.6922C234.451 28.8405 234.207 31.4518 233.206 35.0475C233.027 35.6902 232.897 36.2352 232.913 36.2515C232.93 36.2678 233.06 35.8854 233.198 35.4055C233.93 32.8592 234.239 31.1671 234.329 29.1577C234.378 28.1409 234.394 27.9944 234.459 28.3036C234.573 28.9137 234.459 31.8098 234.28 32.7778C233.654 36.1458 232.165 40.5143 230.57 43.687C230.408 43.9961 230.294 44.2483 230.318 44.2483C230.335 44.2483 230.53 43.9636 230.758 43.6138C232.311 41.222 233.467 38.1714 234.345 34.112C234.573 33.0626 234.622 32.6395 234.711 31.0695C234.784 29.7109 234.483 26.8962 234.15 25.741L234.028 25.3343L234.069 25.6922Z" fill="white"/>
<path d="M225.542 35.4464C225.412 35.8368 225.184 36.4877 225.029 36.9025C224.875 37.3256 224.777 37.6998 224.802 37.7811C224.875 37.952 225.103 37.3418 225.534 35.8938C225.875 34.7305 225.875 34.4051 225.542 35.4464Z" fill="white"/>
<path d="M234.368 34.8769C234.303 35.6091 233.49 38.7086 232.969 40.2217C232.294 42.1741 231.049 44.8831 230.122 46.4043C229.935 46.7135 229.764 46.9982 229.739 47.0307C229.723 47.0714 229.723 47.0958 229.748 47.0958C229.772 47.0958 230.122 46.5915 230.528 45.9732C231.366 44.7122 232.432 42.6459 233.002 41.1898C233.579 39.6929 234.588 36.569 234.515 36.5202C234.474 36.4958 234.425 36.0728 234.409 35.5847C234.401 35.0885 234.376 34.7712 234.368 34.8769Z" fill="white"/>
<path d="M235.099 36.2191C234.904 36.4224 234.774 36.7234 234.505 37.5776C234.318 38.1796 234.066 38.9443 233.928 39.2779C233.537 40.2703 233.732 40.0181 234.18 38.9443C234.538 38.0983 234.652 37.9274 234.464 38.5294C234.432 38.6433 234.432 38.6515 234.497 38.5538C234.603 38.3911 235.416 36.0157 235.384 35.9831C235.367 35.9669 235.237 36.0726 235.099 36.2191Z" fill="white"/>
<path d="M220.19 43.6294C219.189 44.9961 218.075 46.2245 215.488 48.8033C213.755 50.528 213.202 51.1137 213.795 50.593C214.284 50.17 214.853 49.6575 215.065 49.4541C215.276 49.2507 215.837 48.7464 216.317 48.3233C217.741 47.0787 219.75 44.8903 220.743 43.4993C220.987 43.1494 220.995 43.125 220.865 43.0111C220.735 42.8973 220.686 42.9461 220.19 43.6294Z" fill="white"/>
<path d="M221.391 43.2887C220.74 44.1998 220.528 44.509 220.764 44.2487C221.065 43.907 221.684 43.0284 221.627 43.0284C221.602 43.0284 221.496 43.1504 221.391 43.2887Z" fill="white"/>
<path d="M232.384 45.3871C232.132 45.7857 231.936 46.1193 231.953 46.1193C232.001 46.1193 232.603 45.2244 232.758 44.9153C232.994 44.4516 232.847 44.6387 232.384 45.3871Z" fill="white"/>
<path d="M231.96 46.4126C231.691 46.8031 231.146 47.4701 229.869 49.0077L229.527 49.4144L229.926 49.0077C231.211 47.6898 231.87 46.9251 232.09 46.4939C232.22 46.2336 232.318 46.0058 232.301 45.9977C232.285 45.9814 232.131 46.1685 231.96 46.4126Z" fill="white"/>
<path d="M231.074 48.0151C230.594 48.6659 230.578 48.7066 230.912 48.3243C231.245 47.9582 231.725 47.2586 231.652 47.2586C231.636 47.2586 231.375 47.6003 231.074 48.0151Z" fill="white"/>
<path d="M229.267 52.3592C228.022 53.6608 226.013 55.5156 224.378 56.8986C223.117 57.9561 222.865 58.1921 223.41 57.8097C225.053 56.6464 227.485 54.4743 228.974 52.8392C229.999 51.7165 230.487 51.1552 230.43 51.1715C230.422 51.1715 229.893 51.7084 229.267 52.3592Z" fill="white"/>
<path d="M165.766 60.0058C165.937 60.2498 167.076 61.3643 167.401 61.6165C167.515 61.706 167.165 61.3236 166.628 60.7786C166.091 60.2335 165.644 59.7861 165.628 59.7861C165.611 59.7861 165.676 59.8837 165.766 60.0058Z" fill="white"/>
<path d="M185.867 66.2449C185.867 66.2612 185.932 66.3263 186.014 66.3832C186.136 66.489 186.144 66.4808 186.038 66.3507C185.932 66.2205 185.867 66.1798 185.867 66.2449Z" fill="white"/>
<path d="M172.036 68.9787C172.776 69.8004 172.882 69.8736 172.402 69.2146C172.085 68.7916 171.613 68.3279 171.483 68.3279C171.466 68.3279 171.71 68.6208 172.036 68.9787Z" fill="white"/>
<path d="M195.824 81.1975L195.67 81.3846L195.857 81.2301C196.028 81.0836 196.077 81.0186 196.012 81.0186C195.995 81.0186 195.914 81.0999 195.824 81.1975Z" fill="white"/>
<path d="M247.729 2.17287C247.394 2.28164 247.208 2.48527 247.148 2.81156C247.123 2.94346 247.111 2.96429 247.016 3.03602C246.69 3.28363 246.697 3.64694 247.035 3.99868C247.174 4.13984 247.609 4.47538 247.831 4.6096L247.963 4.68828L247.491 4.67902C246.787 4.66282 246.306 4.7253 245.795 4.89654C244.987 5.16729 244.392 5.66713 244.147 6.27805C244.108 6.37524 244.078 6.46086 244.078 6.47243C244.078 6.48169 244.036 6.54185 243.983 6.60665C243.885 6.72929 243.767 6.90053 243.654 7.0926C243.587 7.20599 243.589 7.20368 243.804 7.00004L244.02 6.79409L244.034 7.00235C244.073 7.54153 244.281 7.98352 244.693 8.3908C245.244 8.93924 245.968 9.1799 246.287 8.92304C246.355 8.86981 246.357 8.85824 246.355 8.69626C246.355 8.5551 246.341 8.49956 246.285 8.37691C246.193 8.1779 246.116 8.09228 245.97 8.02055C245.808 7.93955 245.711 7.94187 245.626 8.02749C245.57 8.08303 245.559 8.11542 245.559 8.20336C245.559 8.33295 245.605 8.42782 245.686 8.46485C245.764 8.50187 245.767 8.49956 245.767 8.45097C245.767 8.38617 245.792 8.37229 245.841 8.41625C245.926 8.49262 245.878 8.58518 245.748 8.58518C245.501 8.58518 245.218 8.26353 245.177 7.9303C245.142 7.65724 245.265 7.3217 245.464 7.14583C245.521 7.09492 245.716 6.95607 245.894 6.83805C246.216 6.62747 246.225 6.6159 246.609 6.18085C247.264 5.43341 247.641 5.14878 248.148 5.01919C248.451 4.94282 248.539 4.9544 248.893 5.12332C249.064 5.20432 249.28 5.29919 249.37 5.33622C249.462 5.37324 249.539 5.41027 249.539 5.41721C249.539 5.42415 249.442 5.4149 249.326 5.3987C249 5.3501 248.324 5.3501 248.069 5.40101C247.662 5.47969 247.384 5.58382 247.132 5.75044C246.808 5.96565 246.646 6.22019 246.628 6.53954C246.616 6.77094 246.655 6.91905 246.803 7.20831C247.046 7.67344 247.468 7.9465 247.734 7.80997C247.838 7.75674 247.886 7.59938 247.856 7.41889C247.799 7.07872 247.53 6.72929 247.359 6.77557C247.308 6.78714 247.225 6.90979 247.225 6.97227C247.225 6.9931 247.259 7.03244 247.301 7.05789C247.405 7.11806 247.435 7.15045 247.421 7.17591C247.394 7.21988 247.315 7.19442 247.225 7.11343C247.042 6.94913 247.026 6.68301 247.178 6.37524C247.461 5.79903 248.391 5.3825 249.203 5.46349C249.425 5.48663 249.671 5.5468 249.694 5.58382C249.703 5.59771 249.687 5.60234 249.65 5.59308C249.617 5.58382 249.481 5.58845 249.349 5.60002C248.597 5.67176 248.035 6.00961 247.849 6.49788C247.789 6.65524 247.778 6.91442 247.824 7.10417C247.942 7.58781 248.319 8.046 248.539 7.96964C248.629 7.93724 248.715 7.75443 248.724 7.56467C248.731 7.4374 248.724 7.38649 248.683 7.29856C248.595 7.12037 248.409 7.04401 248.354 7.16434C248.328 7.21756 248.333 7.22913 248.382 7.26847C248.43 7.30318 248.435 7.31707 248.414 7.35178C248.368 7.42814 248.305 7.40037 248.243 7.27773C248.192 7.17591 248.185 7.13194 248.185 6.90748C248.185 6.62747 248.215 6.50483 248.342 6.26185C248.502 5.96102 248.863 5.70647 249.224 5.64399C249.541 5.59076 249.921 5.65325 250.152 5.79672L250.245 5.85457L250.117 5.83837C250.048 5.8268 249.844 5.81986 249.666 5.81986C249.374 5.82217 249.324 5.82911 249.157 5.88697C248.694 6.04664 248.451 6.32896 248.451 6.70384C248.451 6.93987 248.571 7.11806 248.768 7.17128C248.972 7.22913 249.201 7.00467 249.261 6.68995C249.303 6.47243 249.217 6.32896 249.053 6.33358C248.865 6.34284 248.821 6.42152 248.925 6.55805C248.993 6.64598 248.997 6.67144 248.951 6.70847C248.898 6.75243 248.826 6.70152 248.796 6.59508C248.759 6.47012 248.812 6.32896 248.951 6.20168C249.125 6.04201 249.249 6.01656 249.418 6.10681C249.52 6.16234 249.573 6.31739 249.49 6.31739C249.476 6.31739 249.469 6.30119 249.479 6.28267C249.499 6.22714 249.428 6.24102 249.388 6.3035C249.324 6.40301 249.428 6.54879 249.539 6.51408C249.608 6.49326 249.678 6.38912 249.678 6.30813C249.678 6.204 249.604 6.09986 249.49 6.04664L249.393 6.00036L249.553 5.98416C249.816 5.9587 249.962 5.99342 250.115 6.123C250.164 6.16234 250.187 6.204 250.187 6.24796C250.187 6.32201 250.133 6.37524 250.083 6.35441C250.043 6.34053 250.034 6.24796 250.073 6.24796C250.085 6.24796 250.089 6.23639 250.083 6.22482C250.052 6.17623 249.951 6.20168 249.872 6.28036C249.805 6.34747 249.793 6.37524 249.793 6.46317C249.793 6.64136 249.953 6.76863 250.108 6.71078C250.342 6.62053 250.45 6.30119 250.314 6.09986C250.249 6.00499 250.24 6.0073 250.522 6.0397C251.844 6.19243 253.369 7.0926 254.047 8.12005C254.482 8.77956 254.752 9.45296 254.877 10.2027C254.935 10.5429 254.933 11.3574 254.875 11.7323C254.685 12.9634 254.414 13.8937 254.007 14.7291L253.827 15.0993L253.507 15.4302C253.17 15.782 252.788 16.1152 252.443 16.3605C252.23 16.5109 251.663 16.8511 251.649 16.8349C251.638 16.8233 251.756 16.6451 251.888 16.4762C251.952 16.3929 252.091 16.2078 252.195 16.0666C252.371 15.8236 252.38 15.8051 252.334 15.7958C252.156 15.7588 252.154 15.7611 251.925 15.9162C251.452 16.2355 250.483 16.9807 249.842 17.5152L249.576 17.735L249.668 17.7744L249.759 17.8137L249.608 17.8808C249.525 17.9179 249.435 17.9572 249.409 17.9688C249.381 17.9826 249.252 18.1192 249.122 18.2742C248.939 18.4917 248.821 18.6075 248.602 18.7764C248.419 18.9175 248.273 19.0541 248.194 19.1536C247.944 19.4729 247.53 19.8594 246.561 20.6739C246.086 21.0696 245.959 21.19 246.165 21.0372C246.218 20.9979 246.267 20.9701 246.271 20.9771C246.292 20.9979 246.077 21.2594 245.848 21.4862C245.424 21.9096 244.54 22.627 244.182 22.8353C244.124 22.87 244.401 22.5668 245.026 21.9143C246.484 20.3916 247.384 19.5215 248.359 18.6954C248.639 18.457 248.856 18.2418 249.585 17.4851C249.842 17.2144 249.837 17.219 249.307 17.6541C247.752 18.9384 246.866 19.7807 245.35 21.4167C244.383 22.4581 244.233 22.6339 244.161 22.7867C244.135 22.8376 244.024 22.9579 243.892 23.0759L243.666 23.2796L243.601 23.194C243.566 23.1477 243.524 23.0713 243.508 23.0227C243.49 22.9741 243.402 22.8306 243.309 22.7011C243.219 22.5738 243.14 22.4534 243.138 22.4326C243.126 22.3563 243.001 22.2082 242.559 21.743C241.962 21.1182 241.833 20.9748 241.847 20.9586C241.856 20.9516 241.072 20.2273 240.907 20.0931C240.903 20.0885 240.91 20.0746 240.928 20.0653C240.981 20.0306 239.591 18.7926 238.857 18.221C238.63 18.0451 238.429 17.8855 238.408 17.8693C238.315 17.7883 238.466 17.8924 238.767 18.1146C239.063 18.3321 239.091 18.3483 239.1 18.2997C239.109 18.2349 239.079 18.2094 238.443 17.7188C237.834 17.2537 237.346 16.858 237.084 16.622C236.973 16.5225 236.832 16.4021 236.772 16.3512C236.626 16.2332 235.879 15.5413 235.52 15.1919C234.71 14.4051 234.199 13.6229 233.745 12.4728C233.542 11.9614 233.236 11.015 233.167 10.691C233.072 10.2536 233.065 10.2374 233.076 10.5059C233.109 11.207 233.289 11.9568 233.655 12.9056C234.136 14.1529 234.657 14.9697 235.592 15.9347C235.745 16.092 235.86 16.2216 235.851 16.2216C235.826 16.2216 235.263 15.7519 235.013 15.5205C234.886 15.4048 234.752 15.2821 234.712 15.2497C234.675 15.2173 234.659 15.2011 234.678 15.215C234.724 15.2451 234.712 15.2266 234.518 14.9466C234.081 14.3241 233.697 13.5442 233.435 12.7551C233.243 12.172 233.065 11.4222 233.014 10.9918C232.986 10.7512 232.995 10.1935 233.032 9.97363C233.046 9.88338 233.051 9.87875 233.062 9.92735C233.074 9.97363 233.081 9.95974 233.095 9.85792C233.218 8.96006 233.664 8.046 234.317 7.34715C234.849 6.77789 235.876 6.22019 236.892 5.95408C237.112 5.89622 237.151 5.8916 237.714 5.8916C238.149 5.8916 238.38 5.90317 238.593 5.93093C239.884 6.11143 240.891 6.58351 241.708 7.39343C241.951 7.6341 242.259 8.03212 242.37 8.24501C242.441 8.38617 242.439 8.33295 242.365 8.12468L242.296 7.93261L242.342 7.7822C242.367 7.69889 242.395 7.57393 242.402 7.50682C242.411 7.4374 242.425 7.38186 242.437 7.38186C242.446 7.38186 242.573 7.47674 242.717 7.59244C243.224 7.99741 243.462 8.03675 243.349 7.69426C243.237 7.36335 242.881 6.9283 242.441 6.58582C242.354 6.51871 242.293 6.4516 242.284 6.41458C242.277 6.37987 242.219 6.24796 242.157 6.12069C241.458 4.6767 239.817 3.64694 237.802 3.38776C237.512 3.35074 237.501 3.35305 237.269 3.40165C236.79 3.50115 236.096 3.71636 235.666 3.89918C234.187 4.5286 232.951 5.46349 231.836 6.80334C231.591 7.09723 231.165 7.64798 231.165 7.66881C231.165 7.70352 231.281 7.67575 231.352 7.62484C231.396 7.59244 231.656 7.34021 231.929 7.06252C232.445 6.54185 232.817 6.21325 233.213 5.93093C233.447 5.76432 233.812 5.5306 233.84 5.5306C233.847 5.5306 233.771 5.61853 233.666 5.72961C233.565 5.83837 233.41 6.01656 233.324 6.12763C233.238 6.23871 233.044 6.45855 232.889 6.61822C232.736 6.77789 232.54 6.99772 232.454 7.10417C232.285 7.31475 231.982 7.75674 231.868 7.95344C231.831 8.02055 231.79 8.07608 231.774 8.07608C231.732 8.07608 231.644 8.20104 231.538 8.41163C231.45 8.58287 231.387 8.73097 231.188 9.24932C231.114 9.44833 231.084 9.47842 231.052 9.39048C231.038 9.35346 231.017 9.40436 230.961 9.61726C230.89 9.88801 230.795 10.3878 230.795 10.4966C230.795 10.5799 230.658 10.9895 230.6 11.0751C230.505 11.2209 230.401 11.1978 230.137 10.971C230.052 10.8946 229.95 10.8252 229.911 10.8183C229.693 10.7697 229.564 11.1422 229.531 11.9013C229.52 12.1928 229.524 12.3155 229.543 12.3525C229.577 12.4173 229.603 12.4034 229.661 12.2854C229.686 12.2368 229.723 12.1951 229.742 12.1951C229.816 12.1951 229.927 12.5446 229.957 12.8778C229.973 13.0652 229.978 13.0768 229.994 12.9935C230.075 12.5469 230.131 12.4219 230.246 12.408C230.394 12.3895 230.533 12.6672 230.864 13.6414C230.994 14.0233 231.227 14.6527 231.38 15.0415C231.533 15.4302 231.739 15.9949 231.841 16.298C232.044 16.9112 232.121 17.1172 232.243 17.3625C232.334 17.5383 232.507 17.8415 232.521 17.8415C232.526 17.8415 232.447 17.6818 232.345 17.4874C232.146 17.1033 232.037 16.8418 232.049 16.7678C232.054 16.7354 232.104 16.8071 232.216 16.9969C232.366 17.263 232.803 17.9294 232.903 18.0498C232.963 18.1215 232.884 17.9757 232.54 17.3787C232.248 16.8696 232.137 16.6544 232.003 16.3373C231.896 16.0828 231.804 15.8074 231.82 15.7912C231.824 15.7866 231.875 15.8884 231.931 16.018C232.023 16.2332 232.042 16.261 232.13 16.3096C232.206 16.3512 232.266 16.4206 232.401 16.6243C232.889 17.3694 233.597 18.258 234.752 19.577C235.293 20.1949 235.497 20.4147 235.265 20.1324C234.932 19.7228 234.627 19.2901 234.344 18.8296C234.171 18.5473 234.141 18.4779 234.215 18.5403C234.236 18.5589 234.358 18.6398 234.486 18.7208C234.687 18.8481 234.8 18.9522 235.36 19.5169C235.99 20.1533 235.999 20.1625 235.832 19.9357C235.534 19.5261 235.492 19.466 235.492 19.4521C235.492 19.4035 235.742 19.5863 236.149 19.9311C236.404 20.1509 236.635 20.3453 236.661 20.3638C236.686 20.3823 236.508 20.1857 236.263 19.9242C235.629 19.2438 234.729 18.2233 234.729 18.184C234.729 18.177 234.77 18.1793 234.821 18.1886C234.895 18.2025 234.955 18.2441 235.106 18.3876C235.511 18.7741 235.944 19.1489 235.876 19.0564C235.826 18.987 235.856 19.0078 235.99 19.1374L236.17 19.3109L235.92 19.0101C235.573 18.5936 235.566 18.5797 235.846 18.8713C235.981 19.0101 236.103 19.1235 236.117 19.1189C236.129 19.1165 236.305 19.2739 236.506 19.4683C236.705 19.665 236.932 19.8663 237.01 19.9149C237.107 19.9774 237.276 20.1417 237.552 20.4448C237.774 20.6855 238.012 20.9262 238.082 20.9794C238.311 21.146 238.577 21.2895 238.635 21.2733C238.681 21.2617 238.646 21.22 238.334 20.8868C237.998 20.5328 237.957 20.4795 238.165 20.6624C238.216 20.7086 238.19 20.6716 238.107 20.5837C238.024 20.4934 237.92 20.38 237.876 20.3291C237.804 20.2458 237.809 20.2481 237.922 20.3523C237.991 20.4147 238.172 20.586 238.32 20.7295C238.484 20.8891 238.6 20.9863 238.616 20.9771C238.66 20.9493 238.406 20.7063 237.506 19.9056C236.705 19.1906 236.133 18.656 236.348 18.8157C236.645 19.0402 237.482 19.7413 238.501 20.6184C239.211 21.2293 239.38 21.3705 239.38 21.3519C239.38 21.345 239.095 21.0766 238.748 20.7549C238.042 20.0977 237.364 19.4382 237.151 19.1975C236.973 18.9962 237.003 19.0147 237.362 19.3179C237.79 19.6812 238.156 20.0167 239.01 20.8359C239.836 21.6296 239.954 21.7407 240.317 22.0647C240.673 22.3863 240.468 22.1549 239.676 21.345C239.306 20.9632 238.933 20.5814 238.85 20.4911C238.72 20.3546 238.73 20.3615 238.915 20.5374C239.246 20.8544 240.361 21.9906 240.801 22.4581C241.016 22.6872 241.421 23.0944 241.703 23.3629C241.983 23.6313 242.55 24.1844 242.962 24.5917L243.71 25.3345L244.027 25.0313C245.723 23.4068 247.625 21.7986 249.492 20.4124C249.941 20.0769 249.934 20.0815 249.141 20.5976C248.812 20.8105 248.544 20.9771 248.544 20.9655C248.544 20.9562 248.687 20.8081 248.863 20.6415C249.168 20.3453 249.506 20.0445 250.575 19.1142C251.133 18.6306 251.279 18.4987 251.228 18.5265C251.209 18.5357 251.038 18.6468 250.846 18.7717C250.571 18.9546 250.525 18.9777 250.626 18.8898C250.985 18.5727 251.698 17.9526 251.841 17.8276C252.061 17.6355 252.788 16.8904 253.054 16.5826C253.607 15.9393 254.074 15.1988 254.364 14.5092C254.398 14.4259 254.491 14.25 254.572 14.1158C254.771 13.7803 254.866 13.6067 254.854 13.6067C254.847 13.6067 254.819 13.6461 254.789 13.6924C254.685 13.8705 254.553 14.0695 254.546 14.0649C254.542 14.0603 254.581 13.933 254.632 13.7803C254.877 13.0328 255.097 11.936 255.136 11.2649C255.206 10.0731 254.896 8.98089 254.188 7.92798C253.942 7.56236 253.746 7.32864 253.382 6.96533C252.767 6.35441 252.068 5.87077 251.242 5.48432C250.925 5.33622 250.788 5.28994 250.476 5.22977C250.159 5.16729 249.974 5.06316 249.851 4.87803C249.754 4.72993 249.747 4.58183 249.84 4.58183C249.902 4.58183 249.923 4.63042 249.877 4.66282C249.842 4.69059 249.842 4.6929 249.877 4.70679C249.941 4.73224 250.036 4.72067 250.089 4.68365C250.164 4.63274 250.161 4.47307 250.085 4.38976C250.004 4.30182 249.863 4.26711 249.742 4.30182C249.597 4.34579 249.516 4.44067 249.516 4.56332C249.518 4.73687 249.604 4.87109 249.84 5.06779L249.897 5.11407L249.828 5.10018C249.34 5.00299 248.775 4.74381 248.558 4.51472C248.495 4.44993 248.495 4.4453 248.53 4.37819C248.585 4.26943 248.722 4.24397 248.784 4.32959C248.826 4.38976 248.81 4.43604 248.745 4.45687C248.699 4.47075 248.699 4.47307 248.743 4.50546C248.805 4.55174 249.041 4.53555 249.157 4.47538C249.333 4.38513 249.398 4.20232 249.321 4.01719C249.256 3.85984 249.034 3.74876 248.789 3.74876C248.576 3.74876 248.444 3.80198 248.298 3.94777L248.173 4.07273L248.104 3.9524C247.958 3.69785 247.812 3.24198 247.787 2.96197C247.775 2.82313 247.78 2.80462 247.836 2.73751C247.94 2.61255 248.118 2.61486 248.099 2.73982C248.095 2.77685 248.079 2.7861 248.03 2.78148C247.979 2.77685 247.963 2.7861 247.951 2.8347C247.933 2.90875 247.94 2.91569 248.053 2.93189C248.194 2.9504 248.391 2.8833 248.495 2.77916C248.615 2.65883 248.639 2.5385 248.564 2.4066C248.43 2.16825 248.065 2.06643 247.729 2.17287ZM233.565 17.2051C233.847 17.5476 234.296 18.0359 234.77 18.5195C234.967 18.7208 235.122 18.8898 235.117 18.8967C235.094 18.9175 234.034 17.8577 233.819 17.6031C233.606 17.3486 233.389 17.064 233.305 16.9274C233.241 16.8233 233.303 16.8904 233.565 17.2051ZM241.678 20.8243C241.763 20.8914 241.831 20.9539 241.824 20.9586C241.812 20.9701 241.324 20.5767 241.324 20.5559C241.324 20.549 241.368 20.579 241.423 20.623C241.476 20.6647 241.592 20.7572 241.678 20.8243Z" fill="#EDB9B9"/>
<path d="M253.203 8.46513C253.436 8.92563 253.587 9.56894 253.587 10.0989C253.587 10.5385 253.529 10.9111 253.365 11.5243C253.321 11.6956 253.284 11.8668 253.284 11.9062C253.284 11.9432 253.267 12.0681 253.249 12.1815C253.23 12.2926 253.219 12.3898 253.223 12.3967C253.23 12.4014 253.246 12.3343 253.263 12.2486C253.279 12.163 253.346 11.8784 253.415 11.6169C253.552 11.0893 253.679 10.3673 253.679 10.1081C253.679 10.0156 253.663 9.83275 253.645 9.70316C253.626 9.57357 253.612 9.4139 253.612 9.34448C253.614 9.16861 253.517 8.93257 253.281 8.53224C253.168 8.3448 253.119 8.30314 253.203 8.46513Z" fill="#EDB9B9"/>
<path d="M255.591 9.43851C255.7 10.3341 255.631 11.0769 255.346 12.0997C255.295 12.2825 255.258 12.4376 255.263 12.4422C255.267 12.4468 255.304 12.338 255.344 12.2015C255.552 11.4772 255.64 10.9959 255.665 10.4243C255.679 10.135 255.684 10.0934 255.702 10.1813C255.735 10.3549 255.702 11.1787 255.651 11.4541C255.473 12.4121 255.05 13.6548 254.596 14.5572C254.55 14.6452 254.517 14.7169 254.524 14.7169C254.529 14.7169 254.585 14.6359 254.649 14.5364C255.091 13.8561 255.42 12.9883 255.67 11.8336C255.735 11.5351 255.749 11.4147 255.774 10.9681C255.795 10.5817 255.709 9.78099 255.614 9.45239L255.58 9.33669L255.591 9.43851Z" fill="#EDB9B9"/>
<path d="M253.165 12.2137C253.128 12.3247 253.063 12.5099 253.019 12.6279C252.976 12.7482 252.948 12.8546 252.955 12.8778C252.976 12.9264 253.04 12.7528 253.163 12.3409C253.26 12.01 253.26 11.9174 253.165 12.2137Z" fill="#EDB9B9"/>
<path d="M255.677 12.0515C255.659 12.2597 255.427 13.1414 255.279 13.5718C255.087 14.1272 254.733 14.8978 254.469 15.3305C254.416 15.4185 254.368 15.4995 254.361 15.5087C254.356 15.5203 254.356 15.5272 254.363 15.5272C254.37 15.5272 254.469 15.3837 254.585 15.2079C254.823 14.8492 255.127 14.2614 255.289 13.8472C255.453 13.4214 255.74 12.5328 255.719 12.5189C255.707 12.512 255.694 12.3916 255.689 12.2528C255.687 12.1116 255.68 12.0214 255.677 12.0515Z" fill="#EDB9B9"/>
<path d="M255.885 12.4336C255.829 12.4915 255.792 12.5771 255.716 12.8201C255.662 12.9913 255.591 13.2088 255.551 13.3037C255.44 13.586 255.496 13.5143 255.623 13.2088C255.725 12.9682 255.757 12.9196 255.704 13.0908C255.695 13.1232 255.695 13.1255 255.713 13.0978C255.743 13.0515 255.975 12.3758 255.966 12.3665C255.961 12.3619 255.924 12.392 255.885 12.4336Z" fill="#EDB9B9"/>
<path d="M251.642 14.5413C251.357 14.9301 251.04 15.2795 250.305 16.0131C249.812 16.5037 249.654 16.6703 249.823 16.5222C249.962 16.4019 250.124 16.2561 250.184 16.1982C250.244 16.1404 250.404 15.9969 250.541 15.8766C250.946 15.5225 251.517 14.9 251.799 14.5043C251.869 14.4048 251.871 14.3979 251.834 14.3655C251.797 14.3331 251.783 14.347 251.642 14.5413Z" fill="#EDB9B9"/>
<path d="M251.986 14.4447C251.8 14.7039 251.74 14.7918 251.807 14.7178C251.893 14.6206 252.069 14.3707 252.053 14.3707C252.046 14.3707 252.016 14.4054 251.986 14.4447Z" fill="#EDB9B9"/>
<path d="M255.113 15.0412C255.041 15.1546 254.986 15.2495 254.991 15.2495C255.004 15.2495 255.176 14.995 255.22 14.907C255.287 14.7751 255.245 14.8283 255.113 15.0412Z" fill="#EDB9B9"/>
<path d="M254.991 15.333C254.914 15.4441 254.759 15.6338 254.396 16.0712L254.299 16.1869L254.412 16.0712C254.778 15.6963 254.965 15.4788 255.028 15.3561C255.065 15.2821 255.093 15.2173 255.088 15.215C255.083 15.2103 255.039 15.2636 254.991 15.333Z" fill="#EDB9B9"/>
<path d="M254.737 15.7888C254.601 15.9739 254.596 15.9855 254.691 15.8767C254.786 15.7726 254.923 15.5736 254.902 15.5736C254.897 15.5736 254.823 15.6708 254.737 15.7888Z" fill="#EDB9B9"/>
<path d="M254.224 17.0246C253.87 17.3949 253.298 17.9225 252.833 18.3159C252.474 18.6167 252.403 18.6838 252.558 18.575C253.025 18.2441 253.717 17.6263 254.141 17.1611C254.432 16.8418 254.571 16.6821 254.555 16.6868C254.552 16.6868 254.402 16.8395 254.224 17.0246Z" fill="#EDB9B9"/>
<path d="M236.161 19.2C236.21 19.2694 236.534 19.5864 236.626 19.6582C236.659 19.6836 236.559 19.5749 236.406 19.4198C236.254 19.2648 236.126 19.1375 236.122 19.1375C236.117 19.1375 236.136 19.1653 236.161 19.2Z" fill="#EDB9B9"/>
<path d="M241.878 20.9758C241.878 20.9803 241.896 20.9984 241.919 21.0142C241.952 21.0436 241.955 21.0413 241.925 21.0052C241.896 20.969 241.878 20.9577 241.878 20.9758Z" fill="#EDB9B9"/>
<path d="M237.945 21.7522C238.155 21.9859 238.185 22.0068 238.049 21.8193C237.959 21.699 237.824 21.5671 237.787 21.5671C237.783 21.5671 237.852 21.6504 237.945 21.7522Z" fill="#EDB9B9"/>
<path d="M244.712 25.2279L244.668 25.281L244.722 25.2371C244.77 25.1956 244.784 25.1771 244.765 25.1771C244.761 25.1771 244.738 25.2002 244.712 25.2279Z" fill="#EDB9B9"/>
<path d="M25.6017 144.231L5.5656 89.6883L0 88.7143V87.1838H20.384V88.7143L13.8444 89.5491L29.1498 131.222L44.1769 91.8449L36.1764 88.7143V87.1838H51.1339V88.7143L46.0553 91.7754L26.1583 144.231H25.6017Z" fill="white"/>
<path d="M40.4935 142.84V141.379L47.3114 138.596L67.4171 85.7924H68.5302L87.5228 140.335L93.9232 141.379V142.84H73.4697V141.379L79.1744 140.474L73.2609 123.986H54.7553L49.1202 138.596L55.3815 141.379V142.84H40.4935ZM55.3119 122.525H72.774L64.4256 98.0367L55.3119 122.525Z" fill="white"/>
<path d="M111.873 141.379L118.273 140.335V89.6883L111.873 88.7143V87.1838H133.092C138.101 87.1838 142.089 87.6476 145.058 88.5752C148.026 89.5028 150.183 90.9173 151.528 92.8189C152.873 94.6741 153.545 97.1323 153.545 100.193C153.545 106.872 149.325 111.139 140.883 112.994V113.342C146.032 114.038 150.02 115.568 152.85 117.934C155.725 120.299 157.163 123.592 157.163 127.813C157.163 132.914 155.284 136.694 151.528 139.153C147.817 141.611 142.785 142.84 136.431 142.84H111.873V141.379ZM133.648 112.785C137.359 112.785 140.211 111.742 142.205 109.655C144.2 107.568 145.197 104.599 145.197 100.75V100.332C145.197 92.7262 141.162 88.923 133.092 88.923H125.926V112.785H133.648ZM136.431 141.17C140.373 141.17 143.434 140.034 145.614 137.761C147.794 135.442 148.884 132.149 148.884 127.882V127.117C148.884 122.896 147.794 119.742 145.614 117.655C143.481 115.568 140.42 114.525 136.431 114.525H125.926V141.17H136.431Z" fill="white"/>
<path d="M182.286 143.535C178.854 143.535 175.746 142.77 172.963 141.24C170.181 139.663 167.978 137.46 166.354 134.63C164.731 131.801 163.919 128.531 163.919 124.821C163.919 121.111 164.708 117.864 166.285 115.081C167.908 112.252 170.065 110.072 172.755 108.542C175.491 106.965 178.529 106.176 181.868 106.176C184.79 106.176 187.411 106.826 189.73 108.124C192.049 109.423 193.858 111.232 195.156 113.551C196.455 115.823 197.127 118.444 197.174 121.412H171.572V128.3C171.572 132.381 172.476 135.697 174.285 138.248C176.14 140.753 178.807 142.005 182.286 142.005C185.486 142.005 188.315 141.1 190.773 139.292C193.231 137.483 194.739 135.141 195.295 132.265H196.895C196.246 135.697 194.6 138.434 191.956 140.474C189.312 142.515 186.089 143.535 182.286 143.535ZM189.521 119.673C189.521 115.638 188.895 112.646 187.643 110.698C186.39 108.704 184.442 107.707 181.799 107.707C178.691 107.707 176.28 108.797 174.563 110.977C172.847 113.157 171.873 116.055 171.642 119.673H189.521Z" fill="white"/>
<path d="M213.282 143.535C210.314 143.535 207.879 142.77 205.978 141.24C204.076 139.663 203.125 137.344 203.125 134.283C203.125 129.923 204.957 126.839 208.621 125.03C212.285 123.175 216.529 122.247 221.353 122.247H226.014V116.89C226.014 114.478 225.735 112.623 225.179 111.325C224.669 109.98 223.857 109.052 222.744 108.542C221.631 107.985 220.123 107.707 218.222 107.707C216.042 107.707 214.419 108.148 213.352 109.029C212.285 109.864 211.752 111 211.752 112.438C211.752 113.783 212.401 114.664 213.7 115.081C213.7 116.241 213.259 117.261 212.378 118.142C211.497 119.024 210.453 119.464 209.247 119.464C207.949 119.464 206.905 119.116 206.117 118.421C205.328 117.679 204.934 116.565 204.934 115.081C204.934 112.391 206.279 110.235 208.969 108.611C211.659 106.988 215.022 106.176 219.057 106.176C228.333 106.176 232.971 110.211 232.971 118.282V138.179C232.971 139.199 233.179 139.987 233.597 140.544C234.061 141.054 234.71 141.309 235.545 141.309C236.333 141.309 236.959 141.054 237.423 140.544C237.887 139.987 238.119 139.245 238.119 138.318H239.58C239.58 139.941 239.046 141.216 237.98 142.144C236.959 143.072 235.522 143.535 233.666 143.535C231.533 143.535 229.724 142.932 228.24 141.727C226.802 140.474 226.06 138.55 226.014 135.952C224.901 138.318 223.185 140.173 220.866 141.518C218.593 142.863 216.065 143.535 213.282 143.535ZM217.109 140.474C218.361 140.474 219.636 140.103 220.935 139.361C222.28 138.619 223.416 137.552 224.344 136.161C225.272 134.723 225.828 133.007 226.014 131.013V123.778H221.353C217.549 123.778 214.697 124.636 212.795 126.352C210.94 128.021 210.013 130.387 210.013 133.448C210.013 135.999 210.616 137.807 211.821 138.874C213.027 139.941 214.79 140.474 217.109 140.474Z" fill="white"/>
<path d="M256.234 143.535C252.894 143.535 250.251 142.701 248.303 141.031C246.401 139.361 245.45 136.88 245.45 133.587V108.89L240.58 108.194V106.802H252.407V133.448C252.407 135.813 252.894 137.668 253.868 139.013C254.842 140.358 256.35 141.031 258.39 141.031C260.524 141.031 262.565 140.335 264.513 138.944C266.507 137.506 268.269 135.744 269.8 133.656V108.89L264.93 108.194V106.802H276.757V140.753L281.627 141.448V142.84H269.8V136.161C268.13 138.48 266.113 140.289 263.747 141.587C261.428 142.886 258.924 143.535 256.234 143.535Z" fill="white"/>
<path d="M299.634 143.535C296.573 143.535 294.115 142.77 292.26 141.24C290.451 139.709 289.546 137.274 289.546 133.935V108.89L284.607 108.194V106.802H289.546V101.028L296.503 99.2889V106.802H305.547V108.194L296.503 108.89V133.796C296.503 138.712 298.266 141.17 301.791 141.17C302.533 141.17 303.228 141.054 303.878 140.822C304.573 140.59 305.107 140.358 305.478 140.126C305.895 139.895 306.15 139.732 306.243 139.639L307.147 140.753C305.06 142.608 302.556 143.535 299.634 143.535Z" fill="white"/>
<path d="M315.682 163.154C313.271 163.154 311.323 162.551 309.838 161.345C308.354 160.139 307.612 158.516 307.612 156.475C307.612 155.084 308.006 153.948 308.795 153.066C309.63 152.232 310.65 151.814 311.856 151.814C312.737 151.814 313.526 152 314.221 152.371C314.917 152.742 315.474 153.298 315.891 154.04C315.195 155.014 314.847 156.035 314.847 157.102C314.847 158.029 315.149 158.794 315.752 159.397C316.355 160 317.12 160.302 318.048 160.302C319.161 160.302 320.112 159.931 320.9 159.189C321.735 158.447 322.477 157.148 323.126 155.293L327.3 143.327L311.16 108.959L306.499 108.263V106.872H323.822V108.263L318.952 109.098L330.57 133.935L338.849 110.003L332.866 108.263V106.872H345.389V108.263L340.658 110.003L325.074 155.293C324.1 158.029 322.918 160.023 321.526 161.276C320.181 162.528 318.233 163.154 315.682 163.154Z" fill="white"/>
</svg>
