<svg width="105" height="50" viewBox="0 0 105 50" fill="none" xmlns="http://www.w3.org/2000/svg">
<path d="M62.1925 0.0445709C61.8371 0.159761 61.6411 0.375441 61.5773 0.721014C61.5504 0.860714 61.5381 0.882772 61.4376 0.95875C61.0921 1.22099 61.0994 1.60578 61.4573 1.97832C61.6043 2.12782 62.0651 2.4832 62.3004 2.62535L62.4401 2.70868L61.9401 2.69888C61.195 2.68172 60.6852 2.74789 60.1436 2.92926C59.2882 3.21601 58.6583 3.7454 58.3986 4.39243C58.3569 4.49537 58.325 4.58605 58.325 4.59831C58.325 4.60811 58.2809 4.67183 58.2245 4.74046C58.1216 4.87036 57.9966 5.05172 57.8765 5.25514C57.8054 5.37524 57.8079 5.37279 58.0358 5.15711L58.2638 4.93898L58.2785 5.15956C58.3201 5.73062 58.5407 6.19873 58.977 6.63009C59.5603 7.21095 60.3274 7.46584 60.6656 7.19379C60.7367 7.13742 60.7391 7.12517 60.7367 6.9536C60.7367 6.8041 60.722 6.74528 60.6632 6.61538C60.5651 6.40461 60.4843 6.31392 60.3298 6.23795C60.1583 6.15217 60.0553 6.15462 59.9647 6.2453C59.9058 6.30412 59.8936 6.33843 59.8936 6.43157C59.8936 6.56882 59.9426 6.6693 60.0284 6.70852C60.1117 6.74773 60.1142 6.74528 60.1142 6.69381C60.1142 6.62519 60.1411 6.61048 60.1926 6.65705C60.2833 6.73793 60.2318 6.83596 60.0946 6.83596C59.8323 6.83596 59.5333 6.49529 59.4892 6.14236C59.4524 5.85316 59.5823 5.49778 59.7931 5.31151C59.8544 5.2576 60.0603 5.11054 60.249 4.98555C60.5896 4.76252 60.5994 4.75026 61.0063 4.2895C61.6999 3.49786 62.0994 3.1964 62.6361 3.05915C62.9572 2.97828 63.0503 2.99053 63.4253 3.16945C63.6067 3.25522 63.8346 3.35571 63.9302 3.39493C64.0282 3.43414 64.1091 3.47335 64.1091 3.48071C64.1091 3.48806 64.0062 3.47826 63.8836 3.4611C63.538 3.40963 62.8224 3.40963 62.5528 3.46355C62.1214 3.54688 61.8273 3.65717 61.5602 3.83363C61.2171 4.06157 61.0455 4.33116 61.0259 4.66938C61.0136 4.91447 61.0553 5.07133 61.2122 5.37769C61.4695 5.87032 61.9156 6.15952 62.1974 6.01492C62.3077 5.95855 62.3592 5.79189 62.3273 5.60072C62.266 5.24044 61.9817 4.87036 61.8004 4.91937C61.7465 4.93163 61.6582 5.06153 61.6582 5.1277C61.6582 5.14976 61.695 5.19142 61.7391 5.21838C61.8494 5.2821 61.8813 5.31642 61.8666 5.34338C61.8371 5.38994 61.7538 5.36298 61.6582 5.2772C61.4646 5.10319 61.4475 4.82134 61.6092 4.49537C61.9082 3.8851 62.8935 3.44394 63.7537 3.52972C63.989 3.55423 64.2488 3.61796 64.2733 3.65717C64.2831 3.67188 64.266 3.67678 64.2267 3.66697C64.1924 3.65717 64.0478 3.66207 63.9081 3.67433C63.1116 3.7503 62.516 4.10813 62.32 4.62527C62.2562 4.79193 62.244 5.06643 62.293 5.2674C62.418 5.77963 62.8175 6.26491 63.0503 6.18403C63.1459 6.14972 63.2366 5.9561 63.2464 5.75512C63.2537 5.62033 63.2464 5.56641 63.2023 5.47327C63.1091 5.28456 62.9131 5.20368 62.8543 5.33112C62.8273 5.38749 62.8322 5.39975 62.8837 5.44141C62.9351 5.47817 62.94 5.49288 62.918 5.52964C62.869 5.61052 62.8028 5.58111 62.7366 5.45121C62.6827 5.34338 62.6753 5.29681 62.6753 5.05907C62.6753 4.76252 62.7072 4.63262 62.842 4.37528C63.0111 4.05666 63.3934 3.78707 63.7758 3.72089C64.1116 3.66452 64.5135 3.7307 64.7586 3.88265L64.8566 3.94392L64.7218 3.92677C64.6483 3.91451 64.4326 3.90716 64.2439 3.90716C63.9351 3.90961 63.8812 3.91696 63.7047 3.97824C63.2145 4.14735 62.9572 4.44635 62.9572 4.8434C62.9572 5.09339 63.0846 5.2821 63.293 5.33847C63.5086 5.39975 63.7513 5.16201 63.815 4.82869C63.8591 4.59831 63.7684 4.44635 63.5944 4.45126C63.3959 4.46106 63.3493 4.54439 63.4596 4.68899C63.5307 4.78212 63.5356 4.80908 63.4866 4.8483C63.4302 4.89487 63.3542 4.84094 63.3224 4.7282C63.2832 4.59586 63.3395 4.44635 63.4866 4.31155C63.6704 4.14244 63.8027 4.11548 63.9817 4.21107C64.0895 4.26989 64.1459 4.4341 64.0576 4.4341C64.0429 4.4341 64.0356 4.41694 64.0454 4.39734C64.0674 4.33851 63.9915 4.35322 63.9498 4.41939C63.8812 4.52478 63.9915 4.67919 64.1091 4.64242C64.1826 4.62037 64.2562 4.51008 64.2562 4.4243C64.2562 4.314 64.1777 4.20372 64.0576 4.14735L63.9547 4.09833L64.1238 4.08117C64.4032 4.05421 64.5576 4.09097 64.7194 4.22823C64.7708 4.26989 64.7954 4.314 64.7954 4.36057C64.7954 4.439 64.739 4.49537 64.6851 4.47331C64.6434 4.45861 64.6336 4.36057 64.6753 4.36057C64.6875 4.36057 64.6924 4.34832 64.6851 4.33606C64.6532 4.2846 64.5454 4.31155 64.462 4.39488C64.391 4.46596 64.3787 4.49537 64.3787 4.5885C64.3787 4.77722 64.5478 4.91202 64.712 4.85075C64.9596 4.75517 65.0748 4.41694 64.9302 4.20372C64.8615 4.10323 64.8517 4.10568 65.1507 4.13999C66.5502 4.30175 68.1653 5.25514 68.8834 6.34334C69.3442 7.04184 69.6309 7.75504 69.7633 8.54913C69.8246 8.90941 69.8221 9.77212 69.7608 10.1692C69.5599 11.473 69.2731 12.4583 68.8418 13.3431L68.6506 13.7352L68.3124 14.0857C67.9545 14.4582 67.5501 14.8111 67.185 15.0709C66.9595 15.2302 66.359 15.5905 66.3443 15.5734C66.3321 15.5611 66.457 15.3724 66.5967 15.1935C66.6654 15.1052 66.8124 14.9092 66.9227 14.7597C67.109 14.5023 67.1188 14.4827 67.0698 14.4729C66.8811 14.4337 66.8786 14.4361 66.636 14.6004C66.136 14.9386 65.1091 15.7278 64.4302 16.2939L64.1483 16.5267L64.2464 16.5684L64.3419 16.6101L64.1826 16.6812C64.0944 16.7204 63.9988 16.762 63.9719 16.7743C63.9424 16.789 63.8052 16.9336 63.6679 17.0978C63.4743 17.3282 63.3493 17.4507 63.1165 17.6296C62.9229 17.7791 62.7685 17.9237 62.6851 18.0291C62.4205 18.3674 61.9817 18.7767 60.9548 19.6394C60.4524 20.0585 60.3176 20.1859 60.5357 20.0242C60.5921 19.9825 60.6436 19.9531 60.6485 19.9604C60.6705 19.9825 60.4426 20.2594 60.2 20.4996C59.7514 20.9481 58.8152 21.7079 58.4353 21.9285C58.374 21.9653 58.6682 21.6442 59.3299 20.953C60.8739 19.3404 61.8273 18.4188 62.8592 17.5439C63.1557 17.2914 63.3861 17.0635 64.1581 16.2621C64.4302 15.9753 64.4253 15.9802 63.864 16.441C62.217 17.8012 61.2783 18.6933 59.673 20.4261C58.6485 21.529 58.4892 21.7153 58.4133 21.877C58.3863 21.9309 58.2687 22.0584 58.129 22.1834L57.8888 22.3991L57.8201 22.3084C57.7834 22.2594 57.7393 22.1785 57.7221 22.127C57.7025 22.0755 57.6094 21.9236 57.5113 21.7863C57.4158 21.6515 57.3324 21.5241 57.33 21.502C57.3177 21.4212 57.1854 21.2643 56.7172 20.7717C56.0849 20.1099 55.9477 19.958 55.9624 19.9408C55.9722 19.9335 55.1413 19.1663 54.9673 19.0242C54.9624 19.0193 54.9698 19.0046 54.9894 18.9948C55.0457 18.958 53.5728 17.6468 52.7958 17.0414C52.5557 16.8552 52.3424 16.6861 52.3204 16.6689C52.2223 16.5831 52.3816 16.6934 52.7003 16.9287C53.014 17.1591 53.0434 17.1762 53.0532 17.1248C53.063 17.0561 53.0311 17.0292 52.3571 16.5096C51.7126 16.017 51.1954 15.5979 50.9185 15.3479C50.8008 15.2425 50.6513 15.115 50.5876 15.0611C50.4332 14.9361 49.6416 14.2033 49.2617 13.8332C48.4039 12.9999 47.8622 12.1715 47.3818 10.9534C47.1662 10.4118 46.8427 9.40939 46.7691 9.06626C46.6686 8.60305 46.6613 8.58589 46.6735 8.87019C46.7079 9.61281 46.899 10.4069 47.2863 11.4118C47.796 12.7328 48.3475 13.5979 49.3376 14.62C49.4994 14.7866 49.6219 14.9239 49.6121 14.9239C49.5852 14.9239 48.9896 14.4263 48.7249 14.1813C48.5901 14.0587 48.448 13.9288 48.4063 13.8945C48.3671 13.8602 48.3499 13.843 48.3695 13.8577C48.4186 13.8896 48.4063 13.87 48.2004 13.5734C47.7372 12.9141 47.3304 12.0882 47.0534 11.2524C46.85 10.6348 46.6613 9.84074 46.6074 9.38488C46.578 9.12999 46.5878 8.53932 46.627 8.30649C46.6417 8.21091 46.6466 8.20601 46.6588 8.25747C46.6711 8.30649 46.6784 8.29179 46.6931 8.18395C46.823 7.23301 47.2961 6.26491 47.9872 5.52474C48.5509 4.92182 49.6391 4.33116 50.715 4.04931C50.9479 3.98804 50.9895 3.98314 51.5851 3.98314C52.0459 3.98314 52.291 3.99539 52.5164 4.0248C53.884 4.21597 54.9502 4.71595 55.8153 5.57376C56.0727 5.82865 56.3986 6.2502 56.5163 6.47568C56.5923 6.62519 56.5898 6.56882 56.5114 6.34824L56.4378 6.14481L56.4869 5.98551C56.5138 5.89727 56.5432 5.76493 56.5506 5.69385C56.5604 5.62033 56.5751 5.5615 56.5874 5.5615C56.5972 5.5615 56.732 5.66199 56.8839 5.78453C57.4207 6.21344 57.6731 6.2551 57.553 5.89237C57.4354 5.5419 57.0579 5.08113 56.5923 4.7184C56.4991 4.64733 56.4354 4.57625 56.4256 4.53703C56.4182 4.50027 56.357 4.36057 56.2908 4.22577C55.5506 2.69642 53.813 1.60578 51.6782 1.33128C51.3719 1.29207 51.3596 1.29452 51.1145 1.34599C50.6072 1.45138 49.8719 1.67931 49.4161 1.87293C47.85 2.53957 46.5412 3.52972 45.3599 4.94878C45.1001 5.26005 44.6491 5.84336 44.6491 5.86541C44.6491 5.90218 44.7717 5.87277 44.8476 5.81885C44.8942 5.78453 45.1687 5.51739 45.4579 5.22328C46.0044 4.67183 46.399 4.32381 46.8181 4.0248C47.0657 3.84834 47.4529 3.6008 47.4823 3.6008C47.4897 3.6008 47.4088 3.69393 47.2985 3.81157C47.1907 3.92677 47.0265 4.11548 46.9358 4.23313C46.8451 4.35077 46.6392 4.5836 46.475 4.75271C46.3133 4.92182 46.1049 5.15466 46.0143 5.2674C45.8353 5.49043 45.5143 5.95855 45.3942 6.16687C45.355 6.23795 45.3109 6.29677 45.2937 6.29677C45.2496 6.29677 45.1564 6.42912 45.0437 6.65215C44.9506 6.83351 44.8844 6.99037 44.6736 7.53937C44.5952 7.75014 44.5633 7.782 44.529 7.68887C44.5143 7.64965 44.4923 7.70358 44.4334 7.92906C44.3575 8.21581 44.257 8.7452 44.257 8.86039C44.257 8.94862 44.1124 9.38243 44.0511 9.47311C43.9506 9.62752 43.8403 9.60301 43.5609 9.36282C43.4702 9.28194 43.3624 9.20842 43.3207 9.20106C43.0904 9.14959 42.9531 9.54419 42.9188 10.3481C42.9065 10.6569 42.9114 10.7868 42.931 10.826C42.9678 10.8946 42.9948 10.8799 43.056 10.7549C43.083 10.7035 43.1222 10.6593 43.1418 10.6593C43.2202 10.6593 43.3379 11.0294 43.3698 11.3823C43.3869 11.5809 43.3918 11.5931 43.409 11.5049C43.4947 11.0319 43.5536 10.8995 43.6761 10.8848C43.833 10.8652 43.98 11.1593 44.3305 12.1911C44.4677 12.5955 44.7153 13.2622 44.877 13.6739C45.0388 14.0857 45.2569 14.6837 45.3648 15.0047C45.5804 15.6542 45.6613 15.8724 45.7912 16.1322C45.8868 16.3184 46.0706 16.6395 46.0853 16.6395C46.0902 16.6395 46.0069 16.4704 45.8991 16.2645C45.6883 15.8577 45.5731 15.5807 45.5853 15.5023C45.5903 15.468 45.6442 15.5439 45.7618 15.7449C45.9211 16.0268 46.3843 16.7326 46.4897 16.8601C46.5534 16.936 46.4701 16.7816 46.1049 16.1493C45.7961 15.6101 45.6785 15.3822 45.5363 15.0464C45.4236 14.7768 45.3256 14.4852 45.3427 14.468C45.3476 14.4631 45.4015 14.5709 45.4604 14.7082C45.5584 14.9361 45.578 14.9655 45.6711 15.017C45.752 15.0611 45.8157 15.1346 45.9579 15.3503C46.475 16.1395 47.225 17.0806 48.448 18.4776C49.0215 19.132 49.2372 19.3649 48.9921 19.0659C48.6391 18.6321 48.3156 18.1737 48.0166 17.686C47.8328 17.387 47.8009 17.3135 47.8794 17.3797C47.9014 17.3993 48.0313 17.485 48.1661 17.5708C48.3794 17.7056 48.4994 17.8159 49.0926 18.4139C49.7592 19.0879 49.769 19.0977 49.5925 18.8575C49.2764 18.4237 49.2323 18.36 49.2323 18.3453C49.2323 18.2938 49.497 18.4875 49.9283 18.8526C50.1979 19.0855 50.443 19.2913 50.47 19.3109C50.4969 19.3306 50.3082 19.1222 50.0484 18.8453C49.3769 18.1247 48.4235 17.0439 48.4235 17.0022C48.4235 16.9949 48.4676 16.9973 48.5215 17.0071C48.5999 17.0218 48.6637 17.0659 48.823 17.2179C49.2519 17.6272 49.7102 18.0242 49.6391 17.9262C49.5852 17.8527 49.617 17.8747 49.7592 18.012L49.9504 18.1958L49.6857 17.8772C49.318 17.436 49.3107 17.4213 49.6072 17.7301C49.7494 17.8772 49.8793 17.9973 49.894 17.9924C49.9063 17.9899 50.0925 18.1566 50.3057 18.3625C50.5165 18.5708 50.7567 18.784 50.84 18.8355C50.943 18.9016 51.1219 19.0757 51.4135 19.3967C51.6488 19.6516 51.9013 19.9065 51.9748 19.9629C52.2174 20.1393 52.4993 20.2913 52.5606 20.2741C52.6096 20.2619 52.5728 20.2178 52.2419 19.8648C51.8866 19.4899 51.8424 19.4335 52.063 19.6271C52.1169 19.6761 52.09 19.6369 52.0018 19.5438C51.9135 19.4482 51.8032 19.3281 51.7567 19.2742C51.6807 19.186 51.6856 19.1884 51.8057 19.2987C51.8792 19.3649 52.0704 19.5462 52.2272 19.6982C52.4012 19.8673 52.5238 19.9702 52.5409 19.9604C52.5875 19.931 52.3179 19.6737 51.3645 18.8257C50.5165 18.0684 49.9112 17.5022 50.1391 17.6713C50.4528 17.909 51.34 18.6517 52.4184 19.5805C53.1708 20.2276 53.3497 20.3771 53.3497 20.3575C53.3497 20.3501 53.0483 20.0658 52.6806 19.7251C51.9331 19.0291 51.215 18.3306 50.9895 18.0757C50.8008 17.8625 50.8327 17.8821 51.2126 18.2031C51.666 18.5879 52.0532 18.9433 52.9576 19.8109C53.8326 20.6516 53.9576 20.7692 54.3423 21.1123C54.7198 21.453 54.5017 21.2079 53.6635 20.3501C53.2713 19.9457 52.8767 19.5413 52.7885 19.4457C52.6512 19.3011 52.661 19.3085 52.8571 19.4948C53.2076 19.8305 54.3889 21.0339 54.8546 21.529C55.0825 21.7716 55.5114 22.203 55.8104 22.4873C56.107 22.7716 56.7074 23.3574 57.1437 23.7887L57.9353 24.5754L58.2711 24.2544C60.0676 22.5339 62.0822 20.8305 64.0601 19.3624C64.5356 19.007 64.5282 19.0119 63.6876 19.5585C63.3395 19.784 63.0552 19.9604 63.0552 19.9482C63.0552 19.9384 63.2072 19.7815 63.3934 19.6051C63.717 19.2913 64.0748 18.9727 65.2071 17.9875C65.7978 17.4752 65.9522 17.3355 65.8982 17.3649C65.8786 17.3748 65.6973 17.4924 65.4939 17.6247C65.2022 17.8184 65.1532 17.8429 65.261 17.7497C65.6409 17.414 66.3958 16.7571 66.5477 16.6248C66.7806 16.4214 67.5501 15.6322 67.832 15.3062C68.4178 14.6249 68.9128 13.8406 69.2192 13.1102C69.256 13.022 69.354 12.8357 69.4398 12.6936C69.6505 12.3382 69.751 12.1544 69.7388 12.1544C69.7314 12.1544 69.702 12.196 69.6702 12.2451C69.5599 12.4338 69.4202 12.6446 69.4128 12.6396C69.4079 12.6347 69.4496 12.4999 69.5035 12.3382C69.7633 11.5466 69.9961 10.3848 70.0378 9.67408C70.1113 8.41188 69.7829 7.25506 69.0329 6.13991C68.7731 5.75267 68.5648 5.50513 68.18 5.12035C67.5281 4.47331 66.7879 3.96108 65.913 3.55178C65.5772 3.39493 65.4326 3.34591 65.1017 3.28218C64.7659 3.21601 64.5699 3.10572 64.44 2.90965C64.337 2.75279 64.3297 2.59594 64.4277 2.59594C64.4939 2.59594 64.516 2.64741 64.4669 2.68172C64.4302 2.71113 64.4302 2.71358 64.4669 2.72828C64.5356 2.75525 64.636 2.74299 64.6924 2.70378C64.7708 2.64986 64.7684 2.48075 64.6875 2.39252C64.6017 2.29938 64.4522 2.26262 64.3248 2.29938C64.1704 2.34595 64.0846 2.44643 64.0846 2.57633C64.087 2.76015 64.1777 2.9023 64.4277 3.11062L64.489 3.15964L64.4155 3.14494C63.8983 3.042 63.3003 2.7675 63.0699 2.52486C63.0038 2.45624 63.0038 2.45134 63.0405 2.38026C63.0993 2.26507 63.2439 2.23811 63.3101 2.32879C63.3542 2.39252 63.3371 2.44153 63.2685 2.46359C63.2194 2.4783 63.2194 2.48075 63.266 2.51506C63.3322 2.56408 63.5822 2.54692 63.7047 2.4832C63.891 2.38761 63.9596 2.19399 63.8787 1.99792C63.8101 1.83126 63.5748 1.71362 63.315 1.71362C63.0895 1.71362 62.9498 1.76999 62.7954 1.9244L62.6631 2.05674L62.5896 1.9293C62.4352 1.6597 62.2807 1.17688 62.2538 0.880322C62.2415 0.733269 62.2464 0.713661 62.3053 0.642586C62.4155 0.510239 62.6043 0.51269 62.5847 0.645037C62.5798 0.684252 62.5626 0.694054 62.5111 0.689152C62.4572 0.684252 62.4401 0.694054 62.4278 0.745523C62.4082 0.823952 62.4155 0.831305 62.5356 0.848459C62.6851 0.868067 62.8935 0.796991 63.0038 0.686701C63.1312 0.559256 63.1557 0.43181 63.0773 0.29211C62.9351 0.039669 62.5479 -0.0681705 62.1925 0.0445709ZM47.1907 15.9655C47.4897 16.3282 47.9652 16.8454 48.4676 17.3576C48.6759 17.5708 48.8401 17.7497 48.8352 17.7571C48.8107 17.7791 47.6882 16.6566 47.4603 16.387C47.2348 16.1174 47.0044 15.816 46.9162 15.6714C46.8476 15.5611 46.9137 15.6322 47.1907 15.9655ZM55.7835 19.7987C55.8741 19.8697 55.9452 19.9359 55.9379 19.9408C55.9256 19.9531 55.4085 19.5364 55.4085 19.5144C55.4085 19.507 55.455 19.5389 55.5139 19.5854C55.5702 19.6296 55.6928 19.7276 55.7835 19.7987Z" fill="#E3A6B7"/>
<path d="M67.9911 6.70852C68.2387 7.19624 68.398 7.87759 68.398 8.43884C68.398 8.90451 68.3367 9.2991 68.1627 9.94858C68.1161 10.1299 68.0769 10.3113 68.0769 10.353C68.0769 10.3922 68.0598 10.5245 68.0402 10.6446C68.0205 10.7623 68.0083 10.8652 68.0132 10.8726C68.0205 10.8775 68.0377 10.8064 68.0549 10.7157C68.072 10.625 68.1431 10.3236 68.2166 10.0466C68.3612 9.48782 68.496 8.72314 68.496 8.44864C68.496 8.35061 68.4789 8.15699 68.4593 8.01974C68.4396 7.88249 68.4249 7.71338 68.4249 7.63985C68.4274 7.45359 68.3245 7.2036 68.0745 6.77959C67.9544 6.58107 67.9029 6.53696 67.9911 6.70852Z" fill="#E3A6B7"/>
<path d="M70.5181 7.74035C70.6332 8.68884 70.5597 9.47557 70.2583 10.5589C70.2043 10.7525 70.1651 10.9167 70.17 10.9216C70.1749 10.9265 70.2141 10.8113 70.2558 10.6667C70.4764 9.89958 70.5695 9.38979 70.5965 8.78443C70.6112 8.47807 70.6161 8.43395 70.6357 8.52708C70.67 8.7109 70.6357 9.58341 70.5818 9.87507C70.3931 10.8897 69.9445 12.2059 69.4642 13.1617C69.4152 13.2548 69.3808 13.3308 69.3882 13.3308C69.3931 13.3308 69.4519 13.245 69.5205 13.1396C69.9887 12.4191 70.3367 11.5 70.6014 10.277C70.67 9.96085 70.6847 9.8334 70.7117 9.36038C70.7337 8.95109 70.6431 8.10308 70.5426 7.75506L70.5058 7.63251L70.5181 7.74035Z" fill="#E3A6B7"/>
<path d="M67.9493 10.6789C67.91 10.7966 67.8414 10.9926 67.7948 11.1176C67.7483 11.2451 67.7189 11.3578 67.7262 11.3823C67.7483 11.4338 67.8169 11.25 67.9468 10.8137C68.0497 10.4632 68.0497 10.3652 67.9493 10.6789Z" fill="#E3A6B7"/>
<path d="M70.6089 10.5074C70.5893 10.728 70.3442 11.6617 70.1874 12.1176C69.9839 12.7058 69.6089 13.522 69.3295 13.9803C69.2732 14.0734 69.2217 14.1592 69.2144 14.169C69.2095 14.1812 69.2095 14.1886 69.2168 14.1886C69.2242 14.1886 69.3295 14.0366 69.4521 13.8504C69.7045 13.4705 70.0256 12.848 70.1972 12.4093C70.3712 11.9583 70.6751 11.0172 70.653 11.0025C70.6408 10.9951 70.6261 10.8677 70.6212 10.7206C70.6187 10.5711 70.6114 10.4755 70.6089 10.5074Z" fill="#E3A6B7"/>
<path d="M70.8292 10.9117C70.7704 10.973 70.7312 11.0637 70.6503 11.321C70.5939 11.5024 70.518 11.7328 70.4763 11.8333C70.3586 12.1323 70.4175 12.0563 70.5523 11.7328C70.6601 11.4779 70.6944 11.4264 70.638 11.6078C70.6282 11.6421 70.6282 11.6446 70.6479 11.6151C70.6797 11.5661 70.9248 10.8505 70.915 10.8407C70.9101 10.8358 70.8709 10.8676 70.8292 10.9117Z" fill="#E3A6B7"/>
<path d="M66.337 13.1445C66.0355 13.5563 65.6998 13.9264 64.9204 14.7033C64.3984 15.2229 64.2317 15.3994 64.4106 15.2425C64.5577 15.115 64.7292 14.9606 64.7929 14.8994C64.8567 14.8381 65.0258 14.6861 65.1704 14.5587C65.5993 14.1837 66.2047 13.5244 66.5037 13.1053C66.5772 12.9999 66.5796 12.9926 66.5404 12.9583C66.5012 12.924 66.4865 12.9387 66.337 13.1445Z" fill="#E3A6B7"/>
<path d="M66.6998 13.0416C66.5037 13.3161 66.44 13.4092 66.5111 13.3308C66.6017 13.2278 66.788 12.9631 66.7709 12.9631C66.7635 12.9631 66.7316 12.9999 66.6998 13.0416Z" fill="#E3A6B7"/>
<path d="M70.011 13.674C69.9351 13.794 69.8762 13.8945 69.8811 13.8945C69.8959 13.8945 70.0772 13.6249 70.1238 13.5318C70.1949 13.3921 70.1507 13.4485 70.011 13.674Z" fill="#E3A6B7"/>
<path d="M69.8837 13.9827C69.8028 14.1004 69.6386 14.3013 69.2538 14.7645L69.1509 14.8871L69.271 14.7645C69.6582 14.3675 69.8567 14.1371 69.9229 14.0072C69.9621 13.9288 69.9915 13.8602 69.9866 13.8577C69.9817 13.8528 69.9352 13.9092 69.8837 13.9827Z" fill="#E3A6B7"/>
<path d="M69.6166 14.4655C69.472 14.6616 69.4671 14.6739 69.5675 14.5587C69.668 14.4484 69.8126 14.2376 69.7906 14.2376C69.7857 14.2376 69.7072 14.3405 69.6166 14.4655Z" fill="#E3A6B7"/>
<path d="M69.072 15.7743C68.697 16.1664 68.0917 16.7252 67.5991 17.1419C67.2192 17.4605 67.1432 17.5316 67.3074 17.4164C67.8025 17.0659 68.5353 16.4115 68.9838 15.9189C69.2926 15.5807 69.4397 15.4116 69.4225 15.4165C69.4201 15.4165 69.2608 15.5782 69.072 15.7743Z" fill="#E3A6B7"/>
<path d="M49.9404 18.0782C49.9918 18.1517 50.335 18.4875 50.433 18.5635C50.4673 18.5904 50.3619 18.4752 50.2002 18.311C50.0384 18.1468 49.9036 18.012 49.8987 18.012C49.8938 18.012 49.9134 18.0414 49.9404 18.0782Z" fill="#E3A6B7"/>
<path d="M55.9966 19.958C55.9966 19.9629 56.0162 19.9825 56.0407 19.9997C56.0775 20.0315 56.0799 20.0291 56.0481 19.9899C56.0162 19.9506 55.9966 19.9384 55.9966 19.958Z" fill="#E3A6B7"/>
<path d="M51.83 20.7814C52.053 21.029 52.0849 21.051 51.9403 20.8525C51.8447 20.7251 51.7025 20.5854 51.6633 20.5854C51.6584 20.5854 51.7319 20.6736 51.83 20.7814Z" fill="#E3A6B7"/>
<path d="M58.9968 24.4627L58.9502 24.519L59.0066 24.4725C59.058 24.4284 59.0727 24.4088 59.0531 24.4088C59.0482 24.4088 59.0237 24.4333 58.9968 24.4627Z" fill="#E3A6B7"/>
<path d="M74.6339 0.654593C74.5328 0.68736 74.477 0.748712 74.4589 0.847013C74.4512 0.886751 74.4477 0.893025 74.4191 0.914638C74.3208 0.989235 74.3229 1.09869 74.4247 1.20466C74.4665 1.24719 74.5976 1.34828 74.6645 1.38871L74.7043 1.41242L74.5621 1.40963C74.3501 1.40475 74.2051 1.42357 74.051 1.47516C73.8077 1.55673 73.6285 1.70732 73.5546 1.89137C73.5428 1.92065 73.5337 1.94645 73.5337 1.94994C73.5337 1.95272 73.5212 1.97085 73.5051 1.99037C73.4759 2.02732 73.4403 2.07891 73.4061 2.13678C73.3859 2.17094 73.3866 2.17024 73.4515 2.10889L73.5163 2.04684L73.5205 2.10959C73.5323 2.27203 73.5951 2.40519 73.7192 2.52789C73.8851 2.69312 74.1033 2.76562 74.1995 2.68824C74.2197 2.6722 74.2204 2.66872 74.2197 2.61992C74.2197 2.57739 74.2156 2.56066 74.1988 2.52371C74.1709 2.46375 74.1479 2.43795 74.104 2.41634C74.0552 2.39194 74.0259 2.39264 74.0001 2.41843C73.9834 2.43517 73.9799 2.44493 73.9799 2.47142C73.9799 2.51046 73.9939 2.53904 74.0183 2.5502C74.042 2.56135 74.0427 2.56066 74.0427 2.54602C74.0427 2.52649 74.0503 2.52231 74.065 2.53556C74.0908 2.55856 74.0761 2.58645 74.0371 2.58645C73.9625 2.58645 73.8774 2.48954 73.8649 2.38915C73.8544 2.30689 73.8914 2.2058 73.9513 2.15281C73.9688 2.13747 74.0273 2.09564 74.081 2.06009C74.1779 1.99665 74.1807 1.99316 74.2964 1.86209C74.4937 1.63691 74.6074 1.55115 74.76 1.51211C74.8514 1.48911 74.8779 1.49259 74.9845 1.54349C75.0361 1.56789 75.101 1.59647 75.1282 1.60763C75.156 1.61878 75.179 1.62993 75.179 1.63203C75.179 1.63412 75.1498 1.63133 75.1149 1.62645C75.0166 1.61181 74.813 1.61181 74.7363 1.62715C74.6136 1.65085 74.53 1.68222 74.454 1.73242C74.3564 1.79726 74.3076 1.87394 74.302 1.97015C74.2985 2.03987 74.3104 2.08449 74.355 2.17164C74.4282 2.31177 74.5551 2.39403 74.6353 2.3529C74.6666 2.33686 74.6813 2.28946 74.6722 2.23508C74.6548 2.13259 74.5739 2.02732 74.5223 2.04126C74.507 2.04475 74.4819 2.0817 74.4819 2.10052C74.4819 2.1068 74.4923 2.11865 74.5049 2.12632C74.5363 2.14445 74.5453 2.15421 74.5411 2.16188C74.5328 2.17512 74.5091 2.16745 74.4819 2.14305C74.4268 2.09355 74.4219 2.01338 74.4679 1.92065C74.553 1.74706 74.8333 1.62157 75.078 1.64597C75.1449 1.65294 75.2188 1.67107 75.2258 1.68222C75.2285 1.68641 75.2237 1.6878 75.2125 1.68501C75.2028 1.68222 75.1616 1.68362 75.1219 1.6871C74.8953 1.70871 74.7259 1.8105 74.6701 1.9576C74.652 2.00501 74.6485 2.0831 74.6624 2.14026C74.698 2.28597 74.8116 2.42401 74.8779 2.401C74.9051 2.39124 74.9309 2.33617 74.9336 2.279C74.9357 2.24066 74.9336 2.22532 74.9211 2.19882C74.8946 2.14514 74.8388 2.12214 74.8221 2.15839C74.8144 2.17442 74.8158 2.17791 74.8305 2.18976C74.8451 2.20022 74.8465 2.2044 74.8402 2.21486C74.8263 2.23787 74.8075 2.2295 74.7886 2.19255C74.7733 2.16188 74.7712 2.14863 74.7712 2.081C74.7712 1.99665 74.7803 1.9597 74.8186 1.88649C74.8667 1.79586 74.9755 1.71917 75.0842 1.70035C75.1797 1.68431 75.2941 1.70314 75.3638 1.74636L75.3917 1.76379L75.3533 1.75891C75.3324 1.75542 75.2711 1.75333 75.2174 1.75333C75.1295 1.75403 75.1142 1.75612 75.064 1.77355C74.9246 1.82166 74.8514 1.90671 74.8514 2.01965C74.8514 2.09076 74.8876 2.14445 74.9469 2.16048C75.0082 2.17791 75.0773 2.11028 75.0954 2.01547C75.1079 1.94994 75.0821 1.90671 75.0326 1.90811C74.9762 1.91089 74.9629 1.9346 74.9943 1.97573C75.0145 2.00222 75.0159 2.00989 75.002 2.02105C74.9859 2.03429 74.9643 2.01896 74.9553 1.98689C74.9441 1.94924 74.9601 1.90671 75.002 1.86837C75.0543 1.82026 75.0919 1.81259 75.1428 1.83978C75.1735 1.85651 75.1895 1.90322 75.1644 1.90322C75.1602 1.90322 75.1581 1.89834 75.1609 1.89277C75.1672 1.87604 75.1456 1.88022 75.1337 1.89904C75.1142 1.92902 75.1456 1.97294 75.179 1.96248C75.2 1.95621 75.2209 1.92484 75.2209 1.90044C75.2209 1.86906 75.1986 1.83769 75.1644 1.82166L75.1351 1.80771L75.1832 1.80283C75.2627 1.79516 75.3066 1.80562 75.3526 1.84466C75.3673 1.85651 75.3743 1.86906 75.3743 1.88231C75.3743 1.90462 75.3582 1.92065 75.3429 1.91438C75.331 1.9102 75.3282 1.88231 75.3401 1.88231C75.3436 1.88231 75.345 1.87882 75.3429 1.87534C75.3338 1.8607 75.3031 1.86837 75.2794 1.89207C75.2592 1.91229 75.2557 1.92065 75.2557 1.94715C75.2557 2.00083 75.3038 2.03917 75.3506 2.02174C75.421 1.99455 75.4537 1.89834 75.4126 1.83769C75.3931 1.80911 75.3903 1.8098 75.4753 1.81956C75.8734 1.86558 76.3329 2.13678 76.5371 2.44632C76.6682 2.64501 76.7498 2.84789 76.7874 3.07377C76.8048 3.17626 76.8041 3.42166 76.7867 3.5346C76.7296 3.9055 76.648 4.18576 76.5253 4.43744L76.4709 4.54899L76.3747 4.64868C76.2729 4.75465 76.1579 4.85504 76.054 4.92894C75.9899 4.97426 75.819 5.07674 75.8149 5.07186C75.8114 5.06838 75.8469 5.01469 75.8867 4.9638C75.9062 4.9387 75.948 4.88293 75.9794 4.8404C76.0324 4.7672 76.0352 4.76162 76.0212 4.75883C75.9675 4.74768 75.9668 4.74838 75.8978 4.79509C75.7556 4.8913 75.4635 5.11578 75.2704 5.27683L75.1902 5.34306L75.2181 5.35491L75.2453 5.36677L75.2 5.38698C75.1749 5.39814 75.1477 5.40999 75.14 5.41348C75.1316 5.41766 75.0926 5.45879 75.0536 5.5055C74.9985 5.57104 74.9629 5.6059 74.8967 5.65679C74.8416 5.69932 74.7977 5.74045 74.774 5.77043C74.6987 5.86664 74.5739 5.98306 74.2818 6.22847C74.1389 6.34768 74.1005 6.38394 74.1626 6.33792C74.1786 6.32607 74.1932 6.31771 74.1946 6.3198C74.2009 6.32607 74.1361 6.40485 74.0671 6.47317C73.9395 6.60076 73.6732 6.81688 73.5651 6.87962C73.5477 6.89008 73.6313 6.79875 73.8196 6.60215C74.2588 6.14341 74.53 5.88128 74.8235 5.63239C74.9078 5.56058 74.9734 5.49574 75.193 5.26777C75.2704 5.1862 75.269 5.18759 75.1093 5.31866C74.6408 5.70559 74.3738 5.95936 73.9172 6.45226C73.6258 6.76599 73.5804 6.81897 73.5588 6.86498C73.5512 6.88032 73.5177 6.91657 73.478 6.95213L73.4096 7.01348L73.3901 6.98769C73.3797 6.97374 73.3671 6.95074 73.3622 6.9361C73.3566 6.92145 73.3302 6.87823 73.3023 6.83919C73.2751 6.80084 73.2514 6.76459 73.2507 6.75832C73.2472 6.73531 73.2095 6.69069 73.0764 6.55056C72.8965 6.36232 72.8575 6.3191 72.8617 6.31422C72.8644 6.31213 72.6281 6.09391 72.5786 6.05348C72.5772 6.05208 72.5793 6.0479 72.5849 6.04511C72.6009 6.03465 72.1819 5.66167 71.9609 5.48947C71.8926 5.43648 71.8319 5.38838 71.8257 5.3835C71.7978 5.3591 71.8431 5.39047 71.9337 5.4574C72.023 5.52293 72.0313 5.52781 72.0341 5.51317C72.0369 5.49365 72.0278 5.48598 71.8361 5.33818C71.6528 5.19805 71.5057 5.07883 71.4269 5.00772C71.3934 4.97774 71.3509 4.94149 71.3328 4.92615C71.2888 4.8906 71.0637 4.68214 70.9556 4.57687C70.7116 4.33983 70.5575 4.10419 70.4209 3.7577C70.3595 3.60362 70.2675 3.31848 70.2466 3.22088C70.218 3.08911 70.2159 3.08423 70.2194 3.1651C70.2291 3.37635 70.2835 3.60223 70.3937 3.88807C70.5387 4.26384 70.6955 4.50994 70.9772 4.80066C71.0232 4.84807 71.0581 4.88711 71.0553 4.88711C71.0476 4.88711 70.8782 4.74559 70.8029 4.67587C70.7646 4.64101 70.7241 4.60406 70.7123 4.5943C70.7011 4.58454 70.6962 4.57966 70.7018 4.58384C70.7158 4.59291 70.7123 4.58733 70.6537 4.50297C70.522 4.31543 70.4062 4.08049 70.3274 3.84275C70.2696 3.66707 70.2159 3.44118 70.2006 3.31151C70.1922 3.239 70.195 3.07098 70.2061 3.00475C70.2103 2.97756 70.2117 2.97617 70.2152 2.99081C70.2187 3.00475 70.2208 3.00057 70.225 2.9699C70.2619 2.69939 70.3965 2.42401 70.5931 2.21347C70.7534 2.04196 71.063 1.87394 71.369 1.79377C71.4352 1.77634 71.4471 1.77495 71.6165 1.77495C71.7476 1.77495 71.8173 1.77843 71.8814 1.7868C72.2705 1.84118 72.5737 1.9834 72.8198 2.22741C72.893 2.29991 72.9857 2.41983 73.0192 2.48397C73.0408 2.52649 73.0401 2.51046 73.0178 2.44771L72.9969 2.38985L73.0108 2.34453C73.0185 2.31944 73.0269 2.28179 73.029 2.26157C73.0318 2.24066 73.0359 2.22392 73.0394 2.22392C73.0422 2.22392 73.0806 2.25251 73.1238 2.28737C73.2765 2.40937 73.3483 2.42122 73.3141 2.31804C73.2807 2.21835 73.1733 2.08728 73.0408 1.9841C73.0143 1.96388 72.9962 1.94366 72.9934 1.93251C72.9913 1.92205 72.9739 1.88231 72.9551 1.84397C72.7445 1.40893 72.2502 1.09869 71.643 1.02061C71.5559 1.00945 71.5524 1.01015 71.4827 1.02479C71.3383 1.05477 71.1292 1.11961 70.9995 1.17468C70.554 1.36431 70.1817 1.64597 69.8457 2.04963C69.7718 2.13817 69.6435 2.3041 69.6435 2.31037C69.6435 2.32083 69.6784 2.31246 69.7 2.29713C69.7132 2.28737 69.7913 2.21137 69.8736 2.12771C70.0291 1.97085 70.1413 1.87185 70.2605 1.7868C70.3309 1.7366 70.4411 1.66619 70.4494 1.66619C70.4515 1.66619 70.4285 1.69268 70.3972 1.72614C70.3665 1.75891 70.3198 1.81259 70.294 1.84606C70.2682 1.87952 70.2096 1.94575 70.1629 1.99386C70.1169 2.04196 70.0576 2.10819 70.0318 2.14026C69.9809 2.20371 69.8896 2.33686 69.8555 2.39612C69.8443 2.41634 69.8318 2.43307 69.8269 2.43307C69.8143 2.43307 69.7878 2.47072 69.7558 2.53416C69.7293 2.58575 69.7104 2.63037 69.6505 2.78654C69.6282 2.8465 69.6191 2.85556 69.6094 2.82907C69.6052 2.81791 69.5989 2.83325 69.5822 2.89739C69.5606 2.97896 69.532 3.12955 69.532 3.16231C69.532 3.18741 69.4908 3.31081 69.4734 3.33661C69.4448 3.38053 69.4135 3.37356 69.334 3.30523C69.3082 3.28223 69.2775 3.26131 69.2657 3.25922C69.2001 3.24458 69.1611 3.35682 69.1513 3.5855C69.1478 3.67334 69.1492 3.71029 69.1548 3.72144C69.1653 3.74097 69.1729 3.73678 69.1904 3.70123C69.198 3.68659 69.2092 3.67404 69.2148 3.67404C69.2371 3.67404 69.2705 3.77931 69.2796 3.8797C69.2845 3.93617 69.2859 3.93966 69.2907 3.91456C69.3151 3.78001 69.3319 3.74236 69.3667 3.73818C69.4114 3.7326 69.4532 3.81626 69.5529 4.10977C69.5919 4.2248 69.6623 4.41443 69.7084 4.53156C69.7544 4.64868 69.8164 4.81879 69.8471 4.91012C69.9084 5.09487 69.9314 5.15692 69.9684 5.23082C69.9956 5.2838 70.0479 5.37513 70.0521 5.37513C70.0535 5.37513 70.0297 5.32703 69.9991 5.26846C69.9391 5.15273 69.9063 5.07395 69.9098 5.05164C69.9112 5.04188 69.9266 5.0635 69.96 5.12066C70.0053 5.20084 70.1371 5.40162 70.1671 5.43788C70.1852 5.45949 70.1615 5.41557 70.0576 5.2357C69.9698 5.08232 69.9363 5.01748 69.8959 4.92197C69.8638 4.84528 69.8359 4.76232 69.8408 4.75744C69.8422 4.75604 69.8575 4.78672 69.8743 4.82576C69.9022 4.8906 69.9077 4.89896 69.9342 4.91361C69.9572 4.92615 69.9754 4.94707 70.0158 5.00842C70.1629 5.23291 70.3762 5.50062 70.7241 5.89801C70.8873 6.08415 70.9486 6.15038 70.8789 6.06533C70.7785 5.94193 70.6865 5.81156 70.6014 5.67282C70.5491 5.58777 70.5401 5.56685 70.5624 5.58568C70.5687 5.59125 70.6056 5.61566 70.644 5.64006C70.7046 5.6784 70.7388 5.70977 70.9075 5.87988C71.0971 6.0716 71.0999 6.07439 71.0497 6.00607C70.9598 5.88267 70.9472 5.86455 70.9472 5.86036C70.9472 5.84572 71.0225 5.9008 71.1452 6.00468C71.2219 6.07091 71.2916 6.12947 71.2993 6.13505C71.307 6.14062 71.2533 6.08136 71.1794 6.00258C70.9884 5.79762 70.7172 5.49016 70.7172 5.47831C70.7172 5.47622 70.7297 5.47692 70.745 5.47971C70.7674 5.48389 70.7855 5.49644 70.8308 5.53966C70.9528 5.65609 71.0832 5.76903 71.063 5.74115C71.0476 5.72023 71.0567 5.72651 71.0971 5.76555L71.1515 5.81783L71.0762 5.7272C70.9716 5.60171 70.9695 5.59753 71.0539 5.68537C71.0943 5.7272 71.1313 5.76136 71.1355 5.75997C71.1389 5.75927 71.1919 5.80668 71.2526 5.86524C71.3125 5.9245 71.3809 5.98516 71.4046 5.9998C71.4338 6.01862 71.4847 6.06812 71.5677 6.15945C71.6346 6.23195 71.7064 6.30446 71.7274 6.32049C71.7964 6.37069 71.8766 6.41392 71.894 6.40903C71.9079 6.40555 71.8975 6.393 71.8033 6.29261C71.7023 6.18594 71.6897 6.16991 71.7525 6.22498C71.7678 6.23893 71.7601 6.22777 71.735 6.20128C71.7099 6.17409 71.6786 6.13993 71.6653 6.12459C71.6437 6.09949 71.6451 6.10019 71.6793 6.13156C71.7002 6.15038 71.7545 6.20198 71.7992 6.2452C71.8487 6.2933 71.8835 6.32259 71.8884 6.3198C71.9017 6.31143 71.825 6.23823 71.5538 5.99701C71.3125 5.78158 71.1403 5.62054 71.2052 5.66864C71.2944 5.73627 71.5468 5.94751 71.8535 6.21174C72.0676 6.39579 72.1185 6.43832 72.1185 6.43274C72.1185 6.43065 72.0327 6.34978 71.9281 6.25287C71.7155 6.05487 71.5112 5.85618 71.4471 5.78367C71.3934 5.72302 71.4025 5.7286 71.5105 5.81993C71.6395 5.92938 71.7497 6.03047 72.0069 6.27727C72.2558 6.5164 72.2914 6.54986 72.4008 6.64747C72.5082 6.74437 72.4461 6.67466 72.2077 6.43065C72.0962 6.31561 71.9839 6.20058 71.9588 6.17339C71.9198 6.13226 71.9226 6.13435 71.9783 6.18733C72.078 6.28285 72.4141 6.62516 72.5465 6.76599C72.6114 6.83501 72.7334 6.95771 72.8184 7.03858C72.9028 7.11945 73.0736 7.28607 73.1977 7.40878L73.4229 7.63257L73.5184 7.54124C74.0294 7.05183 74.6025 6.56729 75.1651 6.14969C75.3004 6.0486 75.2983 6.04999 75.0591 6.20546C74.9601 6.2696 74.8793 6.3198 74.8793 6.31631C74.8793 6.31352 74.9225 6.2689 74.9755 6.21871C75.0675 6.12947 75.1693 6.03884 75.4914 5.75858C75.6594 5.61287 75.7033 5.57313 75.688 5.58149C75.6824 5.58428 75.6308 5.61775 75.5729 5.65539C75.49 5.71047 75.476 5.71744 75.5067 5.69095C75.6148 5.59544 75.8295 5.4086 75.8727 5.37095C75.939 5.31308 76.1579 5.08859 76.238 4.99587C76.4047 4.80206 76.5455 4.57896 76.6326 4.37121C76.6431 4.34611 76.671 4.29312 76.6954 4.25269C76.7553 4.1516 76.7839 4.09931 76.7804 4.09931C76.7784 4.09931 76.77 4.11116 76.7609 4.12511C76.7296 4.17879 76.6898 4.23874 76.6877 4.23735C76.6863 4.23596 76.6982 4.19761 76.7135 4.1516C76.7874 3.92641 76.8536 3.59595 76.8655 3.39377C76.8864 3.03473 76.793 2.70567 76.5797 2.38846C76.5058 2.2783 76.4465 2.20789 76.337 2.09843C76.1516 1.91438 75.9411 1.76867 75.6922 1.65224C75.5967 1.60763 75.5555 1.59368 75.4614 1.57556C75.3659 1.55673 75.3101 1.52536 75.2732 1.46959C75.2439 1.42497 75.2418 1.38035 75.2697 1.38035C75.2885 1.38035 75.2948 1.39499 75.2808 1.40475C75.2704 1.41311 75.2704 1.41381 75.2808 1.41799C75.3004 1.42566 75.3289 1.42218 75.345 1.41102C75.3673 1.39569 75.3666 1.34758 75.3436 1.32248C75.3192 1.29599 75.2766 1.28553 75.2404 1.29599C75.1965 1.30924 75.1721 1.33782 75.1721 1.37477C75.1728 1.42706 75.1986 1.46749 75.2697 1.52675L75.2871 1.5407L75.2662 1.53651C75.1191 1.50723 74.949 1.42915 74.8834 1.36013C74.8646 1.34061 74.8646 1.33921 74.8751 1.319C74.8918 1.28623 74.9329 1.27856 74.9518 1.30436C74.9643 1.32248 74.9594 1.33643 74.9399 1.3427C74.926 1.34688 74.926 1.34758 74.9392 1.35734C74.958 1.37128 75.0292 1.3664 75.064 1.34828C75.117 1.32109 75.1365 1.26601 75.1135 1.21024C75.094 1.16283 75.0271 1.12937 74.9532 1.12937C74.889 1.12937 74.8493 1.1454 74.8054 1.18932L74.7677 1.22697L74.7468 1.19072C74.7029 1.11403 74.659 0.976686 74.6513 0.892328C74.6478 0.850498 74.6492 0.844921 74.6659 0.824703C74.6973 0.787056 74.751 0.787753 74.7454 0.8254C74.744 0.836555 74.7391 0.839344 74.7245 0.837949C74.7092 0.836555 74.7043 0.839344 74.7008 0.853984C74.6952 0.876294 74.6973 0.878385 74.7315 0.883265C74.774 0.888843 74.8333 0.868625 74.8646 0.837252C74.9009 0.800999 74.9078 0.764746 74.8855 0.725008C74.8451 0.653199 74.7349 0.622524 74.6339 0.654593ZM70.3665 5.18341C70.4515 5.28659 70.5868 5.43369 70.7297 5.5794C70.789 5.64006 70.8357 5.69095 70.8343 5.69304C70.8273 5.69932 70.508 5.38001 70.4432 5.30332C70.379 5.22663 70.3135 5.14088 70.2884 5.09975C70.2689 5.06838 70.2877 5.08859 70.3665 5.18341ZM72.8108 6.27378C72.8366 6.294 72.8568 6.31283 72.8547 6.31422C72.8512 6.31771 72.7041 6.19919 72.7041 6.19291C72.7041 6.19082 72.7173 6.19988 72.7341 6.21313C72.7501 6.22568 72.785 6.25357 72.8108 6.27378Z" fill="#E3A6B7"/>
<path d="M76.2831 2.55018C76.3535 2.68892 76.3989 2.88273 76.3989 3.04238C76.3989 3.17485 76.3814 3.28709 76.3319 3.47184C76.3187 3.52343 76.3075 3.57502 76.3075 3.58687C76.3075 3.59803 76.3026 3.63568 76.2971 3.66984C76.2915 3.7033 76.288 3.73258 76.2894 3.73467C76.2915 3.73607 76.2964 3.71585 76.3013 3.69005C76.3061 3.66426 76.3263 3.57851 76.3473 3.49973C76.3884 3.34077 76.4267 3.12326 76.4267 3.04517C76.4267 3.01729 76.4219 2.96221 76.4163 2.92317C76.4107 2.88413 76.4065 2.83602 76.4065 2.81511C76.4072 2.76212 76.3779 2.69101 76.3068 2.5704C76.2727 2.51393 76.258 2.50138 76.2831 2.55018Z" fill="#E3A6B7"/>
<path d="M77.0019 2.84372C77.0346 3.11352 77.0137 3.33731 76.928 3.64546C76.9126 3.70054 76.9015 3.74725 76.9029 3.74864C76.9042 3.75004 76.9154 3.71727 76.9273 3.67614C76.99 3.45792 77.0165 3.31291 77.0242 3.14071C77.0283 3.05356 77.0297 3.04101 77.0353 3.06751C77.0451 3.11979 77.0353 3.36799 77.02 3.45095C76.9663 3.73958 76.8387 4.11396 76.7021 4.38586C76.6881 4.41235 76.6784 4.43396 76.6805 4.43396C76.6819 4.43396 76.6986 4.40956 76.7181 4.37958C76.8513 4.17461 76.9503 3.91317 77.0256 3.56529C77.0451 3.47535 77.0493 3.4391 77.0569 3.30454C77.0632 3.18812 77.0374 2.9469 77.0088 2.8479L76.9984 2.81304L77.0019 2.84372Z" fill="#E3A6B7"/>
<path d="M76.2718 3.6796C76.2606 3.71306 76.2411 3.76883 76.2278 3.80439C76.2146 3.84064 76.2062 3.87271 76.2083 3.87968C76.2146 3.89433 76.2341 3.84204 76.2711 3.71794C76.3004 3.61825 76.3004 3.59036 76.2718 3.6796Z" fill="#E3A6B7"/>
<path d="M77.028 3.63083C77.0225 3.69357 76.9527 3.9592 76.9081 4.08887C76.8503 4.25619 76.7436 4.48835 76.6641 4.61872C76.6481 4.64521 76.6334 4.66961 76.6313 4.6724C76.6299 4.67589 76.6299 4.67798 76.632 4.67798C76.6341 4.67798 76.6641 4.63475 76.699 4.58177C76.7708 4.47371 76.8621 4.29663 76.9109 4.17183C76.9604 4.04355 77.0469 3.77584 77.0406 3.77166C77.0371 3.76957 77.0329 3.73331 77.0315 3.69148C77.0308 3.64896 77.0287 3.62177 77.028 3.63083Z" fill="#E3A6B7"/>
<path d="M77.0905 3.74583C77.0738 3.76326 77.0627 3.78906 77.0396 3.86226C77.0236 3.91385 77.002 3.97938 76.9901 4.00797C76.9567 4.09302 76.9734 4.07141 77.0118 3.97938C77.0424 3.90688 77.0522 3.89224 77.0362 3.94383C77.0334 3.95359 77.0334 3.95428 77.0389 3.94592C77.048 3.93198 77.1177 3.7284 77.1149 3.72561C77.1135 3.72422 77.1024 3.73328 77.0905 3.74583Z" fill="#E3A6B7"/>
<path d="M75.8128 4.38092C75.7271 4.49804 75.6315 4.60332 75.4098 4.82432C75.2613 4.97212 75.2139 5.02232 75.2648 4.9777C75.3067 4.94144 75.3555 4.89752 75.3736 4.88009C75.3917 4.86266 75.4398 4.81944 75.481 4.78319C75.603 4.67652 75.7752 4.48898 75.8602 4.36976C75.8811 4.33979 75.8818 4.33769 75.8707 4.32793C75.8595 4.31817 75.8553 4.32236 75.8128 4.38092Z" fill="#E3A6B7"/>
<path d="M75.9162 4.35165C75.8604 4.42973 75.8423 4.45622 75.8625 4.43391C75.8883 4.40463 75.9413 4.32934 75.9364 4.32934C75.9343 4.32934 75.9252 4.33979 75.9162 4.35165Z" fill="#E3A6B7"/>
<path d="M76.8578 4.53162C76.8362 4.56578 76.8195 4.59436 76.8209 4.59436C76.8251 4.59436 76.8767 4.51767 76.8899 4.49118C76.9101 4.45144 76.8976 4.46748 76.8578 4.53162Z" fill="#E3A6B7"/>
<path d="M76.8217 4.61933C76.7987 4.6528 76.752 4.70996 76.6426 4.84173L76.6133 4.87659L76.6474 4.84173C76.7576 4.72879 76.8141 4.66325 76.8329 4.6263C76.844 4.60399 76.8524 4.58447 76.851 4.58378C76.8496 4.58238 76.8364 4.59842 76.8217 4.61933Z" fill="#E3A6B7"/>
<path d="M76.7453 4.75679C76.7042 4.81256 76.7028 4.81605 76.7314 4.78328C76.76 4.75191 76.8011 4.69195 76.7948 4.69195C76.7935 4.69195 76.7711 4.72123 76.7453 4.75679Z" fill="#E3A6B7"/>
<path d="M76.5907 5.12902C76.484 5.24056 76.3118 5.39952 76.1717 5.51804C76.0636 5.60867 76.042 5.62889 76.0887 5.59612C76.2295 5.49643 76.438 5.31028 76.5656 5.17015C76.6534 5.07394 76.6952 5.02584 76.6904 5.02723C76.6897 5.02723 76.6443 5.07324 76.5907 5.12902Z" fill="#E3A6B7"/>
<path d="M71.1488 5.78443C71.1634 5.80534 71.261 5.90086 71.2889 5.92247C71.2987 5.93014 71.2687 5.89737 71.2227 5.85066C71.1767 5.80395 71.1383 5.76561 71.1369 5.76561C71.1355 5.76561 71.1411 5.77397 71.1488 5.78443Z" fill="#E3A6B7"/>
<path d="M72.8716 6.31934C72.8716 6.32072 72.8771 6.32621 72.8839 6.33101C72.8942 6.33993 72.8949 6.33925 72.886 6.32827C72.8771 6.31729 72.8716 6.31385 72.8716 6.31934Z" fill="#E3A6B7"/>
<path d="M71.6861 6.55336C71.7496 6.62378 71.7587 6.63005 71.7175 6.57358C71.6903 6.53733 71.6499 6.49759 71.6387 6.49759C71.6373 6.49759 71.6583 6.52269 71.6861 6.55336Z" fill="#E3A6B7"/>
<path d="M73.7247 7.60054L73.7114 7.61658L73.7275 7.60333C73.7421 7.59078 73.7463 7.5852 73.7407 7.5852C73.7393 7.5852 73.7323 7.59218 73.7247 7.60054Z" fill="#E3A6B7"/>
<path d="M7.71312 43.453L1.67677 27.0207L0 26.7272V26.2661H6.14116V26.7272L4.17096 26.9787L8.78206 39.5335L13.3093 27.6704L10.899 26.7272V26.2661H15.4053V26.7272L13.8752 27.6494L7.8808 43.453H7.71312Z" fill="#0891B2"/>
<path d="M12.1996 43.0338V42.5936L14.2537 41.7552L20.311 25.8469H20.6463L26.3683 42.2792L28.2966 42.5936V43.0338H22.1345V42.5936L23.8531 42.3212L22.0716 37.3537H16.4963L14.7986 41.7552L16.685 42.5936V43.0338H12.1996ZM16.664 36.9136H21.9249L19.4097 29.5358L16.664 36.9136Z" fill="#0891B2"/>
<path d="M33.7043 42.5936L35.6326 42.2792V27.0207L33.7043 26.7272V26.2661H40.097C41.6061 26.2661 42.8077 26.4058 43.702 26.6853C44.5963 26.9648 45.246 27.3909 45.6513 27.9638C46.0565 28.5228 46.2591 29.2633 46.2591 30.1856C46.2591 32.1977 44.9875 33.4832 42.4445 34.0421V34.1469C43.9955 34.3565 45.1971 34.8176 46.0495 35.5302C46.9158 36.2429 47.349 37.235 47.349 38.5065C47.349 40.0435 46.7831 41.1823 45.6513 41.9229C44.5334 42.6635 43.0173 43.0338 41.103 43.0338H33.7043V42.5936ZM40.2647 33.9792C41.3825 33.9792 42.2418 33.6648 42.8427 33.0361C43.4435 32.4073 43.7439 31.513 43.7439 30.3532V30.2275C43.7439 27.9359 42.5283 26.7901 40.097 26.7901H37.9381V33.9792H40.2647ZM41.103 42.5307C42.2907 42.5307 43.213 42.1884 43.8697 41.5037C44.5264 40.8051 44.8548 39.813 44.8548 38.5275V38.2969C44.8548 37.0254 44.5264 36.0752 43.8697 35.4464C43.2269 34.8176 42.3047 34.5032 41.103 34.5032H37.9381V42.5307H41.103Z" fill="#0891B2"/>
<path d="M54.9179 43.2434C53.8839 43.2434 52.9477 43.0128 52.1093 42.5517C51.2709 42.0766 50.6072 41.4129 50.1181 40.5605C49.6291 39.7082 49.3845 38.7231 49.3845 37.6052C49.3845 36.4874 49.6221 35.5093 50.0972 34.6709C50.5862 33.8185 51.236 33.1618 52.0464 32.7007C52.8708 32.2256 53.786 31.9881 54.7921 31.9881C55.6724 31.9881 56.4619 32.1837 57.1605 32.5749C57.8592 32.9662 58.4041 33.5111 58.7954 34.2098C59.1866 34.8945 59.3892 35.684 59.4032 36.5782H51.6901V38.6532C51.6901 39.8829 51.9626 40.8819 52.5075 41.6504C53.0664 42.405 53.8699 42.7823 54.9179 42.7823C55.882 42.7823 56.7343 42.5098 57.4749 41.9648C58.2155 41.4199 58.6696 40.7143 58.8373 39.8479H59.3194C59.1237 40.8819 58.6277 41.7063 57.8312 42.3212C57.0348 42.936 56.0636 43.2434 54.9179 43.2434ZM57.0977 36.0542C57.0977 34.8386 56.909 33.9373 56.5317 33.3505C56.1545 32.7496 55.5676 32.4492 54.7711 32.4492C53.8349 32.4492 53.1083 32.7776 52.5913 33.4343C52.0743 34.091 51.7809 34.9643 51.711 36.0542H57.0977Z" fill="#0891B2"/>
<path d="M64.2563 43.2434C63.3621 43.2434 62.6285 43.0128 62.0556 42.5517C61.4827 42.0766 61.1962 41.378 61.1962 40.4557C61.1962 39.1423 61.7482 38.2131 62.852 37.6681C63.9559 37.1092 65.2344 36.8297 66.6876 36.8297H68.0919V35.2159C68.0919 34.4893 68.0081 33.9303 67.8404 33.5391C67.6867 33.1339 67.4422 32.8544 67.1068 32.7007C66.7715 32.533 66.3174 32.4492 65.7445 32.4492C65.0877 32.4492 64.5987 32.5819 64.2773 32.8474C63.9559 33.0989 63.7952 33.4413 63.7952 33.8744C63.7952 34.2797 63.9908 34.5451 64.3821 34.6709C64.3821 35.0202 64.2493 35.3276 63.9839 35.5931C63.7184 35.8586 63.404 35.9914 63.0407 35.9914C62.6494 35.9914 62.335 35.8866 62.0975 35.677C61.8599 35.4534 61.7412 35.118 61.7412 34.6709C61.7412 33.8605 62.1464 33.2107 62.9568 32.7217C63.7673 32.2326 64.7803 31.9881 65.996 31.9881C68.7906 31.9881 70.1879 33.2037 70.1879 35.635V41.6295C70.1879 41.9369 70.2508 42.1744 70.3765 42.3421C70.5163 42.4958 70.7119 42.5727 70.9634 42.5727C71.2009 42.5727 71.3896 42.4958 71.5293 42.3421C71.669 42.1744 71.7389 41.9509 71.7389 41.6714H72.179C72.179 42.1605 72.0184 42.5447 71.697 42.8242C71.3896 43.1036 70.9564 43.2434 70.3975 43.2434C69.7547 43.2434 69.2098 43.0617 68.7626 42.6984C68.3295 42.3212 68.1059 41.7413 68.0919 40.9588C67.7566 41.6714 67.2396 42.2303 66.5409 42.6355C65.8562 43.0408 65.0947 43.2434 64.2563 43.2434ZM65.4091 42.3212C65.7864 42.3212 66.1706 42.2094 66.5619 41.9858C66.9671 41.7622 67.3094 41.4408 67.5889 41.0217C67.8684 40.5885 68.036 40.0715 68.0919 39.4706V37.2909H66.6876C65.5419 37.2909 64.6825 37.5494 64.1096 38.0664C63.5507 38.5694 63.2712 39.282 63.2712 40.2042C63.2712 40.9728 63.4529 41.5177 63.8162 41.8391C64.1795 42.1605 64.7105 42.3212 65.4091 42.3212Z" fill="#0891B2"/>
<path d="M77.1964 43.2434C76.1904 43.2434 75.3939 42.9919 74.807 42.4888C74.2341 41.9858 73.9477 41.2382 73.9477 40.2462V32.8055L72.4805 32.5959V32.1767H76.0436V40.2042C76.0436 40.9169 76.1904 41.4758 76.4838 41.881C76.7772 42.2862 77.2313 42.4888 77.8462 42.4888C78.4889 42.4888 79.1037 42.2792 79.6906 41.86C80.2914 41.4269 80.8224 40.8959 81.2835 40.2671V32.8055L79.8164 32.5959V32.1767H83.3795V42.405L84.8467 42.6146V43.0338H81.2835V41.0217C80.7805 41.7203 80.1727 42.2653 79.46 42.6565C78.7614 43.0477 78.0068 43.2434 77.1964 43.2434Z" fill="#0891B2"/>
<path d="M90.2717 43.2434C89.3495 43.2434 88.609 43.0128 88.05 42.5517C87.5051 42.0906 87.2326 41.357 87.2326 40.351V32.8055L85.7445 32.5959V32.1767H87.2326V30.4371L89.3286 29.9131V32.1767H92.0533V32.5959L89.3286 32.8055V40.309C89.3286 41.7902 89.8595 42.5307 90.9215 42.5307C91.1451 42.5307 91.3547 42.4958 91.5503 42.4259C91.7599 42.3561 91.9206 42.2862 92.0324 42.2164C92.1581 42.1465 92.235 42.0976 92.2629 42.0696L92.5354 42.405C91.9066 42.9639 91.152 43.2434 90.2717 43.2434Z" fill="#0891B2"/>
<path d="M95.1067 49.154C94.3801 49.154 93.7932 48.9723 93.3461 48.609C92.8989 48.2457 92.6754 47.7567 92.6754 47.1419C92.6754 46.7227 92.7942 46.3803 93.0317 46.1148C93.2832 45.8633 93.5906 45.7376 93.9539 45.7376C94.2194 45.7376 94.457 45.7935 94.6665 45.9052C94.8761 46.017 95.0438 46.1847 95.1696 46.4083C94.96 46.7017 94.8552 47.0091 94.8552 47.3305C94.8552 47.61 94.946 47.8405 95.1277 48.0222C95.3093 48.2038 95.5399 48.2946 95.8193 48.2946C96.1547 48.2946 96.4411 48.1828 96.6787 47.9593C96.9302 47.7357 97.1537 47.3445 97.3494 46.7855L98.6069 43.1805L93.7443 32.8265L92.34 32.6169V32.1977H97.559V32.6169L96.0918 32.8684L99.592 40.351L102.086 33.1409L100.284 32.6169V32.1977H104.056V32.6169L102.631 33.1409L97.9362 46.7855C97.6428 47.61 97.2865 48.2108 96.8673 48.5881C96.4621 48.9653 95.8752 49.154 95.1067 49.154Z" fill="#0891B2"/>
</svg>
